<?xml version="1.0" encoding="utf-8"?>
<!-- Generator: Adobe Illustrator 19.1.1, SVG Export Plug-In . SVG Version: 6.00 Build 0)  -->
<svg version="1.1" id="Calque_1" xmlns="http://www.w3.org/2000/svg" xmlns:xlink="http://www.w3.org/1999/xlink" x="0px" y="0px"
	 width="40px" height="40px" viewBox="0 0 40 40" enable-background="new 0 0 40 40" xml:space="preserve">
<g>
	<image overflow="visible" opacity="0.1" width="42" height="42" xlink:href="1BA08623.png" >
	</image>
	<g>
		<path fill="#FFFFFF" d="M28.9,5.6H11.1C8,5.6,5.6,8,5.6,11.1V17v11.8c0,3.1,2.5,5.5,5.5,5.5h17.7c3.1,0,5.5-2.5,5.5-5.5V17v-5.9
			C34.4,8,32,5.6,28.9,5.6z M30.5,8.9h0.6v0.6v4.3h-4.9V8.9H30.5z M15.9,17c0.9-1.2,2.5-2.1,4.1-2.1s3.2,0.9,4.1,2.1
			c0.6,0.9,1,1.8,1,3c0,2.8-2.3,5.1-5.1,5.1c-2.7,0-5.1-2.2-5.1-5.1C14.9,18.9,15.3,17.9,15.9,17z M31.6,28.9c0,1.5-1.2,2.7-2.7,2.7
			H11.1c-1.5,0-2.7-1.2-2.7-2.7V17h4.3c-0.4,0.9-0.6,2-0.6,3c0,4.3,3.6,7.9,7.9,7.9s7.9-3.6,7.9-7.9c0-1-0.2-2.1-0.6-3h4.3
			L31.6,28.9L31.6,28.9z"/>
	</g>
</g>
</svg>
