<?xml version="1.0" encoding="UTF-8"?>
<svg width="45px" height="45px" viewBox="0 0 45 45" version="1.1" xmlns="http://www.w3.org/2000/svg" xmlns:xlink="http://www.w3.org/1999/xlink">
    <!-- Generator: Sketch 42 (36781) - http://www.bohemiancoding.com/sketch -->
    <title>Artboard 3 Copy</title>
    <desc>Created with Sketch.</desc>
    <defs></defs>
    <g id="Page-1" stroke="none" stroke-width="1" fill="none" fill-rule="evenodd">
        <g id="Artboard-3-Copy" fill-rule="nonzero" fill="#7A7A7A">
            <g id="svg+xml" transform="translate(6.000000, 12.000000)">
                <g id="Calque_1">
                    <g id="Group">
                        <path d="M11,9.1 L11,13.3 L16.7,13.3 C15.8,16 14.4,17.5 11,17.5 C7.6,17.5 4.9,14.7 4.9,11.3 C4.9,7.9 7.5,5 11,5 C12.8,5 14,5.6 15.1,6.5 C16,5.6 15.9,5.5 18.1,3.4 C16.2,1.7 13.8,0.7 11,0.7 C5.2,0.7 0.5,5.4 0.5,11.2 C0.5,17 5.2,21.7 11,21.7 C19.7,21.7 21.8,14.2 21.1,9.1 L11,9.1 Z M29.9,9.4 L29.9,5.8 L27.3,5.8 L27.3,9.4 L23.6,9.4 L23.6,12 L27.3,12 L27.3,15.7 L29.9,15.7 L29.9,12 L33.5,12 L33.5,9.4 L29.9,9.4 Z" id="Shape"></path>
                    </g>
                </g>
            </g>
        </g>
    </g>
</svg>