<?xml version="1.0" encoding="utf-8"?>
<!-- Generator: Adobe Illustrator 19.1.1, SVG Export Plug-In . SVG Version: 6.00 Build 0)  -->
<svg version="1.1" id="Calque_1" xmlns="http://www.w3.org/2000/svg" xmlns:xlink="http://www.w3.org/1999/xlink" x="0px" y="0px"
	 width="40px" height="40px" viewBox="0 0 40 40" enable-background="new 0 0 40 40" xml:space="preserve">
<g>
	<image overflow="visible" opacity="0.1" width="46" height="34" xlink:href="CE61D04B.png"  transform="matrix(1 0 0 1 -2 4)">
	</image>
	<g>
		<g>
			<path fill="#FFFFFF" d="M14,18.1v4.2c0,0,4,0,5.7,0c-0.9,2.7-2.3,4.2-5.7,4.2c-3.4,0-6.1-2.8-6.1-6.2S10.5,14,14,14
				c1.8,0,3,0.6,4.1,1.5c0.9-0.9,0.8-1,3-3.1c-1.9-1.7-4.3-2.7-7.1-2.7c-5.8,0-10.5,4.7-10.5,10.5C3.5,26,8.2,30.7,14,30.7
				c8.7,0,10.8-7.5,10.1-12.6C22,18.1,14,18.1,14,18.1z M32.9,18.4v-3.6h-2.6v3.6h-3.7v2.6h3.7v3.7h2.6v-3.7h3.6v-2.6H32.9z"/>
		</g>
	</g>
</g>
</svg>
