<?xml version="1.0" standalone="no"?>
<!DOCTYPE svg PUBLIC "-//W3C//DTD SVG 1.1//EN" "http://www.w3.org/Graphics/SVG/1.1/DTD/svg11.dtd" >
<svg>
<metadata>
Copyright 2012 Google Inc. All Rights Reserved.
</metadata>
<defs>
<font id="NotoSans-Regular" horiz-adv-x="0" >
  <font-face 
    font-family="Noto Sans"
    font-weight="400"
    font-stretch="normal"
    units-per-em="2048"
    panose-1="2 11 5 2 4 5 4 2 2 4"
    ascent="1638"
    descent="-410"
    x-height="1098"
    cap-height="1462"
    bbox="-1232 -806 2706 2146"
    underline-thickness="102"
    underline-position="-103"
    unicode-range="U+000D-FFFD"
  />
<missing-glyph horiz-adv-x="1229" 
d="M193 1462h841v-1462h-841v1462zM297 104h633v1254h-633v-1254z" />
    <glyph glyph-name=".notdef" horiz-adv-x="1229" 
d="M193 1462h841v-1462h-841v1462zM297 104h633v1254h-633v-1254z" />
    <glyph glyph-name="glyph1" 
 />
    <glyph glyph-name="glyph2" horiz-adv-x="1044" 
 />
    <glyph glyph-name="glyph3" horiz-adv-x="532" 
 />
    <glyph glyph-name="glyph4" horiz-adv-x="551" 
d="M334 412h-117l-51 1050h219zM147 111q0 66 32.5 101.5t94.5 35.5t94.5 -36.5t32.5 -100.5t-33.5 -102t-93.5 -38q-61 0 -94 37t-33 103z" />
    <glyph glyph-name="glyph5" horiz-adv-x="836" 
d="M328 1462l-41 -528h-113l-41 528h195zM702 1462l-40 -528h-113l-41 528h194z" />
    <glyph glyph-name="glyph6" horiz-adv-x="1323" 
d="M983 893l-63 -328h280v-137h-307l-84 -428h-145l84 428h-293l-80 -428h-144l78 428h-258v137h285l65 328h-274v135h299l82 434h147l-82 -434h295l82 434h142l-82 -434h260v-135h-287zM481 565h293l64 328h-293z" />
    <glyph glyph-name="dollar" unicode="$" horiz-adv-x="1171" 
d="M1040 449q0 -137 -101.5 -227t-289.5 -113v-228h-131v219q-114 2 -218.5 19.5t-172.5 48.5v168q75 -35 183.5 -60.5t207.5 -27.5v428q-205 65 -290 152.5t-85 224.5q0 132 101 217t274 104v180h131v-178q190 -5 361 -76l-56 -141q-155 61 -305 72v-422
q160 -54 238.5 -102t115.5 -109.5t37 -148.5zM858 436q0 72 -47 114.5t-162 82.5v-375q209 32 209 178zM326 1055q0 -73 43 -118t149 -83v373q-94 -16 -143 -61t-49 -111z" />
    <glyph glyph-name="glyph8" horiz-adv-x="1702" 
d="M250 1026q0 -165 35.5 -248.5t113.5 -83.5q158 0 158 332q0 330 -158 330q-78 0 -113.5 -82.5t-35.5 -247.5zM707 1026q0 -228 -78.5 -344.5t-229.5 -116.5q-142 0 -220.5 119.5t-78.5 341.5q0 229 76.5 343t222.5 114q147 0 227.5 -118.5t80.5 -338.5zM1145 440
q0 -167 35.5 -249t113.5 -82q81 0 119.5 81.5t38.5 249.5q0 328 -158 328q-78 0 -113.5 -81.5t-35.5 -246.5zM1602 440q0 -227 -79 -343.5t-229 -116.5q-142 0 -220.5 119.5t-78.5 340.5q0 229 76 343t223 114t227.5 -118.5t80.5 -338.5zM1335 1462l-811 -1462h-157
l811 1462h157z" />
    <glyph glyph-name="ampersand" unicode="&#x26;" horiz-adv-x="1499" 
d="M422 1167q0 -65 35.5 -130t115.5 -144q124 69 175 132t51 144q0 76 -51 122t-132 46q-89 0 -141.5 -47t-52.5 -123zM575 139q227 0 383 146l-426 413q-138 -83 -186.5 -151t-48.5 -160q0 -113 77 -180.5t201 -67.5zM109 381q0 130 67 228t248 202q-77 87 -109.5 137.5
t-50.5 104t-18 112.5q0 148 99 234t278 86q165 0 259.5 -84t94.5 -232q0 -109 -68.5 -200t-224.5 -183l395 -380q93 108 144 325h182q-69 -285 -209 -440l299 -291h-244l-178 172q-114 -102 -235.5 -147t-268.5 -45q-215 0 -337.5 105t-122.5 296z" />
    <glyph glyph-name="glyph10" horiz-adv-x="461" 
d="M328 1462l-41 -528h-113l-41 528h195z" />
    <glyph glyph-name="glyph11" horiz-adv-x="614" 
d="M82 561q0 265 77.5 496t223.5 405h170q-144 -193 -216.5 -424t-72.5 -475q0 -240 74 -469t213 -418h-168q-147 170 -224 397t-77 488z" />
    <glyph glyph-name="glyph12" horiz-adv-x="614" 
d="M532 561q0 -263 -77.5 -490t-223.5 -395h-168q139 188 213 417.5t74 469.5q0 244 -72.5 475t-216.5 424h170q147 -175 224 -406.5t77 -494.5z" />
    <glyph glyph-name="glyph13" horiz-adv-x="1128" 
d="M659 1556l-41 -393l394 111l28 -189l-376 -30l243 -324l-176 -96l-174 358l-158 -358l-182 96l240 324l-373 30l29 189l389 -111l-43 393h200z" />
    <glyph glyph-name="glyph14" horiz-adv-x="1171" 
d="M657 795h408v-146h-408v-422h-147v422h-408v146h408v424h147v-424z" />
    <glyph glyph-name="glyph15" horiz-adv-x="549" 
d="M379 238l14 -23q-55 -214 -176 -479h-133q65 250 102 502h193z" />
    <glyph glyph-name="glyph16" horiz-adv-x="659" 
d="M82 469v160h496v-160h-496z" />
    <glyph glyph-name="glyph17" horiz-adv-x="549" 
d="M147 111q0 66 32.5 101.5t92.5 35.5q61 0 95 -35.5t34 -101.5q0 -65 -34 -102.5t-95 -37.5q-59 0 -92 37t-33 103z" />
    <glyph glyph-name="glyph18" horiz-adv-x="762" 
d="M741 1462l-544 -1462h-177l545 1462h176z" />
    <glyph glyph-name="glyph19" horiz-adv-x="1171" 
d="M1071 733q0 -381 -120.5 -567t-366.5 -186q-238 0 -361 191.5t-123 561.5q0 382 118.5 567t365.5 185q238 0 362.5 -192t124.5 -560zM281 733q0 -318 72.5 -459t230.5 -141q160 0 232.5 144.5t72.5 455.5q0 308 -72.5 453t-232.5 145t-231.5 -142t-71.5 -456z" />
    <glyph glyph-name="glyph20" horiz-adv-x="1171" 
d="M727 0h-176v1022q0 136 8 252q-28 -30 -60 -56q-102 -85 -223 -184l-94 121l396 307h149v-1462z" />
    <glyph glyph-name="glyph21" horiz-adv-x="1171" 
d="M1065 0h-967v150l383 387q173 175 229 250t83.5 145t27.5 151q0 116 -69 181t-189 65q-90 0 -170.5 -30t-181.5 -109l-96 121q205 172 448 172q204 0 323.5 -104.5t119.5 -284.5q0 -96 -35 -185.5t-105 -182t-235 -253.5l-305 -301v-8h739v-164z" />
    <glyph glyph-name="glyph22" horiz-adv-x="1171" 
d="M1010 1120q0 -140 -78.5 -230t-224.5 -120v-8q175 -22 261.5 -112t86.5 -234q0 -209 -145 -322.5t-416 -113.5q-116 0 -213.5 17t-188.5 62v168q93 -46 199 -71t205 -25q370 0 370 289q0 258 -409 258h-142v153h144q172 0 269 73.5t97 203.5q0 105 -70.5 164t-195.5 59
q-97 0 -179.5 -26.5t-189.5 -96.5l-90 123q90 71 207.5 111.5t249.5 40.5q214 0 333.5 -97.5t119.5 -265.5z" />
    <glyph glyph-name="glyph23" horiz-adv-x="1171" 
d="M1130 332h-212v-332h-175v332h-700v153l688 985h187v-976h212v-162zM743 494v460q0 137 11 324h-9q-11 -26 -38.5 -78t-49.5 -82l-438 -624h524z" />
    <glyph glyph-name="glyph24" horiz-adv-x="1171" 
d="M563 897q229 0 360.5 -115t131.5 -315q0 -228 -145 -357.5t-402 -129.5q-245 0 -379 79v170q74 -44 178 -70t203 -26q172 0 266 82t94 234q0 296 -366 296q-118 0 -250 -30l-90 57l55 690h733v-164h-579l-35 -424q115 23 225 23z" />
    <glyph glyph-name="glyph25" horiz-adv-x="1171" 
d="M113 625q0 858 669 858q116 0 181 -19v-153q-76 24 -177 24q-233 0 -356.5 -142t-136.5 -450h12q110 172 346 172q198 0 311 -120t113 -324q0 -227 -125 -359t-340 -132q-150 0 -262.5 76t-173.5 222.5t-61 346.5zM608 131q139 0 214 89t75 251q0 146 -73 224.5
t-210 78.5q-87 0 -159.5 -36t-116 -100t-43.5 -132q0 -100 40 -187.5t111 -137.5t162 -50z" />
    <glyph glyph-name="glyph26" horiz-adv-x="1171" 
d="M279 0l600 1298h-789v164h981v-139l-594 -1323h-198z" />
    <glyph glyph-name="glyph27" horiz-adv-x="1171" 
d="M584 1483q200 0 319 -93t119 -257q0 -110 -66.5 -197t-212.5 -162q177 -86 251.5 -179.5t74.5 -215.5q0 -182 -129 -290.5t-350 -108.5q-234 0 -362 102t-128 291q0 250 303 391q-136 78 -196 168t-60 203q0 159 119.5 253.5t317.5 94.5zM276 371q0 -116 82.5 -182
t227.5 -66q143 0 225 67.5t82 186.5q0 96 -78 171t-262 142q-145 -62 -211 -138t-66 -181zM582 1337q-118 0 -188 -56t-70 -155q0 -63 27 -111t78 -86t163 -85q137 57 194.5 125t57.5 157q0 100 -71 155.5t-191 55.5z" />
    <glyph glyph-name="glyph28" horiz-adv-x="1171" 
d="M1065 838q0 -858 -672 -858q-116 0 -184 20v154q77 -27 180 -27q163 0 269 65.5t161.5 191t63.5 333.5h-13q-112 -170 -348 -170q-193 0 -306.5 117.5t-113.5 324.5q0 226 127 360t340 134q150 0 262.5 -76.5t173 -223t60.5 -345.5zM569 1331q-136 0 -212 -89t-76 -251
q0 -146 71.5 -223.5t208.5 -77.5q90 0 164 36.5t116 98.5t42 131q0 100 -39.5 187t-110.5 137.5t-164 50.5z" />
    <glyph glyph-name="glyph29" horiz-adv-x="549" 
d="M147 111q0 66 32.5 101.5t92.5 35.5q61 0 95 -35.5t34 -101.5q0 -65 -34 -102.5t-95 -37.5q-59 0 -92 37t-33 103zM147 987q0 66 31.5 102.5t93.5 36.5q63 0 96 -36t33 -103q0 -64 -34 -101.5t-95 -37.5q-59 0 -92 37t-33 102z" />
    <glyph glyph-name="glyph30" horiz-adv-x="549" 
d="M360 238l15 -23q-52 -199 -176 -479h-136q27 104 59.5 257t45.5 245h192zM143 987q0 66 31.5 102.5t93.5 36.5q129 0 129 -139q0 -66 -34 -102.5t-95 -36.5q-59 0 -92 37t-33 102z" />
    <glyph glyph-name="glyph31" horiz-adv-x="1171" 
d="M1067 238l-965 424v102l965 481v-160l-772 -364l772 -324v-159z" />
    <glyph glyph-name="glyph32" horiz-adv-x="1171" 
d="M115 852v145h938v-145h-938zM115 444v146h938v-146h-938z" />
    <glyph glyph-name="glyph33" horiz-adv-x="1171" 
d="M102 397l772 322l-772 366v160l965 -481v-102l-965 -424v159z" />
    <glyph glyph-name="glyph34" horiz-adv-x="889" 
d="M287 412v55q0 119 38 193.5t134 154.5q109 92 143 132t48 80t14 93q0 99 -64 152t-184 53q-80 0 -156.5 -20t-171.5 -66l-63 143q190 101 403 101q190 0 299 -94.5t109 -264.5q0 -74 -20 -131t-60.5 -108t-161.5 -152q-99 -85 -131.5 -140.5t-32.5 -146.5v-34h-143z
M240 111q0 137 127 137q58 0 91.5 -34.5t33.5 -102.5q0 -67 -34 -103.5t-91 -36.5q-56 0 -91.5 33t-35.5 107z" />
    <glyph glyph-name="at" unicode="@" horiz-adv-x="1841" 
d="M1722 731q0 -140 -44.5 -258t-124.5 -184t-185 -66q-85 0 -143 49.5t-72 128.5h-10q-39 -83 -114 -130.5t-175 -47.5q-152 0 -239 101.5t-87 279.5q0 133 53.5 238.5t153.5 164t228 58.5q69 0 157.5 -12.5t155.5 -36.5l-23 -468v-22q0 -176 127 -176q89 0 144 105t55 278
q0 179 -73.5 314t-209 207.5t-309.5 72.5q-220 0 -383.5 -91.5t-250.5 -261t-87 -394.5q0 -302 159 -464.5t462 -162.5q212 0 440 88v-139q-200 -84 -440 -84q-364 0 -566 199.5t-202 555.5q0 259 107.5 462.5t305.5 315t455 111.5q215 0 383.5 -91t260 -258t91.5 -382z
M688 600q0 -250 193 -250q205 0 223 309l12 256q-73 21 -151 21q-129 0 -203 -89t-74 -247z" />
    <glyph glyph-name="A" unicode="A" horiz-adv-x="1309" 
d="M1116 0l-176 453h-580l-174 -453h-186l571 1468h166l570 -1468h-191zM885 616l-164 443l-70 219q-30 -120 -63 -219l-166 -443h463z" />
    <glyph glyph-name="B" unicode="B" horiz-adv-x="1331" 
d="M199 1462h417q294 0 424.5 -87.5t130.5 -274.5q0 -130 -71 -214.5t-207 -109.5v-10q169 -29 248.5 -117t79.5 -233q0 -196 -134 -306t-374 -110h-514v1462zM383 840h270q172 0 250 55t78 184q0 120 -85.5 173t-270.5 53h-242v-465zM383 686v-530h295q176 0 261 68t85 206
q0 131 -90 193.5t-270 62.5h-281z" />
    <glyph glyph-name="C" unicode="C" horiz-adv-x="1294" 
d="M825 1321q-236 0 -371 -158t-135 -432q0 -283 131 -436.5t373 -153.5q156 0 351 58v-160q-93 -34 -179 -46.5t-198 -12.5q-323 0 -497.5 196.5t-174.5 556.5q0 226 83.5 396t243 262t375.5 92q232 0 404 -86l-74 -156q-175 80 -332 80z" />
    <glyph glyph-name="D" unicode="D" horiz-adv-x="1495" 
d="M1370 745q0 -362 -197.5 -553.5t-566.5 -191.5h-407v1462h450q341 0 531 -187.5t190 -529.5zM1176 739q0 279 -137.5 422.5t-415.5 143.5h-240v-1147h199q594 0 594 581z" />
    <glyph glyph-name="E" unicode="E" horiz-adv-x="1139" 
d="M1016 0h-817v1462h817v-162h-633v-456h596v-160h-596v-522h633v-162z" />
    <glyph glyph-name="F" unicode="F" horiz-adv-x="1063" 
d="M383 0h-184v1462h817v-162h-633v-518h594v-161h-594v-621z" />
    <glyph glyph-name="G" unicode="G" horiz-adv-x="1491" 
d="M834 772h505v-717q-116 -37 -236 -56t-278 -19q-334 0 -517 198t-183 553q0 229 91 400t262.5 261.5t404.5 90.5q234 0 436 -86l-70 -160q-193 84 -377 84q-261 0 -408 -158t-147 -432q0 -290 141 -441t410 -151q147 0 287 35v434h-321v164z" />
    <glyph glyph-name="H" unicode="H" horiz-adv-x="1518" 
d="M1317 0h-184v682h-750v-682h-184v1462h184v-618h750v618h184v-1462z" />
    <glyph glyph-name="I" unicode="I" horiz-adv-x="694" 
d="M610 0h-528v106l172 39v1170l-172 41v106h528v-106l-172 -41v-1170l172 -39v-106z" />
    <glyph glyph-name="J" unicode="J" horiz-adv-x="559" 
d="M-8 -389q-94 0 -152 27v155q71 -20 148 -20q100 0 150 60.5t50 174.5v1454h185v-1439q0 -198 -98.5 -305t-282.5 -107z" />
    <glyph glyph-name="K" unicode="K" horiz-adv-x="1268" 
d="M1268 0h-217l-519 698l-149 -131v-567h-184v1462h184v-721l126 139l521 582h215l-579 -637z" />
    <glyph glyph-name="L" unicode="L" horiz-adv-x="1073" 
d="M199 0v1462h184v-1298h639v-164h-823z" />
    <glyph glyph-name="M" unicode="M" horiz-adv-x="1858" 
d="M844 0l-482 1282h-8q15 -160 15 -395v-887h-170v1462h272l451 -1198h8l459 1198h270v-1462h-182v899q0 150 14 381h-8l-488 -1280h-151z" />
    <glyph glyph-name="N" unicode="N" horiz-adv-x="1556" 
d="M1358 0h-215l-783 1214h-8l5 -81q12 -182 12 -316v-817h-170v1462h213l45 -71l480 -742l255 -397h8q-2 24 -8 171.5t-6 213.5v825h172v-1462z" />
    <glyph glyph-name="O" unicode="O" horiz-adv-x="1599" 
d="M1475 733q0 -351 -177.5 -552t-496.5 -201q-323 0 -499.5 197.5t-176.5 557.5q0 357 175.5 553.5t502.5 196.5q318 0 495 -199.5t177 -552.5zM319 733q0 -290 123 -442t359 -152q235 0 357 150t122 444q0 293 -121 441.5t-356 148.5q-238 0 -361 -150.5t-123 -439.5z" />
    <glyph glyph-name="P" unicode="P" horiz-adv-x="1239" 
d="M1135 1032q0 -224 -153 -343.5t-431 -119.5h-168v-569h-184v1462h387q549 0 549 -430zM383 727h147q218 0 316 70.5t98 226.5q0 141 -91 211t-284 70h-186v-578z" />
    <glyph glyph-name="Q" unicode="Q" horiz-adv-x="1599" 
d="M1475 733q0 -277 -111 -462t-315 -255l350 -364h-264l-283 330l-51 -2q-323 0 -499.5 197.5t-176.5 557.5q0 357 175.5 553.5t502.5 196.5q318 0 495 -199.5t177 -552.5zM319 733q0 -290 123 -442t359 -152q235 0 357 150t122 444q0 293 -121 441.5t-356 148.5
q-238 0 -361 -150.5t-123 -439.5z" />
    <glyph glyph-name="R" unicode="R" horiz-adv-x="1274" 
d="M383 760h219q178 0 260 70t82 208t-83 201.5t-269 63.5h-209v-543zM383 604v-604h-184v1462h403q272 0 402.5 -103.5t130.5 -311.5q0 -291 -293 -392l401 -655h-215l-354 604h-291z" />
    <glyph glyph-name="S" unicode="S" horiz-adv-x="1124" 
d="M1028 391q0 -191 -138 -301t-384 -110q-260 0 -402 69v176q93 -40 203.5 -63t206.5 -23q164 0 247 63t83 173q0 73 -30 120t-100.5 88t-213.5 93q-203 74 -290 174.5t-87 259.5q0 171 128.5 272t338.5 101q219 0 403 -82l-57 -158q-188 78 -350 78q-130 0 -203.5 -56
t-73.5 -157q0 -72 28.5 -119.5t92 -86.5t199.5 -89q163 -60 243 -116.5t118 -130t38 -175.5z" />
    <glyph glyph-name="T" unicode="T" horiz-adv-x="1139" 
d="M662 0h-185v1300h-457v162h1096v-162h-454v-1300z" />
    <glyph glyph-name="U" unicode="U" horiz-adv-x="1497" 
d="M1311 1462v-946q0 -250 -151 -393t-419 -143q-265 0 -411 144.5t-146 395.5v942h185v-948q0 -179 95.5 -277t287.5 -98q181 0 278.5 97t97.5 280v946h183z" />
    <glyph glyph-name="V" unicode="V" horiz-adv-x="1229" 
d="M0 1462h193l329 -938q63 -178 92 -319q25 126 93 323l327 934h195l-522 -1462h-185z" />
    <glyph glyph-name="W" unicode="W" horiz-adv-x="1905" 
d="M1489 0h-186l-285 958q-63 214 -74 289q-16 -115 -70 -295l-276 -952h-186l-387 1462h192l227 -893q46 -175 70 -348q22 164 78 359l258 882h190l269 -889q52 -173 80 -352q16 138 71 350l226 891h192z" />
    <glyph glyph-name="X" unicode="X" horiz-adv-x="1200" 
d="M1192 0h-209l-387 635l-393 -635h-195l486 762l-455 700h205l358 -573l361 573h194l-452 -696z" />
    <glyph glyph-name="Y" unicode="Y" horiz-adv-x="1159" 
d="M580 743l381 719h198l-487 -895v-567h-185v559l-487 903h201z" />
    <glyph glyph-name="Z" unicode="Z" horiz-adv-x="1171" 
d="M1092 0h-1014v139l770 1159h-746v164h969v-139l-770 -1159h791v-164z" />
    <glyph glyph-name="glyph62" horiz-adv-x="674" 
d="M623 -324h-459v1786h459v-147h-283v-1491h283v-148z" />
    <glyph glyph-name="glyph63" horiz-adv-x="762" 
d="M197 1462l546 -1462h-178l-545 1462h177z" />
    <glyph glyph-name="glyph64" horiz-adv-x="674" 
d="M51 -176h283v1491h-283v147h459v-1786h-459v148z" />
    <glyph glyph-name="glyph65" horiz-adv-x="1171" 
d="M78 547l434 926h102l480 -926h-160l-369 735l-327 -735h-160z" />
    <glyph glyph-name="glyph66" horiz-adv-x="909" 
d="M913 -315h-917v131h917v-131z" />
    <glyph glyph-name="grave" unicode="`" horiz-adv-x="1188" 
d="M799 1241h-121q-75 60 -164.5 155.5t-126.5 151.5v21h215q32 -66 91 -157.5t106 -145.5v-25z" />
    <glyph glyph-name="a" unicode="a" horiz-adv-x="1149" 
d="M852 0l-35 156h-8q-82 -103 -163.5 -139.5t-205.5 -36.5q-162 0 -254 85t-92 240q0 334 527 350l186 7v65q0 125 -54 184.5t-173 59.5q-87 0 -164.5 -26t-145.5 -58l-55 135q83 44 181 69t194 25q199 0 296 -88t97 -280v-748h-131zM481 125q151 0 237.5 81.5t86.5 231.5
v99l-162 -7q-189 -7 -275.5 -60t-86.5 -167q0 -86 52.5 -132t147.5 -46z" />
    <glyph glyph-name="b" unicode="b" horiz-adv-x="1260" 
d="M694 1116q217 0 335 -149.5t118 -417.5q0 -272 -120 -420.5t-333 -148.5q-111 0 -198 40t-142 119h-14q-31 -120 -37 -139h-129v1556h180v-378q0 -113 -10 -226h10q111 164 340 164zM664 967q-166 0 -238 -94t-72 -318v-8q0 -225 73.5 -321.5t240.5 -96.5
q148 0 220.5 108.5t72.5 313.5q0 208 -73 312t-224 104z" />
    <glyph glyph-name="c" unicode="c" horiz-adv-x="983" 
d="M614 -20q-237 0 -369 145.5t-132 417.5q0 276 133.5 425.5t380.5 149.5q80 0 158.5 -16.5t129.5 -42.5l-55 -150q-139 52 -237 52q-166 0 -245 -104.5t-79 -311.5q0 -199 79 -304.5t234 -105.5q145 0 285 64v-160q-114 -59 -283 -59z" />
    <glyph glyph-name="d" unicode="d" horiz-adv-x="1260" 
d="M563 -20q-214 0 -332 148t-118 419q0 269 118.5 420t333.5 151q221 0 340 -162h13q-3 20 -8 80.5t-5 81.5v438h180v-1556h-145l-27 147h-8q-115 -167 -342 -167zM592 129q164 0 239.5 89.5t75.5 293.5v33q0 229 -76.5 326.5t-240.5 97.5q-139 0 -215 -110.5t-76 -315.5
q0 -204 75.5 -309t217.5 -105z" />
    <glyph glyph-name="e" unicode="e" horiz-adv-x="1155" 
d="M641 -20q-247 0 -387.5 149.5t-140.5 411.5q0 264 131 420.5t354 156.5q207 0 330 -133.5t123 -361.5v-109h-752q5 -187 95 -284t255 -97q88 0 167 15.5t185 60.5v-158q-91 -39 -171 -55t-189 -16zM596 971q-129 0 -204 -83t-89 -231h559q-2 154 -71 234t-195 80z" />
    <glyph glyph-name="f" unicode="f" horiz-adv-x="705" 
d="M680 958h-277v-958h-180v958h-192v84l192 62v63q0 200 87.5 300t269.5 100q105 0 213 -37l-48 -141q-93 30 -163 30q-91 0 -135 -60t-44 -190v-71h277v-140z" />
    <glyph glyph-name="g" unicode="g" horiz-adv-x="1260" 
d="M592 127q166 0 241.5 89.5t75.5 287.5v43q0 220 -76 320t-245 100q-138 0 -213.5 -109.5t-75.5 -312.5q0 -204 73.5 -311t219.5 -107zM907 10l6 135h-8q-111 -165 -340 -165q-213 0 -332.5 148.5t-119.5 418.5q0 265 120.5 418t329.5 153q223 0 344 -166h11l24 146h143
v-1116q0 -236 -119.5 -355t-371.5 -119q-240 0 -395 70v166q160 -86 405 -86q140 0 221.5 82t81.5 227v43z" />
    <glyph glyph-name="h" unicode="h" horiz-adv-x="1266" 
d="M922 0v702q0 134 -59.5 199.5t-186.5 65.5q-167 0 -244.5 -93t-77.5 -307v-567h-180v1556h180v-456q0 -90 -10 -154h12q49 80 139 125t203 45q200 0 301 -95.5t101 -305.5v-715h-178z" />
    <glyph glyph-name="i" unicode="i" horiz-adv-x="528" 
d="M354 0h-180v1098h180v-1098zM160 1395q0 60 30.5 87t75.5 27q42 0 73.5 -27t31.5 -87q0 -59 -31.5 -87t-73.5 -28q-45 0 -75.5 28t-30.5 87z" />
    <glyph glyph-name="j" unicode="j" horiz-adv-x="528" 
d="M45 -492q-94 0 -158 25v145q69 -20 136 -20q78 0 114.5 42.5t36.5 129.5v1268h180v-1262q0 -164 -78.5 -246t-230.5 -82zM160 1395q0 60 30.5 87t75.5 27q42 0 73.5 -27t31.5 -87q0 -59 -31.5 -87t-73.5 -28q-45 0 -75.5 28t-30.5 87z" />
    <glyph glyph-name="k" unicode="k" horiz-adv-x="1094" 
d="M352 565l61 78l70 84l351 371h210l-444 -469l475 -629h-217l-381 512l-125 -109v-403h-178v1556h178v-813l-8 -178h8z" />
    <glyph glyph-name="l" unicode="l" horiz-adv-x="528" 
d="M354 0h-180v1556h180v-1556z" />
    <glyph glyph-name="m" unicode="m" horiz-adv-x="1915" 
d="M1571 0v707q0 260 -223 260q-153 0 -225 -89t-72 -272v-606h-179v707q0 130 -54.5 195t-170.5 65q-152 0 -222.5 -93t-70.5 -305v-569h-180v1098h145l27 -150h10q47 80 132.5 125t191.5 45q258 0 336 -184h10q53 88 144.5 136t207.5 48q186 0 278.5 -96t92.5 -307v-715
h-178z" />
    <glyph glyph-name="n" unicode="n" horiz-adv-x="1266" 
d="M922 0v702q0 134 -59.5 199.5t-186.5 65.5q-169 0 -245.5 -93.5t-76.5 -304.5v-569h-180v1098h145l27 -150h10q51 81 143 125.5t203 44.5q202 0 300 -98t98 -305v-715h-178z" />
    <glyph glyph-name="o" unicode="o" horiz-adv-x="1239" 
d="M1128 551q0 -269 -136 -420t-376 -151q-149 0 -264 69.5t-177 199.5t-62 302q0 268 134 417.5t376 149.5q232 0 368.5 -152.5t136.5 -414.5zM299 551q0 -207 81.5 -314.5t240.5 -107.5q157 0 239 107.5t82 314.5t-82.5 311.5t-241.5 104.5q-319 0 -319 -416z" />
    <glyph glyph-name="p" unicode="p" horiz-adv-x="1260" 
d="M694 -20q-221 0 -340 159h-12l4 -41q8 -78 8 -139v-451h-180v1590h148l24 -150h8q64 90 148 130t194 40q214 0 332.5 -148.5t118.5 -418.5q0 -269 -119 -420t-334 -151zM664 967q-163 0 -235.5 -92t-74.5 -289v-35q0 -223 74 -322.5t240 -99.5q138 0 215.5 112t77.5 312
q0 201 -77.5 307.5t-219.5 106.5z" />
    <glyph glyph-name="q" unicode="q" horiz-adv-x="1260" 
d="M594 129q161 0 235 88t78 291v37q0 227 -76 325.5t-241 98.5q-141 0 -216 -111t-75 -315q0 -201 74.5 -307.5t220.5 -106.5zM559 -20q-212 0 -329 150t-117 417q0 268 119.5 419.5t332.5 151.5q225 0 342 -170h8l27 150h143v-1590h-180v469q0 110 10 170h-12
q-115 -167 -344 -167z" />
    <glyph glyph-name="r" unicode="r" horiz-adv-x="846" 
d="M686 1118q73 0 129 -12l-22 -166q-61 14 -119 14q-87 0 -161.5 -48t-116.5 -132.5t-42 -187.5v-586h-180v1098h148l20 -201h8q63 109 149 165t187 56z" />
    <glyph glyph-name="s" unicode="s" horiz-adv-x="981" 
d="M889 303q0 -154 -115 -238.5t-323 -84.5q-217 0 -345 69v164q181 -88 349 -88q136 0 198 44t62 118q0 65 -59.5 110t-211.5 103q-155 60 -218 102.5t-92.5 95.5t-29.5 129q0 135 110 213t302 78q187 0 350 -74l-61 -143q-167 70 -301 70q-112 0 -170 -35.5t-58 -97.5
q0 -60 50 -99.5t233 -109.5q137 -51 202.5 -95t96.5 -99t31 -132z" />
    <glyph glyph-name="t" unicode="t" horiz-adv-x="739" 
d="M541 127q35 0 82 7t71 16v-138q-25 -11 -77.5 -21.5t-106.5 -10.5q-322 0 -322 339v639h-155v86l157 72l72 234h107v-252h317v-140h-317v-634q0 -95 45.5 -146t126.5 -51z" />
    <glyph glyph-name="u" unicode="u" horiz-adv-x="1266" 
d="M344 1098v-707q0 -133 59.5 -197.5t184.5 -64.5q169 0 246 94t77 303v572h181v-1098h-148l-26 145h-9q-49 -79 -139 -122t-209 -43q-198 0 -298.5 95t-100.5 304v719h182z" />
    <glyph glyph-name="v" unicode="v" horiz-adv-x="1040" 
d="M416 0l-416 1098h193l233 -647q69 -195 88 -291h8q3 13 7.5 29.5t10.5 36t74 225.5l234 647h192l-417 -1098h-207z" />
    <glyph glyph-name="w" unicode="w" horiz-adv-x="1610" 
d="M1071 0l-188 618q-26 77 -76 291h-8q-42 -195 -74 -293l-197 -616h-204l-301 1098h186q104 -405 158.5 -616t64.5 -298h8l14 62q31 143 60 233l195 619h196l189 -619q10 -35 21.5 -74.5t21.5 -78t18 -75t12 -65.5h9q9 76 73 326l154 586h184l-305 -1098h-211z" />
    <glyph glyph-name="x" unicode="x" horiz-adv-x="1083" 
d="M434 561l-379 537h205l283 -414l280 414h203l-379 -537l400 -561h-205l-299 438l-303 -438h-203z" />
    <glyph glyph-name="y" unicode="y" horiz-adv-x="1044" 
d="M2 1098h193l237 -625q75 -204 92 -299h8q9 37 41 138.5t54 162.5l223 623h194l-473 -1250q-69 -182 -164 -261t-235 -79q-75 0 -149 17v143q50 -12 120 -12q86 0 146 47.5t98 146.5l57 146z" />
    <glyph glyph-name="z" unicode="z" horiz-adv-x="963" 
d="M883 0h-803v119l590 839h-555v140h753v-135l-581 -824h596v-139z" />
    <glyph glyph-name="glyph94" horiz-adv-x="778" 
d="M57 645q132 2 191 48.5t59 142.5v303q0 155 107.5 239t298.5 84v-147q-116 -4 -172 -51t-56 -142v-295q0 -210 -223 -249v-13q115 -20 169 -82t54 -168v-301q0 -100 59 -144t169 -46v-148q-200 2 -303 86t-103 240v301q0 104 -64.5 148.5t-185.5 44.5v149z" />
    <glyph glyph-name="glyph95" horiz-adv-x="1128" 
d="M489 1556h150v-2050h-150v2050z" />
    <glyph glyph-name="glyph96" horiz-adv-x="778" 
d="M721 496q-122 -2 -186 -45t-64 -146v-305q0 -154 -106.5 -239t-298.5 -85v148q227 4 227 192v297q0 211 223 250v12q-223 39 -223 250v299q0 100 -59 144.5t-168 46.5v147q198 -2 301.5 -84.5t103.5 -240.5v-299q0 -105 64 -149t186 -44v-149z" />
    <glyph glyph-name="glyph97" horiz-adv-x="1171" 
d="M336 709q-53 0 -116.5 -33.5t-117.5 -87.5v160q100 108 246 108q70 0 129.5 -15.5t140.5 -49.5q73 -31 120 -43.5t93 -12.5q54 0 118 32t118 89v-158q-102 -110 -246 -110q-72 0 -135 16.5t-135 48.5q-73 32 -120 44t-95 12z" />
    <glyph glyph-name="glyph98" horiz-adv-x="532" 
 />
    <glyph glyph-name="exclamdown" unicode="&#xa1;" horiz-adv-x="551" 
d="M213 676h119l51 -1049h-221zM401 979q0 -67 -32.5 -102t-94.5 -35t-94.5 34.5t-32.5 102.5q0 66 34 102.5t93 36.5t93 -36t34 -103z" />
    <glyph glyph-name="cent" unicode="&#xa2;" horiz-adv-x="1171" 
d="M975 240q-113 -57 -254 -62v-198h-137v204q-204 31 -301 169.5t-97 387.5q0 508 398 570v172h139v-164q152 -6 270 -59l-53 -150q-143 53 -244 53q-167 0 -246 -104t-79 -316q0 -213 80 -310t237 -97q89 0 156.5 17.5t130.5 43.5v-157z" />
    <glyph glyph-name="sterling" unicode="&#xa3;" horiz-adv-x="1171" 
d="M684 1481q190 0 363 -84l-64 -144q-167 78 -295 78q-117 0 -178 -60.5t-61 -195.5v-284h417v-136h-417v-213q0 -96 -32.5 -164.5t-107.5 -113.5h787v-164h-1030v152q202 47 202 288v215h-196v136h196v303q0 181 112.5 284t303.5 103z" />
    <glyph glyph-name="currency" unicode="&#xa4;" horiz-adv-x="1171" 
d="M184 723q0 117 72 225l-135 139l100 97l135 -131q100 71 230 71q121 0 225 -71l137 131l99 -97l-132 -137q72 -111 72 -227q0 -130 -72 -229l129 -136l-96 -96l-137 131q-103 -69 -225 -69q-132 0 -230 71l-135 -131l-98 96l133 136q-72 108 -72 227zM322 723
q0 -111 76.5 -187.5t187.5 -76.5t188.5 76t77.5 188q0 114 -77.5 191t-188.5 77q-110 0 -187 -77.5t-77 -190.5z" />
    <glyph glyph-name="yen" unicode="&#xa5;" horiz-adv-x="1171" 
d="M584 748l366 714h189l-412 -768h254v-131h-309v-168h309v-131h-309v-264h-176v264h-310v131h310v168h-310v131h250l-407 768h190z" />
    <glyph glyph-name="brokenbar" unicode="&#xa6;" horiz-adv-x="1128" 
d="M489 1556h150v-780h-150v780zM489 287h150v-781h-150v781z" />
    <glyph glyph-name="section" unicode="&#xa7;" horiz-adv-x="1051" 
d="M137 809q0 87 43 154.5t119 103.5q-74 40 -115 96t-41 140q0 123 104 193.5t300 70.5q92 0 167.5 -14t182.5 -56l-55 -137q-97 39 -165 53t-142 14q-115 0 -169.5 -29.5t-54.5 -90.5q0 -56 58 -98t213 -97q182 -67 257.5 -143.5t75.5 -184.5q0 -180 -153 -272
q151 -80 151 -225q0 -142 -118 -219.5t-328 -77.5t-346 67v154q87 -39 182 -61.5t172 -22.5q128 0 197 37t69 108q0 61 -53 100.5t-211 100.5q-197 73 -268.5 148t-71.5 188zM291 829q0 -51 27 -88.5t87.5 -72.5t223.5 -97q131 76 131 187q0 81 -70 135.5t-252 112.5
q-65 -18 -106 -67.5t-41 -109.5z" />
    <glyph glyph-name="dieresis" unicode="&#xa8;" horiz-adv-x="1188" 
d="M305 1395q0 53 28 76.5t68 23.5q39 0 68 -23.5t29 -76.5t-29 -78t-68 -25q-40 0 -68 25t-28 78zM690 1395q0 53 28 76.5t66 23.5q39 0 68 -23.5t29 -76.5t-29 -78t-68 -25q-38 0 -66 25t-28 78z" />
    <glyph glyph-name="copyright" unicode="&#xa9;" horiz-adv-x="1704" 
d="M893 1055q-119 0 -186.5 -85.5t-67.5 -238.5q0 -157 58.5 -241t193.5 -84q95 0 215 47v-131q-60 -27 -109 -38.5t-114 -11.5q-193 0 -298.5 120t-105.5 339q0 209 111 333t301 124q130 0 252 -62l-60 -125q-106 54 -190 54zM100 731q0 200 100 375t275 276t377 101
q200 0 375 -100t276 -275t101 -377q0 -197 -97 -370t-272 -277t-383 -104q-207 0 -382 103.5t-272.5 276.5t-97.5 371zM209 731q0 -172 86 -321t235.5 -235.5t321.5 -86.5t321 86t235.5 235.5t86.5 321.5t-86 321t-235.5 235.5t-321.5 86.5t-321 -86t-235.5 -235.5
t-86.5 -321.5z" />
    <glyph glyph-name="ordfeminine" unicode="&#xaa;" horiz-adv-x="731" 
d="M535 797l-25 86q-94 -99 -234 -99q-97 0 -153.5 50t-56.5 153t79 156t244 59l115 4v45q0 61 -39 91t-107 30q-100 0 -206 -53q-26 62 -46 100q122 60 256 60t201.5 -55t67.5 -177v-450h-96zM197 987q0 -98 110 -98q197 0 197 178v47l-98 -4q-111 -4 -160 -32.5t-49 -90.5
z" />
    <glyph glyph-name="guillemotleft" unicode="&#xab;" horiz-adv-x="1042" 
d="M82 553l344 412l129 -74l-287 -350l287 -351l-129 -75l-344 411v27zM487 553l349 412l127 -74l-287 -350l287 -351l-127 -75l-349 411v27z" />
    <glyph glyph-name="logicalnot" unicode="&#xac;" horiz-adv-x="1171" 
d="M1065 795v-533h-145v387h-818v146h963z" />
    <glyph glyph-name="uni00AD" unicode="&#xad;" horiz-adv-x="659" 
d="M82 469v160h496v-160h-496z" />
    <glyph glyph-name="registered" unicode="&#xae;" horiz-adv-x="1704" 
d="M727 764h102q81 0 125.5 40t44.5 105q0 73 -41 105.5t-131 32.5h-100v-283zM1157 913q0 -83 -43 -143.5t-117 -89.5l238 -397h-176l-205 354h-127v-354h-156v895h263q168 0 245.5 -65.5t77.5 -199.5zM100 731q0 200 100 375t275 276t377 101q200 0 375 -100t276 -275
t101 -377q0 -197 -97 -370t-272 -277t-383 -104q-207 0 -382 103.5t-272.5 276.5t-97.5 371zM209 731q0 -172 86 -321t235.5 -235.5t321.5 -86.5t321 86t235.5 235.5t86.5 321.5t-86 321t-235.5 235.5t-321.5 86.5t-321 -86t-235.5 -235.5t-86.5 -321.5z" />
    <glyph glyph-name="glyph113" horiz-adv-x="1024" 
d="M1030 1556h-1036v136h1036v-136z" />
    <glyph glyph-name="degree" unicode="&#xb0;" horiz-adv-x="877" 
d="M123 1167q0 135 92 225.5t223 90.5q133 0 224.5 -92t91.5 -224q0 -131 -92 -222t-224 -91q-130 0 -222.5 89.5t-92.5 223.5zM246 1167q0 -79 57.5 -135.5t136.5 -56.5q81 0 136 57t55 135q0 80 -55 136.5t-136 56.5q-80 0 -137 -56t-57 -137z" />
    <glyph glyph-name="plusminus" unicode="&#xb1;" horiz-adv-x="1171" 
d="M657 801h408v-146h-408v-422h-147v422h-408v146h408v424h147v-424zM102 0v145h963v-145h-963z" />
    <glyph glyph-name="uni00B2" unicode="&#xb2;" horiz-adv-x="717" 
d="M627 586h-578v110l236 230q127 123 162.5 179.5t35.5 125.5q0 65 -37.5 98t-99.5 33t-112 -24t-103 -64l-72 94q133 113 289 113q132 0 206.5 -65.5t74.5 -176.5q0 -46 -12.5 -85.5t-38.5 -80t-67.5 -86.5t-283.5 -274h400v-127z" />
    <glyph glyph-name="uni00B3" unicode="&#xb3;" horiz-adv-x="717" 
d="M631 1255q0 -151 -152 -208q178 -44 178 -209q0 -127 -92 -198t-262 -71q-152 0 -268 58v129q142 -70 270 -70q205 0 205 156q0 141 -225 141h-117v113h117q103 0 150.5 39t47.5 104q0 59 -38.5 92t-104.5 33q-104 0 -227 -78l-74 94q74 55 146 78t153 23
q136 0 214.5 -60.5t78.5 -165.5z" />
    <glyph glyph-name="acute" unicode="&#xb4;" horiz-adv-x="1188" 
d="M387 1266q38 48 96.5 136.5t98.5 166.5h217v-21q-44 -64 -137 -161t-156 -146h-119v25z" />
    <glyph glyph-name="uni00B5" unicode="&#xb5;" horiz-adv-x="1276" 
d="M354 389q0 -260 246 -260q169 0 245.5 93.5t76.5 303.5v572h180v-1098h-146l-28 147h-10q-109 -167 -330 -167q-146 0 -236 92h-8q10 -74 10 -244v-320h-180v1590h180v-709z" />
    <glyph glyph-name="paragraph" unicode="&#xb6;" horiz-adv-x="1341" 
d="M1124 -260h-118v1702h-209v-1702h-119v819q-62 -18 -146 -18q-216 0 -317.5 125t-101.5 376q0 260 109 387t341 127h561v-1816z" />
    <glyph glyph-name="periodcentered" unicode="&#xb7;" horiz-adv-x="549" 
d="M147 723q0 65 32.5 102t92.5 37q62 0 95.5 -37.5t33.5 -101.5t-34 -101.5t-95 -37.5q-59 0 -92 37t-33 102z" />
    <glyph glyph-name="cedilla" unicode="&#xb8;" horiz-adv-x="461" 
d="M434 -285q0 -99 -75.5 -153t-227.5 -54q-65 0 -102 11v112q36 -10 108 -10q75 0 113.5 19.5t38.5 70.5q0 89 -187 113l88 176h119l-53 -109q178 -38 178 -176z" />
    <glyph glyph-name="uni00B9" unicode="&#xb9;" horiz-adv-x="717" 
d="M342 1462h150v-876h-146v565q0 67 8 182q-31 -28 -54 -47t-153 -112l-71 100z" />
    <glyph glyph-name="ordmasculine" unicode="&#xba;" horiz-adv-x="770" 
d="M707 1133q0 -163 -86.5 -256t-237.5 -93q-145 0 -231 92.5t-86 256.5q0 165 84 255.5t237 90.5q149 0 234.5 -91t85.5 -255zM195 1133q0 -121 44 -180.5t146 -59.5q100 0 145 59.5t45 180.5t-45 179t-145 58t-145 -58t-45 -179z" />
    <glyph glyph-name="guillemotright" unicode="&#xbb;" horiz-adv-x="1042" 
d="M961 526l-349 -411l-127 75l287 351l-287 350l127 74l349 -412v-27zM553 526l-346 -411l-127 75l287 351l-287 350l127 74l346 -412v-27z" />
    <glyph glyph-name="onequarter" unicode="&#xbc;" horiz-adv-x="1618" 
d="M1304 1462l-893 -1462h-153l893 1462h153zM337 1462h150v-876h-146v565q0 67 8 182q-31 -28 -54 -47t-153 -112l-71 100zM1507 197h-125v-196h-153v196h-400v107l404 579h149v-563h125v-123zM1229 320v191q0 107 6 207q-8 -18 -98 -158l-164 -240h256z" />
    <glyph glyph-name="onehalf" unicode="&#xbd;" horiz-adv-x="1618" 
d="M1243 1462l-893 -1462h-153l893 1462h153zM312 1462h150v-876h-146v565q0 67 8 182q-31 -28 -54 -47t-153 -112l-71 100zM1489 1h-578v110l236 230q127 123 162.5 179.5t35.5 125.5q0 65 -37.5 98t-99.5 33t-112 -24t-103 -64l-72 94q133 113 289 113q132 0 206.5 -65.5
t74.5 -176.5q0 -46 -12.5 -85.5t-38.5 -80t-67.5 -86.5t-283.5 -274h400v-127z" />
    <glyph glyph-name="threequarters" unicode="&#xbe;" horiz-adv-x="1618" 
d="M1394 1462l-893 -1462h-153l893 1462h153zM1581 197h-125v-196h-153v196h-400v107l404 579h149v-563h125v-123zM1303 320v191q0 107 6 207q-8 -18 -98 -158l-164 -240h256zM628 1255q0 -151 -152 -208q178 -44 178 -209q0 -127 -92 -198t-262 -71q-152 0 -268 58v129
q142 -70 270 -70q205 0 205 156q0 141 -225 141h-117v113h117q103 0 150.5 39t47.5 104q0 59 -38.5 92t-104.5 33q-104 0 -227 -78l-74 94q74 55 146 78t153 23q136 0 214.5 -60.5t78.5 -165.5z" />
    <glyph glyph-name="questiondown" unicode="&#xbf;" horiz-adv-x="889" 
d="M602 676v-53q0 -117 -37 -192t-137 -159q-133 -111 -168 -166t-35 -139q0 -96 63.5 -150.5t182.5 -54.5q159 0 330 88l63 -145q-198 -98 -399 -98q-194 0 -304 93.5t-110 262.5q0 73 20 129.5t61 107.5t161 154q103 90 133.5 145.5t30.5 143.5v33h145zM649 979
q0 -137 -127 -137q-62 0 -93.5 35.5t-31.5 101.5q0 73 36.5 106t88.5 33q54 0 90.5 -33t36.5 -106z" />
    <glyph glyph-name="Agrave" unicode="&#xc0;" horiz-adv-x="1309" 
d="M1116 0l-176 453h-580l-174 -453h-186l571 1468h166l570 -1468h-191zM885 616l-164 443l-70 219q-30 -120 -63 -219l-166 -443h463zM745 1579h-121q-75 60 -164.5 155.5t-126.5 151.5v21h215q32 -66 91 -157.5t106 -145.5v-25z" />
    <glyph glyph-name="Aacute" unicode="&#xc1;" horiz-adv-x="1309" 
d="M1116 0l-176 453h-580l-174 -453h-186l571 1468h166l570 -1468h-191zM885 616l-164 443l-70 219q-30 -120 -63 -219l-166 -443h463zM526 1604q38 48 96.5 136.5t98.5 166.5h217v-21q-44 -64 -137 -161t-156 -146h-119v25z" />
    <glyph glyph-name="Acircumflex" unicode="&#xc2;" horiz-adv-x="1309" 
d="M1116 0l-176 453h-580l-174 -453h-186l571 1468h166l570 -1468h-191zM885 616l-164 443l-70 219q-30 -120 -63 -219l-166 -443h463zM299 1602q125 134 176.5 198t75.5 107h184q52 -101 256 -305v-23h-127q-90 53 -223 184q-131 -128 -219 -184h-123v23z" />
    <glyph glyph-name="Atilde" unicode="&#xc3;" horiz-adv-x="1309" 
d="M1116 0l-176 453h-580l-174 -453h-186l571 1468h166l570 -1468h-191zM885 616l-164 443l-70 219q-30 -120 -63 -219l-166 -443h463zM798 1581q-43 0 -84 18.5t-80.5 40t-76 40t-70.5 18.5q-49 0 -74 -29.5t-39 -89.5h-104q12 122 70 192t155 70q45 0 87.5 -18.5t81.5 -40
t75 -40t68 -18.5q48 0 72.5 29.5t39.5 89.5h103q-12 -119 -70 -190.5t-154 -71.5z" />
    <glyph glyph-name="Adieresis" unicode="&#xc4;" horiz-adv-x="1309" 
d="M1116 0l-176 453h-580l-174 -453h-186l571 1468h166l570 -1468h-191zM885 616l-164 443l-70 219q-30 -120 -63 -219l-166 -443h463zM362 1733q0 53 28 76.5t68 23.5q39 0 68 -23.5t29 -76.5t-29 -78t-68 -25q-40 0 -68 25t-28 78zM747 1733q0 53 28 76.5t66 23.5
q39 0 68 -23.5t29 -76.5t-29 -78t-68 -25q-38 0 -66 25t-28 78z" />
    <glyph glyph-name="Aring" unicode="&#xc5;" horiz-adv-x="1309" 
d="M877 1585q0 -69 -30 -118.5t-81 -73.5l541 -1393h-191l-176 453h-580l-174 -453h-186l539 1386q-53 25 -83 75t-30 122q0 98 60 156.5t163 58.5q102 0 165 -59t63 -154zM885 616l-164 443l-70 219q-30 -120 -63 -219l-166 -443h463zM764 1583q0 54 -32.5 84.5t-82.5 30.5
q-49 0 -81.5 -30.5t-32.5 -84.5t29 -84.5t85 -30.5q51 0 83 30.5t32 84.5z" />
    <glyph glyph-name="AE" unicode="&#xc6;" horiz-adv-x="1804" 
d="M1681 0h-761v453h-512l-220 -453h-190l694 1462h989v-162h-577v-456h538v-160h-538v-522h577v-162zM479 616h441v682h-119z" />
    <glyph glyph-name="Ccedilla" unicode="&#xc7;" horiz-adv-x="1294" 
d="M825 1321q-236 0 -371 -158t-135 -432q0 -283 131 -436.5t373 -153.5q156 0 351 58v-160q-93 -34 -179 -46.5t-198 -12.5q-323 0 -497.5 196.5t-174.5 556.5q0 226 83.5 396t243 262t375.5 92q232 0 404 -86l-74 -156q-175 80 -332 80zM950 -285q0 -99 -75.5 -153
t-227.5 -54q-65 0 -102 11v112q36 -10 108 -10q75 0 113.5 19.5t38.5 70.5q0 89 -187 113l88 176h119l-53 -109q178 -38 178 -176z" />
    <glyph glyph-name="Egrave" unicode="&#xc8;" horiz-adv-x="1139" 
d="M1016 0h-817v1462h817v-162h-633v-456h596v-160h-596v-522h633v-162zM726 1579h-121q-75 60 -164.5 155.5t-126.5 151.5v21h215q32 -66 91 -157.5t106 -145.5v-25z" />
    <glyph glyph-name="Eacute" unicode="&#xc9;" horiz-adv-x="1139" 
d="M1016 0h-817v1462h817v-162h-633v-456h596v-160h-596v-522h633v-162zM453 1604q38 48 96.5 136.5t98.5 166.5h217v-21q-44 -64 -137 -161t-156 -146h-119v25z" />
    <glyph glyph-name="Ecircumflex" unicode="&#xca;" horiz-adv-x="1139" 
d="M1016 0h-817v1462h817v-162h-633v-456h596v-160h-596v-522h633v-162zM255 1602q125 134 176.5 198t75.5 107h184q52 -101 256 -305v-23h-127q-90 53 -223 184q-131 -128 -219 -184h-123v23z" />
    <glyph glyph-name="Edieresis" unicode="&#xcb;" horiz-adv-x="1139" 
d="M1016 0h-817v1462h817v-162h-633v-456h596v-160h-596v-522h633v-162zM319 1733q0 53 28 76.5t68 23.5q39 0 68 -23.5t29 -76.5t-29 -78t-68 -25q-40 0 -68 25t-28 78zM704 1733q0 53 28 76.5t66 23.5q39 0 68 -23.5t29 -76.5t-29 -78t-68 -25q-38 0 -66 25t-28 78z" />
    <glyph glyph-name="Igrave" unicode="&#xcc;" horiz-adv-x="694" 
d="M610 0h-528v106l172 39v1170l-172 41v106h528v-106l-172 -41v-1170l172 -39v-106zM472 1579h-121q-75 60 -164.5 155.5t-126.5 151.5v21h215q32 -66 91 -157.5t106 -145.5v-25z" />
    <glyph glyph-name="Iacute" unicode="&#xcd;" horiz-adv-x="694" 
d="M610 0h-528v106l172 39v1170l-172 41v106h528v-106l-172 -41v-1170l172 -39v-106zM236 1604q38 48 96.5 136.5t98.5 166.5h217v-21q-44 -64 -137 -161t-156 -146h-119v25z" />
    <glyph glyph-name="Icircumflex" unicode="&#xce;" horiz-adv-x="694" 
d="M610 0h-528v106l172 39v1170l-172 41v106h528v-106l-172 -41v-1170l172 -39v-106zM-3 1602q125 134 176.5 198t75.5 107h184q52 -101 256 -305v-23h-127q-90 53 -223 184q-131 -128 -219 -184h-123v23z" />
    <glyph glyph-name="Idieresis" unicode="&#xcf;" horiz-adv-x="694" 
d="M610 0h-528v106l172 39v1170l-172 41v106h528v-106l-172 -41v-1170l172 -39v-106zM60 1733q0 53 28 76.5t68 23.5q39 0 68 -23.5t29 -76.5t-29 -78t-68 -25q-40 0 -68 25t-28 78zM445 1733q0 53 28 76.5t66 23.5q39 0 68 -23.5t29 -76.5t-29 -78t-68 -25q-38 0 -66 25
t-28 78z" />
    <glyph glyph-name="Eth" unicode="&#xd0;" horiz-adv-x="1495" 
d="M1370 745q0 -359 -196.5 -552t-569.5 -193h-391v643h-152v160h152v659h436q341 0 531 -188.5t190 -528.5zM1176 739q0 280 -139 423t-414 143h-226v-502h365v-160h-365v-485h185q594 0 594 581z" />
    <glyph glyph-name="Ntilde" unicode="&#xd1;" horiz-adv-x="1556" 
d="M1358 0h-215l-783 1214h-8l5 -81q12 -182 12 -316v-817h-170v1462h213l45 -71l480 -742l255 -397h8q-2 24 -8 171.5t-6 213.5v825h172v-1462zM940 1581q-43 0 -84 18.5t-80.5 40t-76 40t-70.5 18.5q-49 0 -74 -29.5t-39 -89.5h-104q12 122 70 192t155 70q45 0 87.5 -18.5
t81.5 -40t75 -40t68 -18.5q48 0 72.5 29.5t39.5 89.5h103q-12 -119 -70 -190.5t-154 -71.5z" />
    <glyph glyph-name="Ograve" unicode="&#xd2;" horiz-adv-x="1599" 
d="M1475 733q0 -351 -177.5 -552t-496.5 -201q-323 0 -499.5 197.5t-176.5 557.5q0 357 175.5 553.5t502.5 196.5q318 0 495 -199.5t177 -552.5zM319 733q0 -290 123 -442t359 -152q235 0 357 150t122 444q0 293 -121 441.5t-356 148.5q-238 0 -361 -150.5t-123 -439.5z
M918 1579h-121q-75 60 -164.5 155.5t-126.5 151.5v21h215q32 -66 91 -157.5t106 -145.5v-25z" />
    <glyph glyph-name="Oacute" unicode="&#xd3;" horiz-adv-x="1599" 
d="M1475 733q0 -351 -177.5 -552t-496.5 -201q-323 0 -499.5 197.5t-176.5 557.5q0 357 175.5 553.5t502.5 196.5q318 0 495 -199.5t177 -552.5zM319 733q0 -290 123 -442t359 -152q235 0 357 150t122 444q0 293 -121 441.5t-356 148.5q-238 0 -361 -150.5t-123 -439.5z
M657 1604q38 48 96.5 136.5t98.5 166.5h217v-21q-44 -64 -137 -161t-156 -146h-119v25z" />
    <glyph glyph-name="Ocircumflex" unicode="&#xd4;" horiz-adv-x="1599" 
d="M1475 733q0 -351 -177.5 -552t-496.5 -201q-323 0 -499.5 197.5t-176.5 557.5q0 357 175.5 553.5t502.5 196.5q318 0 495 -199.5t177 -552.5zM319 733q0 -290 123 -442t359 -152q235 0 357 150t122 444q0 293 -121 441.5t-356 148.5q-238 0 -361 -150.5t-123 -439.5z
M440 1602q125 134 176.5 198t75.5 107h184q52 -101 256 -305v-23h-127q-90 53 -223 184q-131 -128 -219 -184h-123v23z" />
    <glyph glyph-name="Otilde" unicode="&#xd5;" horiz-adv-x="1599" 
d="M1475 733q0 -351 -177.5 -552t-496.5 -201q-323 0 -499.5 197.5t-176.5 557.5q0 357 175.5 553.5t502.5 196.5q318 0 495 -199.5t177 -552.5zM319 733q0 -290 123 -442t359 -152q235 0 357 150t122 444q0 293 -121 441.5t-356 148.5q-238 0 -361 -150.5t-123 -439.5z
M944 1581q-43 0 -84 18.5t-80.5 40t-76 40t-70.5 18.5q-49 0 -74 -29.5t-39 -89.5h-104q12 122 70 192t155 70q45 0 87.5 -18.5t81.5 -40t75 -40t68 -18.5q48 0 72.5 29.5t39.5 89.5h103q-12 -119 -70 -190.5t-154 -71.5z" />
    <glyph glyph-name="Odieresis" unicode="&#xd6;" horiz-adv-x="1599" 
d="M1475 733q0 -351 -177.5 -552t-496.5 -201q-323 0 -499.5 197.5t-176.5 557.5q0 357 175.5 553.5t502.5 196.5q318 0 495 -199.5t177 -552.5zM319 733q0 -290 123 -442t359 -152q235 0 357 150t122 444q0 293 -121 441.5t-356 148.5q-238 0 -361 -150.5t-123 -439.5z
M516 1733q0 53 28 76.5t68 23.5q39 0 68 -23.5t29 -76.5t-29 -78t-68 -25q-40 0 -68 25t-28 78zM901 1733q0 53 28 76.5t66 23.5q39 0 68 -23.5t29 -76.5t-29 -78t-68 -25q-38 0 -66 25t-28 78z" />
    <glyph glyph-name="glyph153" horiz-adv-x="1171" 
d="M584 825l350 351l102 -105l-348 -348q288 -292 346 -348l-102 -105q-231 231 -350 346l-342 -346l-107 105q131 129 346 348l-348 346l107 107z" />
    <glyph glyph-name="Oslash" unicode="&#xd8;" horiz-adv-x="1599" 
d="M1475 733q0 -351 -177.5 -552t-496.5 -201q-232 0 -379 96l-98 -139l-125 81l106 152q-180 198 -180 565q0 357 175.5 553.5t502.5 196.5q204 0 364 -92l95 135l124 -84l-104 -146q193 -203 193 -565zM1280 733q0 264 -104 414l-656 -930q114 -78 281 -78q235 0 357 150
t122 444zM319 733q0 -259 97 -405l653 923q-109 72 -266 72q-238 0 -361 -150.5t-123 -439.5z" />
    <glyph glyph-name="Ugrave" unicode="&#xd9;" horiz-adv-x="1497" 
d="M1311 1462v-946q0 -250 -151 -393t-419 -143q-265 0 -411 144.5t-146 395.5v942h185v-948q0 -179 95.5 -277t287.5 -98q181 0 278.5 97t97.5 280v946h183zM865 1579h-121q-75 60 -164.5 155.5t-126.5 151.5v21h215q32 -66 91 -157.5t106 -145.5v-25z" />
    <glyph glyph-name="Uacute" unicode="&#xda;" horiz-adv-x="1497" 
d="M1311 1462v-946q0 -250 -151 -393t-419 -143q-265 0 -411 144.5t-146 395.5v942h185v-948q0 -179 95.5 -277t287.5 -98q181 0 278.5 97t97.5 280v946h183zM600 1604q38 48 96.5 136.5t98.5 166.5h217v-21q-44 -64 -137 -161t-156 -146h-119v25z" />
    <glyph glyph-name="Ucircumflex" unicode="&#xdb;" horiz-adv-x="1497" 
d="M1311 1462v-946q0 -250 -151 -393t-419 -143q-265 0 -411 144.5t-146 395.5v942h185v-948q0 -179 95.5 -277t287.5 -98q181 0 278.5 97t97.5 280v946h183zM387 1602q125 134 176.5 198t75.5 107h184q52 -101 256 -305v-23h-127q-90 53 -223 184q-131 -128 -219 -184h-123
v23z" />
    <glyph glyph-name="Udieresis" unicode="&#xdc;" horiz-adv-x="1497" 
d="M1311 1462v-946q0 -250 -151 -393t-419 -143q-265 0 -411 144.5t-146 395.5v942h185v-948q0 -179 95.5 -277t287.5 -98q181 0 278.5 97t97.5 280v946h183zM457 1733q0 53 28 76.5t68 23.5q39 0 68 -23.5t29 -76.5t-29 -78t-68 -25q-40 0 -68 25t-28 78zM842 1733
q0 53 28 76.5t66 23.5q39 0 68 -23.5t29 -76.5t-29 -78t-68 -25q-38 0 -66 25t-28 78z" />
    <glyph glyph-name="Yacute" unicode="&#xdd;" horiz-adv-x="1159" 
d="M580 743l381 719h198l-487 -895v-567h-185v559l-487 903h201zM442 1604q38 48 96.5 136.5t98.5 166.5h217v-21q-44 -64 -137 -161t-156 -146h-119v25z" />
    <glyph glyph-name="Thorn" unicode="&#xde;" horiz-adv-x="1239" 
d="M1135 782q0 -226 -150.5 -345.5t-435.5 -119.5h-166v-317h-184v1462h184v-254h197q281 0 418 -105.5t137 -320.5zM383 473h147q221 0 317.5 71t96.5 228q0 144 -91 211.5t-288 67.5h-182v-578z" />
    <glyph glyph-name="germandbls" unicode="&#xdf;" horiz-adv-x="1292" 
d="M1069 1264q0 -139 -143 -251q-79 -62 -111.5 -98.5t-32.5 -70.5q0 -40 32 -73t149 -109q137 -92 187 -170.5t50 -178.5q0 -161 -98.5 -247t-282.5 -86q-187 0 -297 69v162q64 -40 143.5 -63t147.5 -23q211 0 211 176q0 71 -40.5 123t-152.5 123q-118 75 -170.5 137.5
t-52.5 149.5q0 63 34 115.5t106 105.5q74 55 106.5 101t32.5 97q0 78 -66.5 121t-193.5 43q-273 0 -273 -221v-1196h-180v1196q0 181 114 276t339 95q210 0 326 -80t116 -223z" />
    <glyph glyph-name="agrave" unicode="&#xe0;" horiz-adv-x="1149" 
d="M852 0l-35 156h-8q-82 -103 -163.5 -139.5t-205.5 -36.5q-162 0 -254 85t-92 240q0 334 527 350l186 7v65q0 125 -54 184.5t-173 59.5q-87 0 -164.5 -26t-145.5 -58l-55 135q83 44 181 69t194 25q199 0 296 -88t97 -280v-748h-131zM481 125q151 0 237.5 81.5t86.5 231.5
v99l-162 -7q-189 -7 -275.5 -60t-86.5 -167q0 -86 52.5 -132t147.5 -46zM687 1241h-121q-75 60 -164.5 155.5t-126.5 151.5v21h215q32 -66 91 -157.5t106 -145.5v-25z" />
    <glyph glyph-name="aacute" unicode="&#xe1;" horiz-adv-x="1149" 
d="M852 0l-35 156h-8q-82 -103 -163.5 -139.5t-205.5 -36.5q-162 0 -254 85t-92 240q0 334 527 350l186 7v65q0 125 -54 184.5t-173 59.5q-87 0 -164.5 -26t-145.5 -58l-55 135q83 44 181 69t194 25q199 0 296 -88t97 -280v-748h-131zM481 125q151 0 237.5 81.5t86.5 231.5
v99l-162 -7q-189 -7 -275.5 -60t-86.5 -167q0 -86 52.5 -132t147.5 -46zM436 1266q38 48 96.5 136.5t98.5 166.5h217v-21q-44 -64 -137 -161t-156 -146h-119v25z" />
    <glyph glyph-name="acircumflex" unicode="&#xe2;" horiz-adv-x="1149" 
d="M852 0l-35 156h-8q-82 -103 -163.5 -139.5t-205.5 -36.5q-162 0 -254 85t-92 240q0 334 527 350l186 7v65q0 125 -54 184.5t-173 59.5q-87 0 -164.5 -26t-145.5 -58l-55 135q83 44 181 69t194 25q199 0 296 -88t97 -280v-748h-131zM481 125q151 0 237.5 81.5t86.5 231.5
v99l-162 -7q-189 -7 -275.5 -60t-86.5 -167q0 -86 52.5 -132t147.5 -46zM224 1264q125 134 176.5 198t75.5 107h184q52 -101 256 -305v-23h-127q-90 53 -223 184q-131 -128 -219 -184h-123v23z" />
    <glyph glyph-name="atilde" unicode="&#xe3;" horiz-adv-x="1149" 
d="M852 0l-35 156h-8q-82 -103 -163.5 -139.5t-205.5 -36.5q-162 0 -254 85t-92 240q0 334 527 350l186 7v65q0 125 -54 184.5t-173 59.5q-87 0 -164.5 -26t-145.5 -58l-55 135q83 44 181 69t194 25q199 0 296 -88t97 -280v-748h-131zM481 125q151 0 237.5 81.5t86.5 231.5
v99l-162 -7q-189 -7 -275.5 -60t-86.5 -167q0 -86 52.5 -132t147.5 -46zM728 1243q-43 0 -84 18.5t-80.5 40t-76 40t-70.5 18.5q-49 0 -74 -29.5t-39 -89.5h-104q12 122 70 192t155 70q45 0 87.5 -18.5t81.5 -40t75 -40t68 -18.5q48 0 72.5 29.5t39.5 89.5h103
q-12 -119 -70 -190.5t-154 -71.5z" />
    <glyph glyph-name="adieresis" unicode="&#xe4;" horiz-adv-x="1149" 
d="M852 0l-35 156h-8q-82 -103 -163.5 -139.5t-205.5 -36.5q-162 0 -254 85t-92 240q0 334 527 350l186 7v65q0 125 -54 184.5t-173 59.5q-87 0 -164.5 -26t-145.5 -58l-55 135q83 44 181 69t194 25q199 0 296 -88t97 -280v-748h-131zM481 125q151 0 237.5 81.5t86.5 231.5
v99l-162 -7q-189 -7 -275.5 -60t-86.5 -167q0 -86 52.5 -132t147.5 -46zM279 1395q0 53 28 76.5t68 23.5q39 0 68 -23.5t29 -76.5t-29 -78t-68 -25q-40 0 -68 25t-28 78zM664 1395q0 53 28 76.5t66 23.5q39 0 68 -23.5t29 -76.5t-29 -78t-68 -25q-38 0 -66 25t-28 78z" />
    <glyph glyph-name="aring" unicode="&#xe5;" horiz-adv-x="1149" 
d="M852 0l-35 156h-8q-82 -103 -163.5 -139.5t-205.5 -36.5q-162 0 -254 85t-92 240q0 334 527 350l186 7v65q0 125 -54 184.5t-173 59.5q-87 0 -164.5 -26t-145.5 -58l-55 135q83 44 181 69t194 25q199 0 296 -88t97 -280v-748h-131zM481 125q151 0 237.5 81.5t86.5 231.5
v99l-162 -7q-189 -7 -275.5 -60t-86.5 -167q0 -86 52.5 -132t147.5 -46zM812 1460q0 -101 -62.5 -160t-164.5 -59q-103 0 -163 58.5t-60 158.5q0 98 60 156.5t163 58.5q101 0 164 -59t63 -154zM699 1458q0 54 -32.5 84.5t-81.5 30.5q-50 0 -82.5 -30.5t-32.5 -84.5
t29.5 -84.5t85.5 -30.5q51 0 82.5 30.5t31.5 84.5z" />
    <glyph glyph-name="ae" unicode="&#xe6;" horiz-adv-x="1769" 
d="M94 305q0 334 500 350l184 7v69q0 122 -56.5 181t-172.5 59q-139 0 -307 -84l-56 135q71 40 172.5 67t204.5 27q128 0 210.5 -41.5t125.5 -134.5q54 85 139 131.5t197 46.5q197 0 313.5 -135t116.5 -356v-111h-702q8 -383 317 -383q88 0 165 16.5t171 59.5v-158
q-88 -39 -164 -55t-178 -16q-291 0 -416 231q-82 -124 -181 -177.5t-235 -53.5q-164 0 -256 85.5t-92 239.5zM281 303q0 -92 52 -135t138 -43q140 0 221.5 81.5t81.5 231.5v99l-153 -7q-177 -7 -258.5 -60t-81.5 -167zM1233 971q-119 0 -187 -80.5t-79 -233.5h508
q0 152 -62.5 233t-179.5 81z" />
    <glyph glyph-name="ccedilla" unicode="&#xe7;" horiz-adv-x="983" 
d="M614 -20q-237 0 -369 145.5t-132 417.5q0 276 133.5 425.5t380.5 149.5q80 0 158.5 -16.5t129.5 -42.5l-55 -150q-139 52 -237 52q-166 0 -245 -104.5t-79 -311.5q0 -199 79 -304.5t234 -105.5q145 0 285 64v-160q-114 -59 -283 -59zM766 -285q0 -99 -75.5 -153
t-227.5 -54q-65 0 -102 11v112q36 -10 108 -10q75 0 113.5 19.5t38.5 70.5q0 89 -187 113l88 176h119l-53 -109q178 -38 178 -176z" />
    <glyph glyph-name="egrave" unicode="&#xe8;" horiz-adv-x="1155" 
d="M641 -20q-247 0 -387.5 149.5t-140.5 411.5q0 264 131 420.5t354 156.5q207 0 330 -133.5t123 -361.5v-109h-752q5 -187 95 -284t255 -97q88 0 167 15.5t185 60.5v-158q-91 -39 -171 -55t-189 -16zM596 971q-129 0 -204 -83t-89 -231h559q-2 154 -71 234t-195 80z
M724 1241h-121q-75 60 -164.5 155.5t-126.5 151.5v21h215q32 -66 91 -157.5t106 -145.5v-25z" />
    <glyph glyph-name="eacute" unicode="&#xe9;" horiz-adv-x="1155" 
d="M641 -20q-247 0 -387.5 149.5t-140.5 411.5q0 264 131 420.5t354 156.5q207 0 330 -133.5t123 -361.5v-109h-752q5 -187 95 -284t255 -97q88 0 167 15.5t185 60.5v-158q-91 -39 -171 -55t-189 -16zM596 971q-129 0 -204 -83t-89 -231h559q-2 154 -71 234t-195 80z
M467 1266q38 48 96.5 136.5t98.5 166.5h217v-21q-44 -64 -137 -161t-156 -146h-119v25z" />
    <glyph glyph-name="ecircumflex" unicode="&#xea;" horiz-adv-x="1155" 
d="M641 -20q-247 0 -387.5 149.5t-140.5 411.5q0 264 131 420.5t354 156.5q207 0 330 -133.5t123 -361.5v-109h-752q5 -187 95 -284t255 -97q88 0 167 15.5t185 60.5v-158q-91 -39 -171 -55t-189 -16zM596 971q-129 0 -204 -83t-89 -231h559q-2 154 -71 234t-195 80z
M253 1264q125 134 176.5 198t75.5 107h184q52 -101 256 -305v-23h-127q-90 53 -223 184q-131 -128 -219 -184h-123v23z" />
    <glyph glyph-name="edieresis" unicode="&#xeb;" horiz-adv-x="1155" 
d="M641 -20q-247 0 -387.5 149.5t-140.5 411.5q0 264 131 420.5t354 156.5q207 0 330 -133.5t123 -361.5v-109h-752q5 -187 95 -284t255 -97q88 0 167 15.5t185 60.5v-158q-91 -39 -171 -55t-189 -16zM596 971q-129 0 -204 -83t-89 -231h559q-2 154 -71 234t-195 80z
M315 1395q0 53 28 76.5t68 23.5q39 0 68 -23.5t29 -76.5t-29 -78t-68 -25q-40 0 -68 25t-28 78zM700 1395q0 53 28 76.5t66 23.5q39 0 68 -23.5t29 -76.5t-29 -78t-68 -25q-38 0 -66 25t-28 78z" />
    <glyph glyph-name="igrave" unicode="&#xec;" horiz-adv-x="528" 
d="M354 0h-180v1098h180v-1098zM368 1241h-121q-75 60 -164.5 155.5t-126.5 151.5v21h215q32 -66 91 -157.5t106 -145.5v-25z" />
    <glyph glyph-name="iacute" unicode="&#xed;" horiz-adv-x="528" 
d="M354 0h-180v1098h180v-1098zM167 1266q38 48 96.5 136.5t98.5 166.5h217v-21q-44 -64 -137 -161t-156 -146h-119v25z" />
    <glyph glyph-name="icircumflex" unicode="&#xee;" horiz-adv-x="528" 
d="M354 0h-180v1098h180v-1098zM-81 1264q125 134 176.5 198t75.5 107h184q52 -101 256 -305v-23h-127q-90 53 -223 184q-131 -128 -219 -184h-123v23z" />
    <glyph glyph-name="idieresis" unicode="&#xef;" horiz-adv-x="528" 
d="M354 0h-180v1098h180v-1098zM-22 1395q0 53 28 76.5t68 23.5q39 0 68 -23.5t29 -76.5t-29 -78t-68 -25q-40 0 -68 25t-28 78zM363 1395q0 53 28 76.5t66 23.5q39 0 68 -23.5t29 -76.5t-29 -78t-68 -25q-38 0 -66 25t-28 78z" />
    <glyph glyph-name="eth" unicode="&#xf0;" horiz-adv-x="1239" 
d="M1128 563q0 -282 -133 -432.5t-379 -150.5q-225 0 -364 135.5t-139 361.5q0 229 129.5 360.5t351.5 131.5q225 0 319 -119l9 4q-59 214 -254 391l-267 -153l-77 112l229 131q-86 58 -184 109l73 123q156 -73 258 -148l236 137l78 -110l-203 -117q151 -140 234 -337.5
t83 -428.5zM946 514q0 143 -87.5 226t-237.5 83q-166 0 -246 -86.5t-80 -265.5q0 -165 84 -254.5t242 -89.5q169 0 247 99t78 288z" />
    <glyph glyph-name="ntilde" unicode="&#xf1;" horiz-adv-x="1266" 
d="M922 0v702q0 134 -59.5 199.5t-186.5 65.5q-169 0 -245.5 -93.5t-76.5 -304.5v-569h-180v1098h145l27 -150h10q51 81 143 125.5t203 44.5q202 0 300 -98t98 -305v-715h-178zM802 1243q-43 0 -84 18.5t-80.5 40t-76 40t-70.5 18.5q-49 0 -74 -29.5t-39 -89.5h-104
q12 122 70 192t155 70q45 0 87.5 -18.5t81.5 -40t75 -40t68 -18.5q48 0 72.5 29.5t39.5 89.5h103q-12 -119 -70 -190.5t-154 -71.5z" />
    <glyph glyph-name="ograve" unicode="&#xf2;" horiz-adv-x="1239" 
d="M1128 551q0 -269 -136 -420t-376 -151q-149 0 -264 69.5t-177 199.5t-62 302q0 268 134 417.5t376 149.5q232 0 368.5 -152.5t136.5 -414.5zM299 551q0 -207 81.5 -314.5t240.5 -107.5q157 0 239 107.5t82 314.5t-82.5 311.5t-241.5 104.5q-319 0 -319 -416zM751 1241
h-121q-75 60 -164.5 155.5t-126.5 151.5v21h215q32 -66 91 -157.5t106 -145.5v-25z" />
    <glyph glyph-name="oacute" unicode="&#xf3;" horiz-adv-x="1239" 
d="M1128 551q0 -269 -136 -420t-376 -151q-149 0 -264 69.5t-177 199.5t-62 302q0 268 134 417.5t376 149.5q232 0 368.5 -152.5t136.5 -414.5zM299 551q0 -207 81.5 -314.5t240.5 -107.5q157 0 239 107.5t82 314.5t-82.5 311.5t-241.5 104.5q-319 0 -319 -416zM477 1266
q38 48 96.5 136.5t98.5 166.5h217v-21q-44 -64 -137 -161t-156 -146h-119v25z" />
    <glyph glyph-name="ocircumflex" unicode="&#xf4;" horiz-adv-x="1239" 
d="M1128 551q0 -269 -136 -420t-376 -151q-149 0 -264 69.5t-177 199.5t-62 302q0 268 134 417.5t376 149.5q232 0 368.5 -152.5t136.5 -414.5zM299 551q0 -207 81.5 -314.5t240.5 -107.5q157 0 239 107.5t82 314.5t-82.5 311.5t-241.5 104.5q-319 0 -319 -416zM272 1264
q125 134 176.5 198t75.5 107h184q52 -101 256 -305v-23h-127q-90 53 -223 184q-131 -128 -219 -184h-123v23z" />
    <glyph glyph-name="otilde" unicode="&#xf5;" horiz-adv-x="1239" 
d="M1128 551q0 -269 -136 -420t-376 -151q-149 0 -264 69.5t-177 199.5t-62 302q0 268 134 417.5t376 149.5q232 0 368.5 -152.5t136.5 -414.5zM299 551q0 -207 81.5 -314.5t240.5 -107.5q157 0 239 107.5t82 314.5t-82.5 311.5t-241.5 104.5q-319 0 -319 -416zM775 1243
q-43 0 -84 18.5t-80.5 40t-76 40t-70.5 18.5q-49 0 -74 -29.5t-39 -89.5h-104q12 122 70 192t155 70q45 0 87.5 -18.5t81.5 -40t75 -40t68 -18.5q48 0 72.5 29.5t39.5 89.5h103q-12 -119 -70 -190.5t-154 -71.5z" />
    <glyph glyph-name="odieresis" unicode="&#xf6;" horiz-adv-x="1239" 
d="M1128 551q0 -269 -136 -420t-376 -151q-149 0 -264 69.5t-177 199.5t-62 302q0 268 134 417.5t376 149.5q232 0 368.5 -152.5t136.5 -414.5zM299 551q0 -207 81.5 -314.5t240.5 -107.5q157 0 239 107.5t82 314.5t-82.5 311.5t-241.5 104.5q-319 0 -319 -416zM330 1395
q0 53 28 76.5t68 23.5q39 0 68 -23.5t29 -76.5t-29 -78t-68 -25q-40 0 -68 25t-28 78zM715 1395q0 53 28 76.5t66 23.5q39 0 68 -23.5t29 -76.5t-29 -78t-68 -25q-38 0 -66 25t-28 78z" />
    <glyph glyph-name="glyph185" horiz-adv-x="1171" 
d="M102 649v146h965v-146h-965zM469 373q0 123 115 123q112 0 112 -123q0 -66 -33 -95.5t-79 -29.5q-48 0 -81.5 29.5t-33.5 95.5zM469 1071q0 123 115 123q112 0 112 -123q0 -66 -33 -95.5t-79 -29.5q-48 0 -81.5 29.5t-33.5 95.5z" />
    <glyph glyph-name="oslash" unicode="&#xf8;" horiz-adv-x="1239" 
d="M1128 551q0 -269 -136 -420t-376 -151q-151 0 -264 67l-82 -115l-118 80l92 127q-131 156 -131 412q0 268 134 417.5t376 149.5q151 0 268 -74l80 115l121 -78l-93 -129q129 -155 129 -401zM299 551q0 -166 49 -262l451 626q-73 52 -181 52q-319 0 -319 -416zM942 551
q0 152 -47 252l-451 -627q69 -47 177 -47q157 0 239 107.5t82 314.5z" />
    <glyph glyph-name="ugrave" unicode="&#xf9;" horiz-adv-x="1266" 
d="M344 1098v-707q0 -133 59.5 -197.5t184.5 -64.5q169 0 246 94t77 303v572h181v-1098h-148l-26 145h-9q-49 -79 -139 -122t-209 -43q-198 0 -298.5 95t-100.5 304v719h182zM737 1241h-121q-75 60 -164.5 155.5t-126.5 151.5v21h215q32 -66 91 -157.5t106 -145.5v-25z" />
    <glyph glyph-name="uacute" unicode="&#xfa;" horiz-adv-x="1266" 
d="M344 1098v-707q0 -133 59.5 -197.5t184.5 -64.5q169 0 246 94t77 303v572h181v-1098h-148l-26 145h-9q-49 -79 -139 -122t-209 -43q-198 0 -298.5 95t-100.5 304v719h182zM504 1266q38 48 96.5 136.5t98.5 166.5h217v-21q-44 -64 -137 -161t-156 -146h-119v25z" />
    <glyph glyph-name="ucircumflex" unicode="&#xfb;" horiz-adv-x="1266" 
d="M344 1098v-707q0 -133 59.5 -197.5t184.5 -64.5q169 0 246 94t77 303v572h181v-1098h-148l-26 145h-9q-49 -79 -139 -122t-209 -43q-198 0 -298.5 95t-100.5 304v719h182zM280 1264q125 134 176.5 198t75.5 107h184q52 -101 256 -305v-23h-127q-90 53 -223 184
q-131 -128 -219 -184h-123v23z" />
    <glyph glyph-name="udieresis" unicode="&#xfc;" horiz-adv-x="1266" 
d="M344 1098v-707q0 -133 59.5 -197.5t184.5 -64.5q169 0 246 94t77 303v572h181v-1098h-148l-26 145h-9q-49 -79 -139 -122t-209 -43q-198 0 -298.5 95t-100.5 304v719h182zM338 1395q0 53 28 76.5t68 23.5q39 0 68 -23.5t29 -76.5t-29 -78t-68 -25q-40 0 -68 25t-28 78z
M723 1395q0 53 28 76.5t66 23.5q39 0 68 -23.5t29 -76.5t-29 -78t-68 -25q-38 0 -66 25t-28 78z" />
    <glyph glyph-name="yacute" unicode="&#xfd;" horiz-adv-x="1044" 
d="M2 1098h193l237 -625q75 -204 92 -299h8q9 37 41 138.5t54 162.5l223 623h194l-473 -1250q-69 -182 -164 -261t-235 -79q-75 0 -149 17v143q50 -12 120 -12q86 0 146 47.5t98 146.5l57 146zM410 1266q38 48 96.5 136.5t98.5 166.5h217v-21q-44 -64 -137 -161t-156 -146
h-119v25z" />
    <glyph glyph-name="thorn" unicode="&#xfe;" horiz-adv-x="1260" 
d="M356 950q67 91 150.5 129.5t189.5 38.5q213 0 332 -149.5t119 -417.5q0 -269 -119 -420t-332 -151q-222 0 -342 159h-12q12 -132 12 -172v-459h-180v2048h180v-458q0 -70 -6 -148h8zM666 967q-161 0 -235.5 -89.5t-76.5 -287.5v-39q0 -223 74 -322.5t240 -99.5
q293 0 293 424q0 208 -71.5 311t-223.5 103z" />
    <glyph glyph-name="ydieresis" unicode="&#xff;" horiz-adv-x="1044" 
d="M2 1098h193l237 -625q75 -204 92 -299h8q9 37 41 138.5t54 162.5l223 623h194l-473 -1250q-69 -182 -164 -261t-235 -79q-75 0 -149 17v143q50 -12 120 -12q86 0 146 47.5t98 146.5l57 146zM234 1395q0 53 28 76.5t68 23.5q39 0 68 -23.5t29 -76.5t-29 -78t-68 -25
q-40 0 -68 25t-28 78zM619 1395q0 53 28 76.5t66 23.5q39 0 68 -23.5t29 -76.5t-29 -78t-68 -25q-38 0 -66 25t-28 78z" />
    <glyph glyph-name="Amacron" unicode="&#x100;" horiz-adv-x="1309" 
d="M1116 0l-176 453h-580l-174 -453h-186l571 1468h166l570 -1468h-191zM885 616l-164 443l-70 219q-30 -120 -63 -219l-166 -443h463zM365 1724h608v-145h-608v145z" />
    <glyph glyph-name="amacron" unicode="&#x101;" horiz-adv-x="1149" 
d="M852 0l-35 156h-8q-82 -103 -163.5 -139.5t-205.5 -36.5q-162 0 -254 85t-92 240q0 334 527 350l186 7v65q0 125 -54 184.5t-173 59.5q-87 0 -164.5 -26t-145.5 -58l-55 135q83 44 181 69t194 25q199 0 296 -88t97 -280v-748h-131zM481 125q151 0 237.5 81.5t86.5 231.5
v99l-162 -7q-189 -7 -275.5 -60t-86.5 -167q0 -86 52.5 -132t147.5 -46zM292 1386h608v-145h-608v145z" />
    <glyph glyph-name="Abreve" unicode="&#x102;" horiz-adv-x="1309" 
d="M1116 0l-176 453h-580l-174 -453h-186l571 1468h166l570 -1468h-191zM885 616l-164 443l-70 219q-30 -120 -63 -219l-166 -443h463zM647 1579q-141 0 -222.5 69t-90.5 206h110q8 -71 50 -100.5t157 -29.5q101 0 150 31.5t57 98.5h113q-13 -131 -99 -203t-225 -72z" />
    <glyph glyph-name="abreve" unicode="&#x103;" horiz-adv-x="1149" 
d="M852 0l-35 156h-8q-82 -103 -163.5 -139.5t-205.5 -36.5q-162 0 -254 85t-92 240q0 334 527 350l186 7v65q0 125 -54 184.5t-173 59.5q-87 0 -164.5 -26t-145.5 -58l-55 135q83 44 181 69t194 25q199 0 296 -88t97 -280v-748h-131zM481 125q151 0 237.5 81.5t86.5 231.5
v99l-162 -7q-189 -7 -275.5 -60t-86.5 -167q0 -86 52.5 -132t147.5 -46zM576 1241q-141 0 -222.5 69t-90.5 206h110q8 -71 50 -100.5t157 -29.5q101 0 150 31.5t57 98.5h113q-13 -131 -99 -203t-225 -72z" />
    <glyph glyph-name="Aogonek" unicode="&#x104;" horiz-adv-x="1309" 
d="M1116 0l-176 453h-580l-174 -453h-186l571 1468h166l570 -1468h-191zM885 616l-164 443l-70 219q-30 -120 -63 -219l-166 -443h463zM1106 -238q0 -46 24.5 -69t67.5 -23q44 0 99 13v-115q-69 -19 -127 -19q-211 0 -211 193q0 139 160 258h127q-70 -66 -105 -120.5
t-35 -117.5z" />
    <glyph glyph-name="aogonek" unicode="&#x105;" horiz-adv-x="1149" 
d="M852 0l-35 156h-8q-82 -103 -163.5 -139.5t-205.5 -36.5q-162 0 -254 85t-92 240q0 334 527 350l186 7v65q0 125 -54 184.5t-173 59.5q-87 0 -164.5 -26t-145.5 -58l-55 135q83 44 181 69t194 25q199 0 296 -88t97 -280v-748h-131zM481 125q151 0 237.5 81.5t86.5 231.5
v99l-162 -7q-189 -7 -275.5 -60t-86.5 -167q0 -86 52.5 -132t147.5 -46zM839 -238q0 -46 24.5 -69t67.5 -23q44 0 99 13v-115q-69 -19 -127 -19q-211 0 -211 193q0 139 160 258h127q-70 -66 -105 -120.5t-35 -117.5z" />
    <glyph glyph-name="Cacute" unicode="&#x106;" horiz-adv-x="1294" 
d="M825 1321q-236 0 -371 -158t-135 -432q0 -283 131 -436.5t373 -153.5q156 0 351 58v-160q-93 -34 -179 -46.5t-198 -12.5q-323 0 -497.5 196.5t-174.5 556.5q0 226 83.5 396t243 262t375.5 92q232 0 404 -86l-74 -156q-175 80 -332 80zM651 1604q38 48 96.5 136.5
t98.5 166.5h217v-21q-44 -64 -137 -161t-156 -146h-119v25z" />
    <glyph glyph-name="cacute" unicode="&#x107;" horiz-adv-x="983" 
d="M614 -20q-237 0 -369 145.5t-132 417.5q0 276 133.5 425.5t380.5 149.5q80 0 158.5 -16.5t129.5 -42.5l-55 -150q-139 52 -237 52q-166 0 -245 -104.5t-79 -311.5q0 -199 79 -304.5t234 -105.5q145 0 285 64v-160q-114 -59 -283 -59zM459 1266q38 48 96.5 136.5
t98.5 166.5h217v-21q-44 -64 -137 -161t-156 -146h-119v25z" />
    <glyph glyph-name="Ccircumflex" unicode="&#x108;" horiz-adv-x="1294" 
d="M825 1321q-236 0 -371 -158t-135 -432q0 -283 131 -436.5t373 -153.5q156 0 351 58v-160q-93 -34 -179 -46.5t-198 -12.5q-323 0 -497.5 196.5t-174.5 556.5q0 226 83.5 396t243 262t375.5 92q232 0 404 -86l-74 -156q-175 80 -332 80zM450 1602q125 134 176.5 198
t75.5 107h184q52 -101 256 -305v-23h-127q-90 53 -223 184q-131 -128 -219 -184h-123v23z" />
    <glyph glyph-name="ccircumflex" unicode="&#x109;" horiz-adv-x="983" 
d="M614 -20q-237 0 -369 145.5t-132 417.5q0 276 133.5 425.5t380.5 149.5q80 0 158.5 -16.5t129.5 -42.5l-55 -150q-139 52 -237 52q-166 0 -245 -104.5t-79 -311.5q0 -199 79 -304.5t234 -105.5q145 0 285 64v-160q-114 -59 -283 -59zM241 1264q125 134 176.5 198
t75.5 107h184q52 -101 256 -305v-23h-127q-90 53 -223 184q-131 -128 -219 -184h-123v23z" />
    <glyph glyph-name="Cdotaccent" unicode="&#x10a;" horiz-adv-x="1294" 
d="M825 1321q-236 0 -371 -158t-135 -432q0 -283 131 -436.5t373 -153.5q156 0 351 58v-160q-93 -34 -179 -46.5t-198 -12.5q-323 0 -497.5 196.5t-174.5 556.5q0 226 83.5 396t243 262t375.5 92q232 0 404 -86l-74 -156q-175 80 -332 80zM690 1733q0 60 30.5 87t75.5 27
q42 0 73.5 -27t31.5 -87q0 -59 -31.5 -87t-73.5 -28q-45 0 -75.5 28t-30.5 87z" />
    <glyph glyph-name="cdotaccent" unicode="&#x10b;" horiz-adv-x="983" 
d="M614 -20q-237 0 -369 145.5t-132 417.5q0 276 133.5 425.5t380.5 149.5q80 0 158.5 -16.5t129.5 -42.5l-55 -150q-139 52 -237 52q-166 0 -245 -104.5t-79 -311.5q0 -199 79 -304.5t234 -105.5q145 0 285 64v-160q-114 -59 -283 -59zM494 1395q0 60 30.5 87t75.5 27
q42 0 73.5 -27t31.5 -87q0 -59 -31.5 -87t-73.5 -28q-45 0 -75.5 28t-30.5 87z" />
    <glyph glyph-name="Ccaron" unicode="&#x10c;" horiz-adv-x="1294" 
d="M825 1321q-236 0 -371 -158t-135 -432q0 -283 131 -436.5t373 -153.5q156 0 351 58v-160q-93 -34 -179 -46.5t-198 -12.5q-323 0 -497.5 196.5t-174.5 556.5q0 226 83.5 396t243 262t375.5 92q232 0 404 -86l-74 -156q-175 80 -332 80zM450 1907h123q114 -74 219 -189
q126 126 223 189h127v-27q-205 -205 -256 -301h-184q-60 102 -252 301v27z" />
    <glyph glyph-name="ccaron" unicode="&#x10d;" horiz-adv-x="983" 
d="M614 -20q-237 0 -369 145.5t-132 417.5q0 276 133.5 425.5t380.5 149.5q80 0 158.5 -16.5t129.5 -42.5l-55 -150q-139 52 -237 52q-166 0 -245 -104.5t-79 -311.5q0 -199 79 -304.5t234 -105.5q145 0 285 64v-160q-114 -59 -283 -59zM249 1569h123q114 -74 219 -189
q126 126 223 189h127v-27q-205 -205 -256 -301h-184q-60 102 -252 301v27z" />
    <glyph glyph-name="Dcaron" unicode="&#x10e;" horiz-adv-x="1495" 
d="M1370 745q0 -362 -197.5 -553.5t-566.5 -191.5h-407v1462h450q341 0 531 -187.5t190 -529.5zM1176 739q0 279 -137.5 422.5t-415.5 143.5h-240v-1147h199q594 0 594 581zM348 1907h123q114 -74 219 -189q126 126 223 189h127v-27q-205 -205 -256 -301h-184
q-60 102 -252 301v27z" />
    <glyph glyph-name="dcaron" unicode="&#x10f;" horiz-adv-x="1260" 
d="M563 -20q-214 0 -332 148t-118 419q0 269 118.5 420t333.5 151q221 0 340 -162h13q-3 20 -8 80.5t-5 81.5v438h180v-1556h-145l-27 147h-8q-115 -167 -342 -167zM592 129q164 0 239.5 89.5t75.5 293.5v33q0 229 -76.5 326.5t-240.5 97.5q-139 0 -215 -110.5t-76 -315.5
q0 -204 75.5 -309t217.5 -105zM1177 1253q23 66 42.5 159t25.5 144h178v-18q-13 -53 -56 -145t-92 -164h-98v24z" />
    <glyph glyph-name="Dcroat" unicode="&#x110;" horiz-adv-x="1495" 
d="M1370 745q0 -359 -196.5 -552t-569.5 -193h-391v643h-152v160h152v659h436q341 0 531 -188.5t190 -528.5zM1176 739q0 280 -139 423t-414 143h-226v-502h365v-160h-365v-485h185q594 0 594 581z" />
    <glyph glyph-name="dcroat" unicode="&#x111;" horiz-adv-x="1264" 
d="M563 -20q-214 0 -332 147t-118 416q0 271 117.5 420t332.5 149q223 0 342 -162h13q-3 14 -8 69t-5 95v125h-436v135h436v182h180v-182h156v-135h-156v-1239h-147l-27 147h-8q-115 -167 -340 -167zM594 129q163 0 238 88.5t75 290.5v35q0 230 -76 325t-241 95
q-140 0 -214.5 -107t-74.5 -315q0 -197 72 -304.5t221 -107.5z" />
    <glyph glyph-name="Emacron" unicode="&#x112;" horiz-adv-x="1139" 
d="M1016 0h-817v1462h817v-162h-633v-456h596v-160h-596v-522h633v-162zM303 1724h608v-145h-608v145z" />
    <glyph glyph-name="emacron" unicode="&#x113;" horiz-adv-x="1155" 
d="M641 -20q-247 0 -387.5 149.5t-140.5 411.5q0 264 131 420.5t354 156.5q207 0 330 -133.5t123 -361.5v-109h-752q5 -187 95 -284t255 -97q88 0 167 15.5t185 60.5v-158q-91 -39 -171 -55t-189 -16zM596 971q-129 0 -204 -83t-89 -231h559q-2 154 -71 234t-195 80z
M307 1386h608v-145h-608v145z" />
    <glyph glyph-name="Ebreve" unicode="&#x114;" horiz-adv-x="1139" 
d="M1016 0h-817v1462h817v-162h-633v-456h596v-160h-596v-522h633v-162zM612 1579q-141 0 -222.5 69t-90.5 206h110q8 -71 50 -100.5t157 -29.5q101 0 150 31.5t57 98.5h113q-13 -131 -99 -203t-225 -72z" />
    <glyph glyph-name="ebreve" unicode="&#x115;" horiz-adv-x="1155" 
d="M641 -20q-247 0 -387.5 149.5t-140.5 411.5q0 264 131 420.5t354 156.5q207 0 330 -133.5t123 -361.5v-109h-752q5 -187 95 -284t255 -97q88 0 167 15.5t185 60.5v-158q-91 -39 -171 -55t-189 -16zM596 971q-129 0 -204 -83t-89 -231h559q-2 154 -71 234t-195 80z
M597 1241q-141 0 -222.5 69t-90.5 206h110q8 -71 50 -100.5t157 -29.5q101 0 150 31.5t57 98.5h113q-13 -131 -99 -203t-225 -72z" />
    <glyph glyph-name="Edotaccent" unicode="&#x116;" horiz-adv-x="1139" 
d="M1016 0h-817v1462h817v-162h-633v-456h596v-160h-596v-522h633v-162zM518 1704q0 60 30.5 87t75.5 27q42 0 73.5 -27t31.5 -87q0 -59 -31.5 -87t-73.5 -28q-45 0 -75.5 28t-30.5 87z" />
    <glyph glyph-name="edotaccent" unicode="&#x117;" horiz-adv-x="1155" 
d="M641 -20q-247 0 -387.5 149.5t-140.5 411.5q0 264 131 420.5t354 156.5q207 0 330 -133.5t123 -361.5v-109h-752q5 -187 95 -284t255 -97q88 0 167 15.5t185 60.5v-158q-91 -39 -171 -55t-189 -16zM596 971q-129 0 -204 -83t-89 -231h559q-2 154 -71 234t-195 80z
M498 1395q0 60 30.5 87t75.5 27q42 0 73.5 -27t31.5 -87q0 -59 -31.5 -87t-73.5 -28q-45 0 -75.5 28t-30.5 87z" />
    <glyph glyph-name="Eogonek" unicode="&#x118;" horiz-adv-x="1139" 
d="M1016 0h-817v1462h817v-162h-633v-456h596v-160h-596v-522h633v-162zM803 -238q0 -46 24.5 -69t67.5 -23q44 0 99 13v-115q-69 -19 -127 -19q-211 0 -211 193q0 139 160 258h127q-70 -66 -105 -120.5t-35 -117.5z" />
    <glyph glyph-name="eogonek" unicode="&#x119;" horiz-adv-x="1155" 
d="M641 -20q-247 0 -387.5 149.5t-140.5 411.5q0 264 131 420.5t354 156.5q207 0 330 -133.5t123 -361.5v-109h-752q5 -187 95 -284t255 -97q88 0 167 15.5t185 60.5v-158q-91 -39 -171 -55t-189 -16zM596 971q-129 0 -204 -83t-89 -231h559q-2 154 -71 234t-195 80z
M792 -209q0 -46 24.5 -69t67.5 -23q44 0 99 13v-115q-69 -19 -127 -19q-211 0 -211 193q0 139 160 258h127q-70 -66 -105 -120.5t-35 -117.5z" />
    <glyph glyph-name="Ecaron" unicode="&#x11a;" horiz-adv-x="1139" 
d="M1016 0h-817v1462h817v-162h-633v-456h596v-160h-596v-522h633v-162zM272 1907h123q114 -74 219 -189q126 126 223 189h127v-27q-205 -205 -256 -301h-184q-60 102 -252 301v27z" />
    <glyph glyph-name="ecaron" unicode="&#x11b;" horiz-adv-x="1155" 
d="M641 -20q-247 0 -387.5 149.5t-140.5 411.5q0 264 131 420.5t354 156.5q207 0 330 -133.5t123 -361.5v-109h-752q5 -187 95 -284t255 -97q88 0 167 15.5t185 60.5v-158q-91 -39 -171 -55t-189 -16zM596 971q-129 0 -204 -83t-89 -231h559q-2 154 -71 234t-195 80z
M257 1569h123q114 -74 219 -189q126 126 223 189h127v-27q-205 -205 -256 -301h-184q-60 102 -252 301v27z" />
    <glyph glyph-name="Gcircumflex" unicode="&#x11c;" horiz-adv-x="1491" 
d="M834 772h505v-717q-116 -37 -236 -56t-278 -19q-334 0 -517 198t-183 553q0 229 91 400t262.5 261.5t404.5 90.5q234 0 436 -86l-70 -160q-193 84 -377 84q-261 0 -408 -158t-147 -432q0 -290 141 -441t410 -151q147 0 287 35v434h-321v164zM508 1602q125 134 176.5 198
t75.5 107h184q52 -101 256 -305v-23h-127q-90 53 -223 184q-131 -128 -219 -184h-123v23z" />
    <glyph glyph-name="gcircumflex" unicode="&#x11d;" horiz-adv-x="1260" 
d="M592 127q166 0 241.5 89.5t75.5 287.5v43q0 220 -76 320t-245 100q-138 0 -213.5 -109.5t-75.5 -312.5q0 -204 73.5 -311t219.5 -107zM907 10l6 135h-8q-111 -165 -340 -165q-213 0 -332.5 148.5t-119.5 418.5q0 265 120.5 418t329.5 153q223 0 344 -166h11l24 146h143
v-1116q0 -236 -119.5 -355t-371.5 -119q-240 0 -395 70v166q160 -86 405 -86q140 0 221.5 82t81.5 227v43zM270 1264q125 134 176.5 198t75.5 107h184q52 -101 256 -305v-23h-127q-90 53 -223 184q-131 -128 -219 -184h-123v23z" />
    <glyph glyph-name="Gbreve" unicode="&#x11e;" horiz-adv-x="1491" 
d="M834 772h505v-717q-116 -37 -236 -56t-278 -19q-334 0 -517 198t-183 553q0 229 91 400t262.5 261.5t404.5 90.5q234 0 436 -86l-70 -160q-193 84 -377 84q-261 0 -408 -158t-147 -432q0 -290 141 -441t410 -151q147 0 287 35v434h-321v164zM848 1579q-141 0 -222.5 69
t-90.5 206h110q8 -71 50 -100.5t157 -29.5q101 0 150 31.5t57 98.5h113q-13 -131 -99 -203t-225 -72z" />
    <glyph glyph-name="gbreve" unicode="&#x11f;" horiz-adv-x="1260" 
d="M592 127q166 0 241.5 89.5t75.5 287.5v43q0 220 -76 320t-245 100q-138 0 -213.5 -109.5t-75.5 -312.5q0 -204 73.5 -311t219.5 -107zM907 10l6 135h-8q-111 -165 -340 -165q-213 0 -332.5 148.5t-119.5 418.5q0 265 120.5 418t329.5 153q223 0 344 -166h11l24 146h143
v-1116q0 -236 -119.5 -355t-371.5 -119q-240 0 -395 70v166q160 -86 405 -86q140 0 221.5 82t81.5 227v43zM614 1241q-141 0 -222.5 69t-90.5 206h110q8 -71 50 -100.5t157 -29.5q101 0 150 31.5t57 98.5h113q-13 -131 -99 -203t-225 -72z" />
    <glyph glyph-name="Gdotaccent" unicode="&#x120;" horiz-adv-x="1491" 
d="M834 772h505v-717q-116 -37 -236 -56t-278 -19q-334 0 -517 198t-183 553q0 229 91 400t262.5 261.5t404.5 90.5q234 0 436 -86l-70 -160q-193 84 -377 84q-261 0 -408 -158t-147 -432q0 -290 141 -441t410 -151q147 0 287 35v434h-321v164zM760 1733q0 60 30.5 87
t75.5 27q42 0 73.5 -27t31.5 -87q0 -59 -31.5 -87t-73.5 -28q-45 0 -75.5 28t-30.5 87z" />
    <glyph glyph-name="gdotaccent" unicode="&#x121;" horiz-adv-x="1260" 
d="M592 127q166 0 241.5 89.5t75.5 287.5v43q0 220 -76 320t-245 100q-138 0 -213.5 -109.5t-75.5 -312.5q0 -204 73.5 -311t219.5 -107zM907 10l6 135h-8q-111 -165 -340 -165q-213 0 -332.5 148.5t-119.5 418.5q0 265 120.5 418t329.5 153q223 0 344 -166h11l24 146h143
v-1116q0 -236 -119.5 -355t-371.5 -119q-240 0 -395 70v166q160 -86 405 -86q140 0 221.5 82t81.5 227v43zM506 1395q0 60 30.5 87t75.5 27q42 0 73.5 -27t31.5 -87q0 -59 -31.5 -87t-73.5 -28q-45 0 -75.5 28t-30.5 87z" />
    <glyph glyph-name="Gcommaaccent" unicode="&#x122;" horiz-adv-x="1491" 
d="M834 772h505v-717q-116 -37 -236 -56t-278 -19q-334 0 -517 198t-183 553q0 229 91 400t262.5 261.5t404.5 90.5q234 0 436 -86l-70 -160q-193 84 -377 84q-261 0 -408 -158t-147 -432q0 -290 141 -441t410 -151q147 0 287 35v434h-321v164zM660 -428q22 51 49 144
t35 159h178v-18q-16 -63 -64.5 -156.5t-99.5 -153.5h-98v25z" />
    <glyph glyph-name="gcommaaccent" unicode="&#x123;" horiz-adv-x="1260" 
d="M592 127q166 0 241.5 89.5t75.5 287.5v43q0 220 -76 320t-245 100q-138 0 -213.5 -109.5t-75.5 -312.5q0 -204 73.5 -311t219.5 -107zM907 10l6 135h-8q-111 -165 -340 -165q-213 0 -332.5 148.5t-119.5 418.5q0 265 120.5 418t329.5 153q223 0 344 -166h11l24 146h143
v-1116q0 -236 -119.5 -355t-371.5 -119q-240 0 -395 70v166q160 -86 405 -86q140 0 221.5 82t81.5 227v43zM776 1544q-27 -59 -53 -152t-33 -151h-178v19q15 56 64.5 152t99.5 157h100v-25z" />
    <glyph glyph-name="Hcircumflex" unicode="&#x124;" horiz-adv-x="1518" 
d="M1317 0h-184v682h-750v-682h-184v1462h184v-618h750v618h184v-1462zM410 1602q125 134 176.5 198t75.5 107h184q52 -101 256 -305v-23h-127q-90 53 -223 184q-131 -128 -219 -184h-123v23z" />
    <glyph glyph-name="hcircumflex" unicode="&#x125;" horiz-adv-x="1266" 
d="M922 0v702q0 134 -59.5 199.5t-186.5 65.5q-167 0 -244.5 -93t-77.5 -307v-567h-180v1556h180v-456q0 -90 -10 -154h12q49 80 139 125t203 45q200 0 301 -95.5t101 -305.5v-715h-178zM293 1657q125 134 176.5 198t75.5 107h184q52 -101 256 -305v-23h-127
q-90 53 -223 184q-131 -128 -219 -184h-123v23z" />
    <glyph glyph-name="Hbar" unicode="&#x126;" horiz-adv-x="1518" 
d="M199 1219v243h184v-243h750v243h184v-243h199v-148h-199v-1071h-184v682h-750v-682h-184v1071h-199v148h199zM1133 844v227h-750v-227h750z" />
    <glyph glyph-name="hbar" unicode="&#x127;" horiz-adv-x="1266" 
d="M922 0v662q0 133 -59.5 198.5t-186.5 65.5q-169 0 -245.5 -92.5t-76.5 -305.5v-528h-180v1237h-156v135h156v184h180v-184h434v-135h-434v-178q0 -88 -10 -152h12q53 85 144.5 127.5t199.5 42.5q199 0 299.5 -96.5t100.5 -306.5v-674h-178z" />
    <glyph glyph-name="Itilde" unicode="&#x128;" horiz-adv-x="694" 
d="M610 0h-528v106l172 39v1170l-172 41v106h528v-106l-172 -41v-1170l172 -39v-106zM500 1581q-43 0 -84 18.5t-80.5 40t-76 40t-70.5 18.5q-49 0 -74 -29.5t-39 -89.5h-104q12 122 70 192t155 70q45 0 87.5 -18.5t81.5 -40t75 -40t68 -18.5q48 0 72.5 29.5t39.5 89.5h103
q-12 -119 -70 -190.5t-154 -71.5z" />
    <glyph glyph-name="itilde" unicode="&#x129;" horiz-adv-x="528" 
d="M354 0h-180v1098h180v-1098zM418 1243q-43 0 -84 18.5t-80.5 40t-76 40t-70.5 18.5q-49 0 -74 -29.5t-39 -89.5h-104q12 122 70 192t155 70q45 0 87.5 -18.5t81.5 -40t75 -40t68 -18.5q48 0 72.5 29.5t39.5 89.5h103q-12 -119 -70 -190.5t-154 -71.5z" />
    <glyph glyph-name="Imacron" unicode="&#x12a;" horiz-adv-x="694" 
d="M610 0h-528v106l172 39v1170l-172 41v106h528v-106l-172 -41v-1170l172 -39v-106zM44 1724h608v-145h-608v145z" />
    <glyph glyph-name="imacron" unicode="&#x12b;" horiz-adv-x="528" 
d="M354 0h-180v1098h180v-1098zM-36 1386h608v-145h-608v145z" />
    <glyph glyph-name="Ibreve" unicode="&#x12c;" horiz-adv-x="694" 
d="M610 0h-528v106l172 39v1170l-172 41v106h528v-106l-172 -41v-1170l172 -39v-106zM343 1579q-141 0 -222.5 69t-90.5 206h110q8 -71 50 -100.5t157 -29.5q101 0 150 31.5t57 98.5h113q-13 -131 -99 -203t-225 -72z" />
    <glyph glyph-name="ibreve" unicode="&#x12d;" horiz-adv-x="528" 
d="M354 0h-180v1098h180v-1098zM259 1241q-141 0 -222.5 69t-90.5 206h110q8 -71 50 -100.5t157 -29.5q101 0 150 31.5t57 98.5h113q-13 -131 -99 -203t-225 -72z" />
    <glyph glyph-name="Iogonek" unicode="&#x12e;" horiz-adv-x="694" 
d="M610 0h-528v106l172 39v1170l-172 41v106h528v-106l-172 -41v-1170l172 -39v-106zM327 -238q0 -46 24.5 -69t67.5 -23q44 0 99 13v-115q-69 -19 -127 -19q-211 0 -211 193q0 139 160 258h127q-70 -66 -105 -120.5t-35 -117.5z" />
    <glyph glyph-name="iogonek" unicode="&#x12f;" horiz-adv-x="528" 
d="M354 0h-180v1098h180v-1098zM160 1395q0 60 30.5 87t75.5 27q42 0 73.5 -27t31.5 -87q0 -59 -31.5 -87t-73.5 -28q-45 0 -75.5 28t-30.5 87zM198 -238q0 -46 24.5 -69t67.5 -23q44 0 99 13v-115q-69 -19 -127 -19q-211 0 -211 193q0 139 160 258h127q-70 -66 -105 -120.5
t-35 -117.5z" />
    <glyph glyph-name="Idotaccent" unicode="&#x130;" horiz-adv-x="694" 
d="M610 0h-528v106l172 39v1170l-172 41v106h528v-106l-172 -41v-1170l172 -39v-106zM240 1733q0 60 30.5 87t75.5 27q42 0 73.5 -27t31.5 -87q0 -59 -31.5 -87t-73.5 -28q-45 0 -75.5 28t-30.5 87z" />
    <glyph glyph-name="dotlessi" unicode="&#x131;" horiz-adv-x="528" 
d="M354 0h-180v1098h180v-1098z" />
    <glyph glyph-name="IJ" unicode="&#x132;" horiz-adv-x="1253" 
d="M610 0h-528v106l172 39v1170l-172 41v106h528v-106l-172 -41v-1170l172 -39v-106zM686 -389q-94 0 -152 27v155q71 -20 148 -20q100 0 150 60.5t50 174.5v1454h185v-1439q0 -198 -98.5 -305t-282.5 -107z" />
    <glyph glyph-name="ij" unicode="&#x133;" horiz-adv-x="1053" 
d="M354 0h-180v1098h180v-1098zM160 1395q0 60 30.5 87t75.5 27q42 0 73.5 -27t31.5 -87q0 -59 -31.5 -87t-73.5 -28q-45 0 -75.5 28t-30.5 87zM569 -492q-94 0 -158 25v145q69 -20 136 -20q78 0 114.5 42.5t36.5 129.5v1268h180v-1262q0 -164 -78.5 -246t-230.5 -82z
M684 1395q0 60 30.5 87t75.5 27q42 0 73.5 -27t31.5 -87q0 -59 -31.5 -87t-73.5 -28q-45 0 -75.5 28t-30.5 87z" />
    <glyph glyph-name="Jcircumflex" unicode="&#x134;" horiz-adv-x="559" 
d="M-8 -389q-94 0 -152 27v155q71 -20 148 -20q100 0 150 60.5t50 174.5v1454h185v-1439q0 -198 -98.5 -305t-282.5 -107zM-63 1602q125 134 176.5 198t75.5 107h184q52 -101 256 -305v-23h-127q-90 53 -223 184q-131 -128 -219 -184h-123v23z" />
    <glyph glyph-name="jcircumflex" unicode="&#x135;" horiz-adv-x="528" 
d="M45 -492q-94 0 -158 25v145q69 -20 136 -20q78 0 114.5 42.5t36.5 129.5v1268h180v-1262q0 -164 -78.5 -246t-230.5 -82zM-87 1264q125 134 176.5 198t75.5 107h184q52 -101 256 -305v-23h-127q-90 53 -223 184q-131 -128 -219 -184h-123v23z" />
    <glyph glyph-name="Kcommaaccent" unicode="&#x136;" horiz-adv-x="1268" 
d="M1268 0h-217l-519 698l-149 -131v-567h-184v1462h184v-721l126 139l521 582h215l-579 -637zM504 -428q22 51 49 144t35 159h178v-18q-16 -63 -64.5 -156.5t-99.5 -153.5h-98v25z" />
    <glyph glyph-name="kcommaaccent" unicode="&#x137;" horiz-adv-x="1094" 
d="M352 565l61 78l70 84l351 371h210l-444 -469l475 -629h-217l-381 512l-125 -109v-403h-178v1556h178v-813l-8 -178h8zM416 -428q22 51 49 144t35 159h178v-18q-16 -63 -64.5 -156.5t-99.5 -153.5h-98v25z" />
    <glyph glyph-name="kgreenlandic" unicode="&#x138;" horiz-adv-x="1094" 
d="M825 1098h217l-415 -486l448 -612h-215l-360 496l-135 -111v-385h-191v1098h191v-285q0 -139 -13 -276l84 102z" />
    <glyph glyph-name="Lacute" unicode="&#x139;" horiz-adv-x="1073" 
d="M199 0v1462h184v-1298h639v-164h-823zM241 1604q38 48 96.5 136.5t98.5 166.5h217v-21q-44 -64 -137 -161t-156 -146h-119v25z" />
    <glyph glyph-name="lacute" unicode="&#x13a;" horiz-adv-x="528" 
d="M354 0h-180v1556h180v-1556zM165 1661q38 48 96.5 136.5t98.5 166.5h217v-21q-44 -64 -137 -161t-156 -146h-119v25z" />
    <glyph glyph-name="Lcommaaccent" unicode="&#x13b;" horiz-adv-x="1073" 
d="M199 0v1462h184v-1298h639v-164h-823zM418 -428q22 51 49 144t35 159h178v-18q-16 -63 -64.5 -156.5t-99.5 -153.5h-98v25z" />
    <glyph glyph-name="lcommaaccent" unicode="&#x13c;" horiz-adv-x="528" 
d="M354 0h-180v1556h180v-1556zM92 -428q22 51 49 144t35 159h178v-18q-16 -63 -64.5 -156.5t-99.5 -153.5h-98v25z" />
    <glyph glyph-name="Lcaron" unicode="&#x13d;" horiz-adv-x="1073" 
d="M199 0v1462h184v-1298h639v-164h-823zM682 1160q23 66 42.5 159t25.5 144h178v-18q-13 -53 -56 -145t-92 -164h-98v24z" />
    <glyph glyph-name="lcaron" unicode="&#x13e;" horiz-adv-x="528" 
d="M354 0h-180v1556h180v-1556zM448 1253q23 66 42.5 159t25.5 144h178v-18q-13 -53 -56 -145t-92 -164h-98v24z" />
    <glyph glyph-name="Ldot" unicode="&#x13f;" horiz-adv-x="1073" 
d="M199 0v1462h184v-1298h639v-164h-823zM680 732q0 60 30.5 87t75.5 27q42 0 73.5 -27t31.5 -87q0 -59 -31.5 -87t-73.5 -28q-45 0 -75.5 28t-30.5 87z" />
    <glyph glyph-name="ldot" unicode="&#x140;" horiz-adv-x="666" 
d="M354 0h-180v1556h180v-1556zM492 683q0 60 30.5 87t75.5 27q42 0 73.5 -27t31.5 -87q0 -59 -31.5 -87t-73.5 -28q-45 0 -75.5 28t-30.5 87z" />
    <glyph glyph-name="Lslash" unicode="&#x141;" horiz-adv-x="1073" 
d="M199 0v506l-101 -57l-71 122l172 103v788h184v-680l281 166l73 -129l-354 -205v-450h639v-164h-823z" />
    <glyph glyph-name="lslash" unicode="&#x142;" horiz-adv-x="528" 
d="M340 870l131 91l76 -121l-207 -140v-700h-180v584l-105 -66l-73 121l178 115v802h180v-686z" />
    <glyph glyph-name="Nacute" unicode="&#x143;" horiz-adv-x="1556" 
d="M1358 0h-215l-783 1214h-8l5 -81q12 -182 12 -316v-817h-170v1462h213l45 -71l480 -742l255 -397h8q-2 24 -8 171.5t-6 213.5v825h172v-1462zM651 1604q38 48 96.5 136.5t98.5 166.5h217v-21q-44 -64 -137 -161t-156 -146h-119v25z" />
    <glyph glyph-name="nacute" unicode="&#x144;" horiz-adv-x="1266" 
d="M922 0v702q0 134 -59.5 199.5t-186.5 65.5q-169 0 -245.5 -93.5t-76.5 -304.5v-569h-180v1098h145l27 -150h10q51 81 143 125.5t203 44.5q202 0 300 -98t98 -305v-715h-178zM512 1266q38 48 96.5 136.5t98.5 166.5h217v-21q-44 -64 -137 -161t-156 -146h-119v25z" />
    <glyph glyph-name="Ncommaaccent" unicode="&#x145;" horiz-adv-x="1556" 
d="M1358 0h-215l-783 1214h-8l5 -81q12 -182 12 -316v-817h-170v1462h213l45 -71l480 -742l255 -397h8q-2 24 -8 171.5t-6 213.5v825h172v-1462zM576 -428q22 51 49 144t35 159h178v-18q-16 -63 -64.5 -156.5t-99.5 -153.5h-98v25z" />
    <glyph glyph-name="ncommaaccent" unicode="&#x146;" horiz-adv-x="1266" 
d="M922 0v702q0 134 -59.5 199.5t-186.5 65.5q-169 0 -245.5 -93.5t-76.5 -304.5v-569h-180v1098h145l27 -150h10q51 81 143 125.5t203 44.5q202 0 300 -98t98 -305v-715h-178zM455 -428q22 51 49 144t35 159h178v-18q-16 -63 -64.5 -156.5t-99.5 -153.5h-98v25z" />
    <glyph glyph-name="Ncaron" unicode="&#x147;" horiz-adv-x="1556" 
d="M1358 0h-215l-783 1214h-8l5 -81q12 -182 12 -316v-817h-170v1462h213l45 -71l480 -742l255 -397h8q-2 24 -8 171.5t-6 213.5v825h172v-1462zM432 1907h123q114 -74 219 -189q126 126 223 189h127v-27q-205 -205 -256 -301h-184q-60 102 -252 301v27z" />
    <glyph glyph-name="ncaron" unicode="&#x148;" horiz-adv-x="1266" 
d="M922 0v702q0 134 -59.5 199.5t-186.5 65.5q-169 0 -245.5 -93.5t-76.5 -304.5v-569h-180v1098h145l27 -150h10q51 81 143 125.5t203 44.5q202 0 300 -98t98 -305v-715h-178zM295 1569h123q114 -74 219 -189q126 126 223 189h127v-27q-205 -205 -256 -301h-184
q-60 102 -252 301v27z" />
    <glyph glyph-name="napostrophe" unicode="&#x149;" horiz-adv-x="1415" 
d="M1067 0v702q0 134 -59.5 199.5t-186.5 65.5q-169 0 -245.5 -93.5t-76.5 -304.5v-569h-180v1098h145l27 -150h10q51 81 143 125.5t203 44.5q202 0 300 -98t98 -305v-715h-178zM297 1462l15 -22q-52 -199 -176 -479h-133q70 285 102 501h192z" />
    <glyph glyph-name="Eng" unicode="&#x14a;" horiz-adv-x="1556" 
d="M973 -389q-98 0 -156 27v155q71 -20 156 -20q102 0 156.5 58.5t56.5 168.5l-826 1214h-8q17 -255 17 -421v-793h-170v1462h213l780 -1171h8q-14 154 -14 409v762h172v-1450q0 -196 -99.5 -298.5t-285.5 -102.5z" />
    <glyph glyph-name="eng" unicode="&#x14b;" horiz-adv-x="1266" 
d="M807 -492q-86 0 -145 25v145q60 -20 122 -20q138 0 138 172v875q0 133 -59.5 197.5t-184.5 64.5q-170 0 -247 -93.5t-77 -302.5v-571h-180v1098h145l29 -150h10q52 82 142 126t200 44q202 0 302 -95.5t100 -305.5v-881q0 -154 -71.5 -241t-223.5 -87z" />
    <glyph glyph-name="Omacron" unicode="&#x14c;" horiz-adv-x="1599" 
d="M1475 733q0 -351 -177.5 -552t-496.5 -201q-323 0 -499.5 197.5t-176.5 557.5q0 357 175.5 553.5t502.5 196.5q318 0 495 -199.5t177 -552.5zM319 733q0 -290 123 -442t359 -152q235 0 357 150t122 444q0 293 -121 441.5t-356 148.5q-238 0 -361 -150.5t-123 -439.5z
M496 1724h608v-145h-608v145z" />
    <glyph glyph-name="omacron" unicode="&#x14d;" horiz-adv-x="1239" 
d="M1128 551q0 -269 -136 -420t-376 -151q-149 0 -264 69.5t-177 199.5t-62 302q0 268 134 417.5t376 149.5q232 0 368.5 -152.5t136.5 -414.5zM299 551q0 -207 81.5 -314.5t240.5 -107.5q157 0 239 107.5t82 314.5t-82.5 311.5t-241.5 104.5q-319 0 -319 -416zM315 1386
h608v-145h-608v145z" />
    <glyph glyph-name="Obreve" unicode="&#x14e;" horiz-adv-x="1599" 
d="M1475 733q0 -351 -177.5 -552t-496.5 -201q-323 0 -499.5 197.5t-176.5 557.5q0 357 175.5 553.5t502.5 196.5q318 0 495 -199.5t177 -552.5zM319 733q0 -290 123 -442t359 -152q235 0 357 150t122 444q0 293 -121 441.5t-356 148.5q-238 0 -361 -150.5t-123 -439.5z
M793 1579q-141 0 -222.5 69t-90.5 206h110q8 -71 50 -100.5t157 -29.5q101 0 150 31.5t57 98.5h113q-13 -131 -99 -203t-225 -72z" />
    <glyph glyph-name="obreve" unicode="&#x14f;" horiz-adv-x="1239" 
d="M1128 551q0 -269 -136 -420t-376 -151q-149 0 -264 69.5t-177 199.5t-62 302q0 268 134 417.5t376 149.5q232 0 368.5 -152.5t136.5 -414.5zM299 551q0 -207 81.5 -314.5t240.5 -107.5q157 0 239 107.5t82 314.5t-82.5 311.5t-241.5 104.5q-319 0 -319 -416zM612 1241
q-141 0 -222.5 69t-90.5 206h110q8 -71 50 -100.5t157 -29.5q101 0 150 31.5t57 98.5h113q-13 -131 -99 -203t-225 -72z" />
    <glyph glyph-name="Ohungarumlaut" unicode="&#x150;" horiz-adv-x="1599" 
d="M1475 733q0 -351 -177.5 -552t-496.5 -201q-323 0 -499.5 197.5t-176.5 557.5q0 357 175.5 553.5t502.5 196.5q318 0 495 -199.5t177 -552.5zM319 733q0 -290 123 -442t359 -152q235 0 357 150t122 444q0 293 -121 441.5t-356 148.5q-238 0 -361 -150.5t-123 -439.5z
M504 1604q35 46 87 134.5t91 168.5h197v-21q-33 -56 -119.5 -154t-152.5 -153h-103v25zM865 1604q47 65 100 156t78 147h196v-21q-33 -56 -119.5 -154t-152.5 -153h-102v25z" />
    <glyph glyph-name="ohungarumlaut" unicode="&#x151;" horiz-adv-x="1239" 
d="M1128 551q0 -269 -136 -420t-376 -151q-149 0 -264 69.5t-177 199.5t-62 302q0 268 134 417.5t376 149.5q232 0 368.5 -152.5t136.5 -414.5zM299 551q0 -207 81.5 -314.5t240.5 -107.5q157 0 239 107.5t82 314.5t-82.5 311.5t-241.5 104.5q-319 0 -319 -416zM315 1266
q35 46 87 134.5t91 168.5h197v-21q-33 -56 -119.5 -154t-152.5 -153h-103v25zM676 1266q47 65 100 156t78 147h196v-21q-33 -56 -119.5 -154t-152.5 -153h-102v25z" />
    <glyph glyph-name="OE" unicode="&#x152;" horiz-adv-x="1901" 
d="M1778 0h-779q-102 -20 -198 -20q-325 0 -500.5 197t-175.5 558q0 359 172.5 554.5t493.5 195.5q106 0 196 -23h791v-162h-588v-456h549v-160h-549v-522h588v-162zM807 1323q-242 0 -366 -151t-124 -439q0 -289 124 -441.5t364 -152.5q117 0 203 35v1116q-85 33 -201 33z
" />
    <glyph glyph-name="oe" unicode="&#x153;" horiz-adv-x="1937" 
d="M1432 -20q-290 0 -418 227q-63 -113 -167.5 -170t-240.5 -57q-226 0 -360.5 154t-134.5 417q0 266 132 415.5t369 149.5q130 0 232 -57t164 -168q60 109 156 167t222 58q205 0 325 -132.5t120 -360.5v-109h-729q8 -381 332 -381q90 0 167 15.5t181 60.5v-158
q-93 -40 -170 -55.5t-180 -15.5zM299 551q0 -208 73 -315t236 -107q160 0 233.5 104.5t73.5 309.5q0 214 -74.5 319t-236.5 105q-161 0 -233 -105.5t-72 -310.5zM1384 969q-123 0 -194.5 -79.5t-83.5 -232.5h534q0 151 -64.5 231.5t-191.5 80.5z" />
    <glyph glyph-name="Racute" unicode="&#x154;" horiz-adv-x="1274" 
d="M383 760h219q178 0 260 70t82 208t-83 201.5t-269 63.5h-209v-543zM383 604v-604h-184v1462h403q272 0 402.5 -103.5t130.5 -311.5q0 -291 -293 -392l401 -655h-215l-354 604h-291zM510 1604q38 48 96.5 136.5t98.5 166.5h217v-21q-44 -64 -137 -161t-156 -146h-119v25z
" />
    <glyph glyph-name="racute" unicode="&#x155;" horiz-adv-x="846" 
d="M686 1118q73 0 129 -12l-22 -166q-61 14 -119 14q-87 0 -161.5 -48t-116.5 -132.5t-42 -187.5v-586h-180v1098h148l20 -201h8q63 109 149 165t187 56zM357 1266q38 48 96.5 136.5t98.5 166.5h217v-21q-44 -64 -137 -161t-156 -146h-119v25z" />
    <glyph glyph-name="Rcommaaccent" unicode="&#x156;" horiz-adv-x="1274" 
d="M383 760h219q178 0 260 70t82 208t-83 201.5t-269 63.5h-209v-543zM383 604v-604h-184v1462h403q272 0 402.5 -103.5t130.5 -311.5q0 -291 -293 -392l401 -655h-215l-354 604h-291zM496 -428q22 51 49 144t35 159h178v-18q-16 -63 -64.5 -156.5t-99.5 -153.5h-98v25z" />
    <glyph glyph-name="rcommaaccent" unicode="&#x157;" horiz-adv-x="846" 
d="M686 1118q73 0 129 -12l-22 -166q-61 14 -119 14q-87 0 -161.5 -48t-116.5 -132.5t-42 -187.5v-586h-180v1098h148l20 -201h8q63 109 149 165t187 56zM98 -428q22 51 49 144t35 159h178v-18q-16 -63 -64.5 -156.5t-99.5 -153.5h-98v25z" />
    <glyph glyph-name="Rcaron" unicode="&#x158;" horiz-adv-x="1274" 
d="M383 760h219q178 0 260 70t82 208t-83 201.5t-269 63.5h-209v-543zM383 604v-604h-184v1462h403q272 0 402.5 -103.5t130.5 -311.5q0 -291 -293 -392l401 -655h-215l-354 604h-291zM289 1907h123q114 -74 219 -189q126 126 223 189h127v-27q-205 -205 -256 -301h-184
q-60 102 -252 301v27z" />
    <glyph glyph-name="rcaron" unicode="&#x159;" horiz-adv-x="846" 
d="M686 1118q73 0 129 -12l-22 -166q-61 14 -119 14q-87 0 -161.5 -48t-116.5 -132.5t-42 -187.5v-586h-180v1098h148l20 -201h8q63 109 149 165t187 56zM126 1569h123q114 -74 219 -189q126 126 223 189h127v-27q-205 -205 -256 -301h-184q-60 102 -252 301v27z" />
    <glyph glyph-name="Sacute" unicode="&#x15a;" horiz-adv-x="1124" 
d="M1028 391q0 -191 -138 -301t-384 -110q-260 0 -402 69v176q93 -40 203.5 -63t206.5 -23q164 0 247 63t83 173q0 73 -30 120t-100.5 88t-213.5 93q-203 74 -290 174.5t-87 259.5q0 171 128.5 272t338.5 101q219 0 403 -82l-57 -158q-188 78 -350 78q-130 0 -203.5 -56
t-73.5 -157q0 -72 28.5 -119.5t92 -86.5t199.5 -89q163 -60 243 -116.5t118 -130t38 -175.5zM465 1604q38 48 96.5 136.5t98.5 166.5h217v-21q-44 -64 -137 -161t-156 -146h-119v25z" />
    <glyph glyph-name="sacute" unicode="&#x15b;" horiz-adv-x="981" 
d="M889 303q0 -154 -115 -238.5t-323 -84.5q-217 0 -345 69v164q181 -88 349 -88q136 0 198 44t62 118q0 65 -59.5 110t-211.5 103q-155 60 -218 102.5t-92.5 95.5t-29.5 129q0 135 110 213t302 78q187 0 350 -74l-61 -143q-167 70 -301 70q-112 0 -170 -35.5t-58 -97.5
q0 -60 50 -99.5t233 -109.5q137 -51 202.5 -95t96.5 -99t31 -132zM370 1266q38 48 96.5 136.5t98.5 166.5h217v-21q-44 -64 -137 -161t-156 -146h-119v25z" />
    <glyph glyph-name="Scircumflex" unicode="&#x15c;" horiz-adv-x="1124" 
d="M1028 391q0 -191 -138 -301t-384 -110q-260 0 -402 69v176q93 -40 203.5 -63t206.5 -23q164 0 247 63t83 173q0 73 -30 120t-100.5 88t-213.5 93q-203 74 -290 174.5t-87 259.5q0 171 128.5 272t338.5 101q219 0 403 -82l-57 -158q-188 78 -350 78q-130 0 -203.5 -56
t-73.5 -157q0 -72 28.5 -119.5t92 -86.5t199.5 -89q163 -60 243 -116.5t118 -130t38 -175.5zM238 1602q125 134 176.5 198t75.5 107h184q52 -101 256 -305v-23h-127q-90 53 -223 184q-131 -128 -219 -184h-123v23z" />
    <glyph glyph-name="scircumflex" unicode="&#x15d;" horiz-adv-x="981" 
d="M889 303q0 -154 -115 -238.5t-323 -84.5q-217 0 -345 69v164q181 -88 349 -88q136 0 198 44t62 118q0 65 -59.5 110t-211.5 103q-155 60 -218 102.5t-92.5 95.5t-29.5 129q0 135 110 213t302 78q187 0 350 -74l-61 -143q-167 70 -301 70q-112 0 -170 -35.5t-58 -97.5
q0 -60 50 -99.5t233 -109.5q137 -51 202.5 -95t96.5 -99t31 -132zM157 1264q125 134 176.5 198t75.5 107h184q52 -101 256 -305v-23h-127q-90 53 -223 184q-131 -128 -219 -184h-123v23z" />
    <glyph glyph-name="Scedilla" unicode="&#x15e;" horiz-adv-x="1124" 
d="M1028 391q0 -191 -138 -301t-384 -110q-260 0 -402 69v176q93 -40 203.5 -63t206.5 -23q164 0 247 63t83 173q0 73 -30 120t-100.5 88t-213.5 93q-203 74 -290 174.5t-87 259.5q0 171 128.5 272t338.5 101q219 0 403 -82l-57 -158q-188 78 -350 78q-130 0 -203.5 -56
t-73.5 -157q0 -72 28.5 -119.5t92 -86.5t199.5 -89q163 -60 243 -116.5t118 -130t38 -175.5zM733 -285q0 -99 -75.5 -153t-227.5 -54q-65 0 -102 11v112q36 -10 108 -10q75 0 113.5 19.5t38.5 70.5q0 89 -187 113l88 176h119l-53 -109q178 -38 178 -176z" />
    <glyph glyph-name="scedilla" unicode="&#x15f;" horiz-adv-x="981" 
d="M889 303q0 -154 -115 -238.5t-323 -84.5q-217 0 -345 69v164q181 -88 349 -88q136 0 198 44t62 118q0 65 -59.5 110t-211.5 103q-155 60 -218 102.5t-92.5 95.5t-29.5 129q0 135 110 213t302 78q187 0 350 -74l-61 -143q-167 70 -301 70q-112 0 -170 -35.5t-58 -97.5
q0 -60 50 -99.5t233 -109.5q137 -51 202.5 -95t96.5 -99t31 -132zM655 -285q0 -99 -75.5 -153t-227.5 -54q-65 0 -102 11v112q36 -10 108 -10q75 0 113.5 19.5t38.5 70.5q0 89 -187 113l88 176h119l-53 -109q178 -38 178 -176z" />
    <glyph glyph-name="Scaron" unicode="&#x160;" horiz-adv-x="1124" 
d="M1028 391q0 -191 -138 -301t-384 -110q-260 0 -402 69v176q93 -40 203.5 -63t206.5 -23q164 0 247 63t83 173q0 73 -30 120t-100.5 88t-213.5 93q-203 74 -290 174.5t-87 259.5q0 171 128.5 272t338.5 101q219 0 403 -82l-57 -158q-188 78 -350 78q-130 0 -203.5 -56
t-73.5 -157q0 -72 28.5 -119.5t92 -86.5t199.5 -89q163 -60 243 -116.5t118 -130t38 -175.5zM234 1907h123q114 -74 219 -189q126 126 223 189h127v-27q-205 -205 -256 -301h-184q-60 102 -252 301v27z" />
    <glyph glyph-name="scaron" unicode="&#x161;" horiz-adv-x="981" 
d="M889 303q0 -154 -115 -238.5t-323 -84.5q-217 0 -345 69v164q181 -88 349 -88q136 0 198 44t62 118q0 65 -59.5 110t-211.5 103q-155 60 -218 102.5t-92.5 95.5t-29.5 129q0 135 110 213t302 78q187 0 350 -74l-61 -143q-167 70 -301 70q-112 0 -170 -35.5t-58 -97.5
q0 -60 50 -99.5t233 -109.5q137 -51 202.5 -95t96.5 -99t31 -132zM169 1569h123q114 -74 219 -189q126 126 223 189h127v-27q-205 -205 -256 -301h-184q-60 102 -252 301v27z" />
    <glyph glyph-name="uni021A" unicode="&#x21a;" horiz-adv-x="1139" 
d="M662 0h-185v1300h-457v162h1096v-162h-454v-1300zM392 -428q22 51 49 144t35 159h178v-18q-16 -63 -64.5 -156.5t-99.5 -153.5h-98v25z" />
    <glyph glyph-name="uni021B" unicode="&#x21b;" horiz-adv-x="739" 
d="M541 127q35 0 82 7t71 16v-138q-25 -11 -77.5 -21.5t-106.5 -10.5q-322 0 -322 339v639h-155v86l157 72l72 234h107v-252h317v-140h-317v-634q0 -95 45.5 -146t126.5 -51zM290 -428q22 51 49 144t35 159h178v-18q-16 -63 -64.5 -156.5t-99.5 -153.5h-98v25z" />
    <glyph glyph-name="Tcaron" unicode="&#x164;" horiz-adv-x="1139" 
d="M662 0h-185v1300h-457v162h1096v-162h-454v-1300zM226 1907h123q114 -74 219 -189q126 126 223 189h127v-27q-205 -205 -256 -301h-184q-60 102 -252 301v27z" />
    <glyph glyph-name="tcaron" unicode="&#x165;" horiz-adv-x="739" 
d="M541 127q35 0 82 7t71 16v-138q-25 -11 -77.5 -21.5t-106.5 -10.5q-322 0 -322 339v639h-155v86l157 72l72 234h107v-252h317v-140h-317v-634q0 -95 45.5 -146t126.5 -51zM504 1253q23 66 42.5 159t25.5 144h178v-18q-13 -53 -56 -145t-92 -164h-98v24z" />
    <glyph glyph-name="Tbar" unicode="&#x166;" horiz-adv-x="1139" 
d="M475 817v481h-455v164h1096v-164h-457v-481h304v-151h-304v-666h-184v666h-305v151h305z" />
    <glyph glyph-name="tbar" unicode="&#x167;" horiz-adv-x="739" 
d="M545 127q85 0 149 23v-138q-26 -12 -79.5 -22t-110.5 -10q-316 0 -316 350v243h-139v136h139v249h-155v86l157 72l72 234h107v-252h317v-140h-317v-249h299v-136h-299v-233q0 -106 42.5 -159.5t133.5 -53.5z" />
    <glyph glyph-name="Utilde" unicode="&#x168;" horiz-adv-x="1497" 
d="M1311 1462v-946q0 -250 -151 -393t-419 -143q-265 0 -411 144.5t-146 395.5v942h185v-948q0 -179 95.5 -277t287.5 -98q181 0 278.5 97t97.5 280v946h183zM901 1581q-43 0 -84 18.5t-80.5 40t-76 40t-70.5 18.5q-49 0 -74 -29.5t-39 -89.5h-104q12 122 70 192t155 70
q45 0 87.5 -18.5t81.5 -40t75 -40t68 -18.5q48 0 72.5 29.5t39.5 89.5h103q-12 -119 -70 -190.5t-154 -71.5z" />
    <glyph glyph-name="utilde" unicode="&#x169;" horiz-adv-x="1266" 
d="M344 1098v-707q0 -133 59.5 -197.5t184.5 -64.5q169 0 246 94t77 303v572h181v-1098h-148l-26 145h-9q-49 -79 -139 -122t-209 -43q-198 0 -298.5 95t-100.5 304v719h182zM783 1243q-43 0 -84 18.5t-80.5 40t-76 40t-70.5 18.5q-49 0 -74 -29.5t-39 -89.5h-104
q12 122 70 192t155 70q45 0 87.5 -18.5t81.5 -40t75 -40t68 -18.5q48 0 72.5 29.5t39.5 89.5h103q-12 -119 -70 -190.5t-154 -71.5z" />
    <glyph glyph-name="Umacron" unicode="&#x16a;" horiz-adv-x="1497" 
d="M1311 1462v-946q0 -250 -151 -393t-419 -143q-265 0 -411 144.5t-146 395.5v942h185v-948q0 -179 95.5 -277t287.5 -98q181 0 278.5 97t97.5 280v946h183zM444 1724h608v-145h-608v145z" />
    <glyph glyph-name="umacron" unicode="&#x16b;" horiz-adv-x="1266" 
d="M344 1098v-707q0 -133 59.5 -197.5t184.5 -64.5q169 0 246 94t77 303v572h181v-1098h-148l-26 145h-9q-49 -79 -139 -122t-209 -43q-198 0 -298.5 95t-100.5 304v719h182zM326 1386h608v-145h-608v145z" />
    <glyph glyph-name="Ubreve" unicode="&#x16c;" horiz-adv-x="1497" 
d="M1311 1462v-946q0 -250 -151 -393t-419 -143q-265 0 -411 144.5t-146 395.5v942h185v-948q0 -179 95.5 -277t287.5 -98q181 0 278.5 97t97.5 280v946h183zM739 1579q-141 0 -222.5 69t-90.5 206h110q8 -71 50 -100.5t157 -29.5q101 0 150 31.5t57 98.5h113
q-13 -131 -99 -203t-225 -72z" />
    <glyph glyph-name="ubreve" unicode="&#x16d;" horiz-adv-x="1266" 
d="M344 1098v-707q0 -133 59.5 -197.5t184.5 -64.5q169 0 246 94t77 303v572h181v-1098h-148l-26 145h-9q-49 -79 -139 -122t-209 -43q-198 0 -298.5 95t-100.5 304v719h182zM620 1241q-141 0 -222.5 69t-90.5 206h110q8 -71 50 -100.5t157 -29.5q101 0 150 31.5t57 98.5
h113q-13 -131 -99 -203t-225 -72z" />
    <glyph glyph-name="Uring" unicode="&#x16e;" horiz-adv-x="1497" 
d="M1311 1462v-946q0 -250 -151 -393t-419 -143q-265 0 -411 144.5t-146 395.5v942h185v-948q0 -179 95.5 -277t287.5 -98q181 0 278.5 97t97.5 280v946h183zM973 1798q0 -101 -62.5 -160t-164.5 -59q-103 0 -163 58.5t-60 158.5q0 98 60 156.5t163 58.5q101 0 164 -59
t63 -154zM860 1796q0 54 -32.5 84.5t-81.5 30.5q-50 0 -82.5 -30.5t-32.5 -84.5t29.5 -84.5t85.5 -30.5q51 0 82.5 30.5t31.5 84.5z" />
    <glyph glyph-name="uring" unicode="&#x16f;" horiz-adv-x="1266" 
d="M344 1098v-707q0 -133 59.5 -197.5t184.5 -64.5q169 0 246 94t77 303v572h181v-1098h-148l-26 145h-9q-49 -79 -139 -122t-209 -43q-198 0 -298.5 95t-100.5 304v719h182zM854 1460q0 -101 -62.5 -160t-164.5 -59q-103 0 -163 58.5t-60 158.5q0 98 60 156.5t163 58.5
q101 0 164 -59t63 -154zM741 1458q0 54 -32.5 84.5t-81.5 30.5q-50 0 -82.5 -30.5t-32.5 -84.5t29.5 -84.5t85.5 -30.5q51 0 82.5 30.5t31.5 84.5z" />
    <glyph glyph-name="Uhungarumlaut" unicode="&#x170;" horiz-adv-x="1497" 
d="M1311 1462v-946q0 -250 -151 -393t-419 -143q-265 0 -411 144.5t-146 395.5v942h185v-948q0 -179 95.5 -277t287.5 -98q181 0 278.5 97t97.5 280v946h183zM452 1604q35 46 87 134.5t91 168.5h197v-21q-33 -56 -119.5 -154t-152.5 -153h-103v25zM813 1604q47 65 100 156
t78 147h196v-21q-33 -56 -119.5 -154t-152.5 -153h-102v25z" />
    <glyph glyph-name="uhungarumlaut" unicode="&#x171;" horiz-adv-x="1266" 
d="M344 1098v-707q0 -133 59.5 -197.5t184.5 -64.5q169 0 246 94t77 303v572h181v-1098h-148l-26 145h-9q-49 -79 -139 -122t-209 -43q-198 0 -298.5 95t-100.5 304v719h182zM336 1266q35 46 87 134.5t91 168.5h197v-21q-33 -56 -119.5 -154t-152.5 -153h-103v25zM697 1266
q47 65 100 156t78 147h196v-21q-33 -56 -119.5 -154t-152.5 -153h-102v25z" />
    <glyph glyph-name="Uogonek" unicode="&#x172;" horiz-adv-x="1497" 
d="M1311 1462v-946q0 -250 -151 -393t-419 -143q-265 0 -411 144.5t-146 395.5v942h185v-948q0 -179 95.5 -277t287.5 -98q181 0 278.5 97t97.5 280v946h183zM729 -238q0 -46 24.5 -69t67.5 -23q44 0 99 13v-115q-69 -19 -127 -19q-211 0 -211 193q0 139 160 258h127
q-70 -66 -105 -120.5t-35 -117.5z" />
    <glyph glyph-name="uogonek" unicode="&#x173;" horiz-adv-x="1266" 
d="M344 1098v-707q0 -133 59.5 -197.5t184.5 -64.5q169 0 246 94t77 303v572h181v-1098h-148l-26 145h-9q-49 -79 -139 -122t-209 -43q-198 0 -298.5 95t-100.5 304v719h182zM938 -238q0 -46 24.5 -69t67.5 -23q44 0 99 13v-115q-69 -19 -127 -19q-211 0 -211 193
q0 139 160 258h127q-70 -66 -105 -120.5t-35 -117.5z" />
    <glyph glyph-name="Wcircumflex" unicode="&#x174;" horiz-adv-x="1905" 
d="M1489 0h-186l-285 958q-63 214 -74 289q-16 -115 -70 -295l-276 -952h-186l-387 1462h192l227 -893q46 -175 70 -348q22 164 78 359l258 882h190l269 -889q52 -173 80 -352q16 138 71 350l226 891h192zM602 1602q125 134 176.5 198t75.5 107h184q52 -101 256 -305v-23
h-127q-90 53 -223 184q-131 -128 -219 -184h-123v23z" />
    <glyph glyph-name="wcircumflex" unicode="&#x175;" horiz-adv-x="1610" 
d="M1071 0l-188 618q-26 77 -76 291h-8q-42 -195 -74 -293l-197 -616h-204l-301 1098h186q104 -405 158.5 -616t64.5 -298h8l14 62q31 143 60 233l195 619h196l189 -619q10 -35 21.5 -74.5t21.5 -78t18 -75t12 -65.5h9q9 76 73 326l154 586h184l-305 -1098h-211zM459 1264
q125 134 176.5 198t75.5 107h184q52 -101 256 -305v-23h-127q-90 53 -223 184q-131 -128 -219 -184h-123v23z" />
    <glyph glyph-name="Ycircumflex" unicode="&#x176;" horiz-adv-x="1159" 
d="M580 743l381 719h198l-487 -895v-567h-185v559l-487 903h201zM234 1602q125 134 176.5 198t75.5 107h184q52 -101 256 -305v-23h-127q-90 53 -223 184q-131 -128 -219 -184h-123v23z" />
    <glyph glyph-name="ycircumflex" unicode="&#x177;" horiz-adv-x="1044" 
d="M2 1098h193l237 -625q75 -204 92 -299h8q9 37 41 138.5t54 162.5l223 623h194l-473 -1250q-69 -182 -164 -261t-235 -79q-75 0 -149 17v143q50 -12 120 -12q86 0 146 47.5t98 146.5l57 146zM183 1264q125 134 176.5 198t75.5 107h184q52 -101 256 -305v-23h-127
q-90 53 -223 184q-131 -128 -219 -184h-123v23z" />
    <glyph glyph-name="Ydieresis" unicode="&#x178;" horiz-adv-x="1159" 
d="M580 743l381 719h198l-487 -895v-567h-185v559l-487 903h201zM294 1733q0 53 28 76.5t68 23.5q39 0 68 -23.5t29 -76.5t-29 -78t-68 -25q-40 0 -68 25t-28 78zM679 1733q0 53 28 76.5t66 23.5q39 0 68 -23.5t29 -76.5t-29 -78t-68 -25q-38 0 -66 25t-28 78z" />
    <glyph glyph-name="Zacute" unicode="&#x179;" horiz-adv-x="1171" 
d="M1092 0h-1014v139l770 1159h-746v164h969v-139l-770 -1159h791v-164zM453 1604q38 48 96.5 136.5t98.5 166.5h217v-21q-44 -64 -137 -161t-156 -146h-119v25z" />
    <glyph glyph-name="zacute" unicode="&#x17a;" horiz-adv-x="963" 
d="M883 0h-803v119l590 839h-555v140h753v-135l-581 -824h596v-139zM370 1266q38 48 96.5 136.5t98.5 166.5h217v-21q-44 -64 -137 -161t-156 -146h-119v25z" />
    <glyph glyph-name="Zdotaccent" unicode="&#x17b;" horiz-adv-x="1171" 
d="M1092 0h-1014v139l770 1159h-746v164h969v-139l-770 -1159h791v-164zM477 1733q0 60 30.5 87t75.5 27q42 0 73.5 -27t31.5 -87q0 -59 -31.5 -87t-73.5 -28q-45 0 -75.5 28t-30.5 87z" />
    <glyph glyph-name="zdotaccent" unicode="&#x17c;" horiz-adv-x="963" 
d="M883 0h-803v119l590 839h-555v140h753v-135l-581 -824h596v-139zM379 1395q0 60 30.5 87t75.5 27q42 0 73.5 -27t31.5 -87q0 -59 -31.5 -87t-73.5 -28q-45 0 -75.5 28t-30.5 87z" />
    <glyph glyph-name="Zcaron" unicode="&#x17d;" horiz-adv-x="1171" 
d="M1092 0h-1014v139l770 1159h-746v164h969v-139l-770 -1159h791v-164zM243 1907h123q114 -74 219 -189q126 126 223 189h127v-27q-205 -205 -256 -301h-184q-60 102 -252 301v27z" />
    <glyph glyph-name="zcaron" unicode="&#x17e;" horiz-adv-x="963" 
d="M883 0h-803v119l590 839h-555v140h753v-135l-581 -824h596v-139zM140 1569h123q114 -74 219 -189q126 126 223 189h127v-27q-205 -205 -256 -301h-184q-60 102 -252 301v27z" />
    <glyph glyph-name="longs" unicode="&#x17f;" horiz-adv-x="668" 
d="M535 1417q-94 0 -137.5 -58.5t-43.5 -176.5v-1182h-180v1182q0 385 363 385q100 0 204 -39l-47 -142q-90 31 -159 31z" />
    <glyph glyph-name="florin" unicode="&#x192;" horiz-adv-x="1171" 
d="M330 -492q-73 0 -140 19v149q70 -18 129 -18q92 0 130 48t38 163v962h-215v84l215 62v133q0 193 81 283t266 90q93 0 210 -43l-45 -140q-102 33 -159 33q-94 0 -133 -50t-39 -171v-141h276v-140h-272v-962q0 -187 -82 -274t-260 -87z" />
    <glyph glyph-name="Aringacute" unicode="&#x1fa;" horiz-adv-x="1311" 
d="M881 1432q0 -65 -27 -112t-72 -73l529 -1247h-191l-168 393h-604l-160 -393h-188l528 1245q-100 54 -100 185q0 98 60 157.5t163 59.5t166.5 -60t63.5 -155zM899 557l-172 424q-27 61 -74 207q-31 -107 -71 -211l-170 -420h487zM555 1716q57 67 104.5 137t69.5 109h217
v-16q-30 -42 -118.5 -124t-151.5 -124h-121v18zM766 1430q0 55 -32 84.5t-83 29.5q-49 0 -81.5 -29.5t-32.5 -84.5q0 -54 29.5 -84.5t84.5 -30.5q51 0 83 29.5t32 85.5z" />
    <glyph glyph-name="aringacute" unicode="&#x1fb;" horiz-adv-x="1149" 
d="M852 0l-35 156h-8q-82 -103 -163.5 -139.5t-205.5 -36.5q-162 0 -254 85t-92 240q0 334 527 350l186 7v65q0 125 -54 184.5t-173 59.5q-87 0 -164.5 -26t-145.5 -58l-55 135q83 44 181 69t194 25q199 0 296 -88t97 -280v-748h-131zM481 125q151 0 237.5 81.5t86.5 231.5
v99l-162 -7q-189 -7 -275.5 -60t-86.5 -167q0 -86 52.5 -132t147.5 -46zM811 1460q0 -101 -62.5 -160t-164.5 -59q-103 0 -163.5 59t-60.5 158q0 97 60 156t164 59q101 0 164 -59t63 -154zM698 1458q0 54 -32.5 84.5t-81.5 30.5q-50 0 -82.5 -30.5t-32.5 -84.5t29.5 -84.5
t85.5 -30.5q51 0 82.5 30.5t31.5 84.5zM471 1753v16q46 42 99 102t75 91h268v-12q-21 -24 -103 -76.5t-210 -120.5h-129z" />
    <glyph glyph-name="AEacute" unicode="&#x1fc;" horiz-adv-x="1804" 
d="M1681 0h-761v453h-512l-220 -453h-190l694 1462h989v-162h-577v-456h538v-160h-538v-522h577v-162zM479 616h441v682h-119zM983 1604q38 48 96.5 136.5t98.5 166.5h217v-21q-44 -64 -137 -161t-156 -146h-119v25z" />
    <glyph glyph-name="aeacute" unicode="&#x1fd;" horiz-adv-x="1769" 
d="M94 305q0 334 500 350l184 7v69q0 122 -56.5 181t-172.5 59q-139 0 -307 -84l-56 135q71 40 172.5 67t204.5 27q128 0 210.5 -41.5t125.5 -134.5q54 85 139 131.5t197 46.5q197 0 313.5 -135t116.5 -356v-111h-702q8 -383 317 -383q88 0 165 16.5t171 59.5v-158
q-88 -39 -164 -55t-178 -16q-291 0 -416 231q-82 -124 -181 -177.5t-235 -53.5q-164 0 -256 85.5t-92 239.5zM281 303q0 -92 52 -135t138 -43q140 0 221.5 81.5t81.5 231.5v99l-153 -7q-177 -7 -258.5 -60t-81.5 -167zM1233 971q-119 0 -187 -80.5t-79 -233.5h508
q0 152 -62.5 233t-179.5 81zM782 1266q38 48 96.5 136.5t98.5 166.5h217v-21q-44 -64 -137 -161t-156 -146h-119v25z" />
    <glyph glyph-name="Oslashacute" unicode="&#x1fe;" horiz-adv-x="1599" 
d="M1475 733q0 -351 -177.5 -552t-496.5 -201q-232 0 -379 96l-98 -139l-125 81l106 152q-180 198 -180 565q0 357 175.5 553.5t502.5 196.5q204 0 364 -92l95 135l124 -84l-104 -146q193 -203 193 -565zM1280 733q0 264 -104 414l-656 -930q114 -78 281 -78q235 0 357 150
t122 444zM319 733q0 -259 97 -405l653 923q-109 72 -266 72q-238 0 -361 -150.5t-123 -439.5zM670 1604q38 48 96.5 136.5t98.5 166.5h217v-21q-44 -64 -137 -161t-156 -146h-119v25z" />
    <glyph glyph-name="oslashacute" unicode="&#x1ff;" horiz-adv-x="1239" 
d="M1128 551q0 -269 -136 -420t-376 -151q-151 0 -264 67l-82 -115l-118 80l92 127q-131 156 -131 412q0 268 134 417.5t376 149.5q151 0 268 -74l80 115l121 -78l-93 -129q129 -155 129 -401zM299 551q0 -166 49 -262l451 626q-73 52 -181 52q-319 0 -319 -416zM942 551
q0 152 -47 252l-451 -627q69 -47 177 -47q157 0 239 107.5t82 314.5zM475 1266q38 48 96.5 136.5t98.5 166.5h217v-21q-44 -64 -137 -161t-156 -146h-119v25z" />
    <glyph glyph-name="Scommaaccent" unicode="&#x218;" horiz-adv-x="1124" 
d="M1028 391q0 -191 -138 -301t-384 -110q-260 0 -402 69v176q93 -40 203.5 -63t206.5 -23q164 0 247 63t83 173q0 73 -30 120t-100.5 88t-213.5 93q-203 74 -290 174.5t-87 259.5q0 171 128.5 272t338.5 101q219 0 403 -82l-57 -158q-188 78 -350 78q-130 0 -203.5 -56
t-73.5 -157q0 -72 28.5 -119.5t92 -86.5t199.5 -89q163 -60 243 -116.5t118 -130t38 -175.5zM390 -428q22 51 49 144t35 159h178v-18q-16 -63 -64.5 -156.5t-99.5 -153.5h-98v25z" />
    <glyph glyph-name="scommaaccent" unicode="&#x219;" horiz-adv-x="981" 
d="M889 303q0 -154 -115 -238.5t-323 -84.5q-217 0 -345 69v164q181 -88 349 -88q136 0 198 44t62 118q0 65 -59.5 110t-211.5 103q-155 60 -218 102.5t-92.5 95.5t-29.5 129q0 135 110 213t302 78q187 0 350 -74l-61 -143q-167 70 -301 70q-112 0 -170 -35.5t-58 -97.5
q0 -60 50 -99.5t233 -109.5q137 -51 202.5 -95t96.5 -99t31 -132zM331 -428q22 51 49 144t35 159h178v-18q-16 -63 -64.5 -156.5t-99.5 -153.5h-98v25z" />
    <glyph glyph-name="circumflex" unicode="&#x2c6;" horiz-adv-x="1214" 
d="M260 1264q125 134 176.5 198t75.5 107h184q52 -101 256 -305v-23h-127q-90 53 -223 184q-131 -128 -219 -184h-123v23z" />
    <glyph glyph-name="caron" unicode="&#x2c7;" horiz-adv-x="1214" 
d="M260 1569h123q114 -74 219 -189q126 126 223 189h127v-27q-205 -205 -256 -301h-184q-60 102 -252 301v27z" />
    <glyph glyph-name="uni02C9" unicode="&#x2c9;" horiz-adv-x="1206" 
d="M299 1386h608v-145h-608v145z" />
    <glyph glyph-name="breve" unicode="&#x2d8;" horiz-adv-x="1214" 
d="M600 1241q-141 0 -222.5 69t-90.5 206h110q8 -71 50 -100.5t157 -29.5q101 0 150 31.5t57 98.5h113q-13 -131 -99 -203t-225 -72z" />
    <glyph glyph-name="dotaccent" unicode="&#x2d9;" horiz-adv-x="528" 
d="M160 1395q0 60 30.5 87t75.5 27q42 0 73.5 -27t31.5 -87q0 -59 -31.5 -87t-73.5 -28q-45 0 -75.5 28t-30.5 87z" />
    <glyph glyph-name="ring" unicode="&#x2da;" horiz-adv-x="1182" 
d="M815 1460q0 -101 -62.5 -160t-164.5 -59q-103 0 -163 58.5t-60 158.5q0 98 60 156.5t163 58.5q101 0 164 -59t63 -154zM702 1458q0 54 -32.5 84.5t-81.5 30.5q-50 0 -82.5 -30.5t-32.5 -84.5t29.5 -84.5t85.5 -30.5q51 0 82.5 30.5t31.5 84.5z" />
    <glyph glyph-name="ogonek" unicode="&#x2db;" horiz-adv-x="406" 
d="M182 -238q0 -46 24.5 -69t67.5 -23q44 0 99 13v-115q-69 -19 -127 -19q-211 0 -211 193q0 139 160 258h127q-70 -66 -105 -120.5t-35 -117.5z" />
    <glyph glyph-name="tilde" unicode="&#x2dc;" horiz-adv-x="1214" 
d="M786 1243q-43 0 -84 18.5t-80.5 40t-76 40t-70.5 18.5q-49 0 -74 -29.5t-39 -89.5h-104q12 122 70 192t155 70q45 0 87.5 -18.5t81.5 -40t75 -40t68 -18.5q48 0 72.5 29.5t39.5 89.5h103q-12 -119 -70 -190.5t-154 -71.5z" />
    <glyph glyph-name="hungarumlaut" unicode="&#x2dd;" horiz-adv-x="1184" 
d="M223 1266q35 46 87 134.5t91 168.5h197v-21q-33 -56 -119.5 -154t-152.5 -153h-103v25zM584 1266q47 65 100 156t78 147h196v-21q-33 -56 -119.5 -154t-152.5 -153h-102v25z" />
    <glyph glyph-name="tonos" unicode="&#x384;" horiz-adv-x="1182" 
d="M504 1270q29 75 55.5 190.5t36.5 188.5h192v-23q-15 -63 -67.5 -180t-108.5 -205h-108v29z" />
    <glyph glyph-name="dieresistonos" unicode="&#x385;" horiz-adv-x="1182" 
d="M510 1413q56 143 92 303h197v-20q-29 -59 -85.5 -145.5t-117.5 -161.5h-86v24zM272 1395q0 100 95 100q38 0 66 -23.5t28 -76.5t-28 -78t-66 -25q-41 0 -68 25t-27 78zM721 1395q0 100 94 100q37 0 65.5 -23.5t28.5 -76.5q0 -45 -25 -74t-69 -29q-42 0 -68 25t-26 78z
" />
    <glyph glyph-name="Alphatonos" unicode="&#x386;" horiz-adv-x="1309" 
d="M1116 0l-176 453h-580l-174 -453h-186l571 1468h166l570 -1468h-191zM885 616l-164 443l-70 219q-30 -120 -63 -219l-166 -443h463zM20 1165q29 75 55.5 190.5t36.5 188.5h192v-23q-15 -63 -67.5 -180t-108.5 -205h-108v29z" />
    <glyph glyph-name="anoteleia" unicode="&#x387;" horiz-adv-x="549" 
d="M147 723q0 65 32.5 102t92.5 37q62 0 95.5 -37.5t33.5 -101.5t-34 -101.5t-95 -37.5q-59 0 -92 37t-33 102z" />
    <glyph glyph-name="Epsilontonos" unicode="&#x388;" horiz-adv-x="1264" 
d="M1141 0h-817v1462h817v-162h-633v-456h596v-160h-596v-522h633v-162zM-48 1165q29 75 55.5 190.5t36.5 188.5h192v-23q-15 -63 -67.5 -180t-108.5 -205h-108v29z" />
    <glyph glyph-name="Etatonos" unicode="&#x389;" horiz-adv-x="1665" 
d="M1464 0h-184v682h-750v-682h-184v1462h184v-618h750v618h184v-1462zM-48 1165q29 75 55.5 190.5t36.5 188.5h192v-23q-15 -63 -67.5 -180t-108.5 -205h-108v29z" />
    <glyph glyph-name="Iotatonos" unicode="&#x38a;" horiz-adv-x="932" 
d="M848 0h-528v106l172 39v1170l-172 41v106h528v-106l-172 -41v-1170l172 -39v-106zM-34 1165q29 75 55.5 190.5t36.5 188.5h192v-23q-15 -63 -67.5 -180t-108.5 -205h-108v29z" />
    <glyph glyph-name="Omicrontonos" unicode="&#x38c;" horiz-adv-x="1667" 
d="M1543 733q0 -351 -177.5 -552t-496.5 -201q-323 0 -499.5 197.5t-176.5 557.5q0 357 175.5 553.5t502.5 196.5q318 0 495 -199.5t177 -552.5zM387 733q0 -290 123 -442t359 -152q235 0 357 150t122 444q0 293 -121 441.5t-356 148.5q-238 0 -361 -150.5t-123 -439.5z
M-30 1165q29 75 55.5 190.5t36.5 188.5h192v-23q-15 -63 -67.5 -180t-108.5 -205h-108v29z" />
    <glyph glyph-name="Upsilontonos" unicode="&#x38e;" horiz-adv-x="1427" 
d="M848 743l381 719h198l-487 -895v-567h-185v559l-487 903h201zM-50 1165q29 75 55.5 190.5t36.5 188.5h192v-23q-15 -63 -67.5 -180t-108.5 -205h-108v29z" />
    <glyph glyph-name="Omegatonos" unicode="&#x38f;" horiz-adv-x="1667" 
d="M867 1323q-234 0 -354.5 -127.5t-120.5 -374.5q0 -224 82.5 -385t259.5 -289v-147h-590v162h364q-151 116 -231 288t-80 377q0 308 178 483t492 175q318 0 495 -174t177 -482q0 -206 -80.5 -379t-229.5 -288h363v-162h-590v147q177 127 260.5 290.5t83.5 383.5
q0 246 -121.5 374t-357.5 128zM-30 1165q29 75 55.5 190.5t36.5 188.5h192v-23q-15 -63 -67.5 -180t-108.5 -205h-108v29z" />
    <glyph glyph-name="iotadieresistonos" unicode="&#x390;" horiz-adv-x="709" 
d="M346 1098v-774q0 -99 37 -148t121 -49q44 0 93 7.5t75 15.5v-138q-27 -12 -83 -22t-110 -10q-164 0 -237.5 85t-73.5 257v776h178zM212 1413q56 143 92 303h197v-20q-29 -59 -85.5 -145.5t-117.5 -161.5h-86v24zM-26 1395q0 100 95 100q38 0 66 -23.5t28 -76.5t-28 -78
t-66 -25q-41 0 -68 25t-27 78zM423 1395q0 100 94 100q37 0 65.5 -23.5t28.5 -76.5q0 -45 -25 -74t-69 -29q-42 0 -68 25t-26 78z" />
    <glyph glyph-name="Alpha" unicode="&#x391;" horiz-adv-x="1309" 
d="M1116 0l-176 453h-580l-174 -453h-186l571 1468h166l570 -1468h-191zM885 616l-164 443l-70 219q-30 -120 -63 -219l-166 -443h463z" />
    <glyph glyph-name="Beta" unicode="&#x392;" horiz-adv-x="1331" 
d="M199 1462h417q294 0 424.5 -87.5t130.5 -274.5q0 -130 -71 -214.5t-207 -109.5v-10q169 -29 248.5 -117t79.5 -233q0 -196 -134 -306t-374 -110h-514v1462zM383 840h270q172 0 250 55t78 184q0 120 -85.5 173t-270.5 53h-242v-465zM383 686v-530h295q176 0 261 68t85 206
q0 131 -90 193.5t-270 62.5h-281z" />
    <glyph glyph-name="Gamma" unicode="&#x393;" horiz-adv-x="1073" 
d="M1024 1462v-164h-641v-1298h-184v1462h825z" />
    <glyph glyph-name="Delta" unicode="&#x394;" horiz-adv-x="1190" 
d="M41 113l461 1349h184l463 -1351v-111h-1108v113zM592 1262q-51 -200 -94 -330l-260 -770h708l-256 762q-67 201 -98 338z" />
    <glyph glyph-name="Epsilon" unicode="&#x395;" horiz-adv-x="1139" 
d="M1016 0h-817v1462h817v-162h-633v-456h596v-160h-596v-522h633v-162z" />
    <glyph glyph-name="Zeta" unicode="&#x396;" horiz-adv-x="1171" 
d="M1092 0h-1014v139l770 1159h-746v164h969v-139l-770 -1159h791v-164z" />
    <glyph glyph-name="Eta" unicode="&#x397;" horiz-adv-x="1518" 
d="M1317 0h-184v682h-750v-682h-184v1462h184v-618h750v618h184v-1462z" />
    <glyph glyph-name="Theta" unicode="&#x398;" horiz-adv-x="1599" 
d="M489 823h619v-159h-619v159zM1475 733q0 -351 -178.5 -552t-497.5 -201q-325 0 -500.5 197t-175.5 558q0 357 175.5 553.5t502.5 196.5q317 0 495.5 -198.5t178.5 -553.5zM317 733q0 -292 123 -443t359 -151q239 0 360 150.5t121 443.5t-122 440.5t-357 147.5
q-237 0 -360.5 -148t-123.5 -440z" />
    <glyph glyph-name="Iota" unicode="&#x399;" horiz-adv-x="694" 
d="M610 0h-528v106l172 39v1170l-172 41v106h528v-106l-172 -41v-1170l172 -39v-106z" />
    <glyph glyph-name="Kappa" unicode="&#x39a;" horiz-adv-x="1268" 
d="M1268 0h-217l-519 698l-149 -131v-567h-184v1462h184v-721l126 139l521 582h215l-579 -637z" />
    <glyph glyph-name="Lambda" unicode="&#x39b;" horiz-adv-x="1245" 
d="M717 1462l526 -1462h-194l-324 922q-73 207 -107 340q-20 -99 -102 -338l-321 -924h-195l524 1462h193z" />
    <glyph glyph-name="Mu" unicode="&#x39c;" horiz-adv-x="1858" 
d="M844 0l-482 1282h-8q15 -160 15 -395v-887h-170v1462h272l451 -1198h8l459 1198h270v-1462h-182v899q0 150 14 381h-8l-488 -1280h-151z" />
    <glyph glyph-name="Nu" unicode="&#x39d;" horiz-adv-x="1556" 
d="M1358 0h-215l-783 1214h-8l5 -81q12 -182 12 -316v-817h-170v1462h213l45 -71l480 -742l255 -397h8q-2 24 -8 171.5t-6 213.5v825h172v-1462z" />
    <glyph glyph-name="Xi" unicode="&#x39e;" horiz-adv-x="1137" 
d="M195 844h745v-160h-745v160zM113 1462h909v-162h-909v162zM1063 162v-162h-991v162h991z" />
    <glyph glyph-name="Omicron" unicode="&#x39f;" horiz-adv-x="1599" 
d="M1475 733q0 -351 -177.5 -552t-496.5 -201q-323 0 -499.5 197.5t-176.5 557.5q0 357 175.5 553.5t502.5 196.5q318 0 495 -199.5t177 -552.5zM319 733q0 -290 123 -442t359 -152q235 0 357 150t122 444q0 293 -121 441.5t-356 148.5q-238 0 -361 -150.5t-123 -439.5z" />
    <glyph glyph-name="Pi" unicode="&#x3a0;" horiz-adv-x="1497" 
d="M1296 0h-182v1300h-731v-1300h-184v1462h1097v-1462z" />
    <glyph glyph-name="Rho" unicode="&#x3a1;" horiz-adv-x="1239" 
d="M1135 1032q0 -224 -153 -343.5t-431 -119.5h-168v-569h-184v1462h387q549 0 549 -430zM383 727h147q218 0 316 70.5t98 226.5q0 141 -91 211t-284 70h-186v-578z" />
    <glyph glyph-name="Sigma" unicode="&#x3a3;" horiz-adv-x="1167" 
d="M74 0v152l479 612l-467 545v153h973v-164h-666l-96 2l461 -534l-482 -606l334 2h508v-162h-1044z" />
    <glyph glyph-name="Tau" unicode="&#x3a4;" horiz-adv-x="1139" 
d="M662 0h-185v1300h-457v162h1096v-162h-454v-1300z" />
    <glyph glyph-name="Upsilon" unicode="&#x3a5;" horiz-adv-x="1159" 
d="M580 743l381 719h198l-487 -895v-567h-185v559l-487 903h201z" />
    <glyph glyph-name="Phi" unicode="&#x3a6;" horiz-adv-x="1647" 
d="M731 1483h182v-180h68q174 0 300.5 -69.5t192.5 -193.5t66 -282q0 -165 -74 -294t-205 -194t-309 -65h-39v-225h-182v225h-43q-178 0 -308 66.5t-203 195.5t-73 291q0 155 68 279.5t195 195t299 70.5h65v180zM913 356h25q197 0 306.5 107.5t109.5 296.5
q0 180 -101.5 283.5t-283.5 103.5h-56v-791zM731 1147h-55q-181 0 -283 -104.5t-102 -282.5q0 -189 109 -296.5t309 -107.5h22v791z" />
    <glyph glyph-name="Chi" unicode="&#x3a7;" horiz-adv-x="1200" 
d="M1192 0h-209l-387 635l-393 -635h-195l486 762l-455 700h205l358 -573l361 573h194l-452 -696z" />
    <glyph glyph-name="Psi" unicode="&#x3a8;" horiz-adv-x="1647" 
d="M911 0h-180v444h-45q-186 0 -314.5 65.5t-195.5 185.5t-67 284v483h184v-479q0 -381 412 -381h26v860h180v-860h29q410 0 410 377v483h188v-481q0 -166 -71 -289.5t-200.5 -185.5t-308.5 -62h-47v-444z" />
    <glyph glyph-name="Omega" unicode="&#x3a9;" horiz-adv-x="1602" 
d="M801 1323q-234 0 -354.5 -127.5t-120.5 -374.5q0 -224 82.5 -385t259.5 -289v-147h-590v162h364q-151 116 -231 288t-80 377q0 308 178 483t492 175q318 0 495 -174t177 -482q0 -206 -80.5 -379t-229.5 -288h363v-162h-590v147q177 127 260.5 290.5t83.5 383.5
q0 246 -121.5 374t-357.5 128z" />
    <glyph glyph-name="Iotadieresis" unicode="&#x3aa;" horiz-adv-x="694" 
d="M610 0h-528v106l172 39v1170l-172 41v106h528v-106l-172 -41v-1170l172 -39v-106zM60 1733q0 53 28 76.5t68 23.5q39 0 68 -23.5t29 -76.5t-29 -78t-68 -25q-40 0 -68 25t-28 78zM445 1733q0 53 28 76.5t66 23.5q39 0 68 -23.5t29 -76.5t-29 -78t-68 -25q-38 0 -66 25
t-28 78z" />
    <glyph glyph-name="Upsilondieresis" unicode="&#x3ab;" horiz-adv-x="1159" 
d="M580 743l381 719h198l-487 -895v-567h-185v559l-487 903h201zM292 1733q0 53 28 76.5t68 23.5q39 0 68 -23.5t29 -76.5t-29 -78t-68 -25q-40 0 -68 25t-28 78zM677 1733q0 53 28 76.5t66 23.5q39 0 68 -23.5t29 -76.5t-29 -78t-68 -25q-38 0 -66 25t-28 78z" />
    <glyph glyph-name="alphatonos" unicode="&#x3ac;" horiz-adv-x="1260" 
d="M594 129q165 0 238 95t73 311v12q0 225 -74.5 322.5t-238.5 97.5q-293 0 -293 -424q0 -206 70.5 -310t224.5 -104zM563 -20q-212 0 -331 149t-119 416q0 274 122 423.5t345 149.5q121 0 201 -42t134 -126h13q24 92 65 148h142q-24 -69 -38 -198.5t-14 -231.5v-426
q0 -63 24.5 -89t59.5 -26q32 0 62 10v-131q-16 -9 -48.5 -17.5t-66.5 -8.5q-87 0 -132 43t-62 124h-15q-60 -87 -142.5 -127t-199.5 -40zM535 1270q29 75 55.5 190.5t36.5 188.5h192v-23q-15 -63 -67.5 -180t-108.5 -205h-108v29z" />
    <glyph glyph-name="epsilontonos" unicode="&#x3ad;" horiz-adv-x="989" 
d="M727 645v-147h-149q-310 0 -310 -189q0 -89 74 -135.5t217 -46.5q85 0 170.5 19.5t185.5 66.5v-158q-139 -75 -366 -75q-220 0 -340.5 85.5t-120.5 233.5q0 99 56.5 164.5t187.5 103.5v11q-99 28 -152 92t-53 157q0 135 115.5 213t306.5 78q111 0 197.5 -18.5
t173.5 -59.5l-68 -143q-99 44 -165 58t-140 14q-248 0 -248 -156q0 -168 313 -168h115zM458 1270q29 75 55.5 190.5t36.5 188.5h192v-23q-15 -63 -67.5 -180t-108.5 -205h-108v29z" />
    <glyph glyph-name="etatonos" unicode="&#x3ae;" horiz-adv-x="1266" 
d="M922 -492v1194q0 132 -59 198.5t-187 66.5q-169 0 -245.5 -95.5t-76.5 -302.5v-569h-180v1098h145l27 -150h10q51 81 143 125.5t203 44.5q202 0 300 -98t98 -305v-1207h-178zM567 1270q29 75 55.5 190.5t36.5 188.5h192v-23q-15 -63 -67.5 -180t-108.5 -205h-108v29z" />
    <glyph glyph-name="iotatonos" unicode="&#x3af;" horiz-adv-x="709" 
d="M346 1098v-774q0 -99 37 -148t121 -49q44 0 93 7.5t75 15.5v-138q-27 -12 -83 -22t-110 -10q-164 0 -237.5 85t-73.5 257v776h178zM196 1270q29 75 55.5 190.5t36.5 188.5h192v-23q-15 -63 -67.5 -180t-108.5 -205h-108v29z" />
    <glyph glyph-name="upsilondieresistonos" unicode="&#x3b0;" horiz-adv-x="1255" 
d="M629 -20q-234 0 -350.5 125.5t-116.5 392.5v600h180v-594q0 -377 301 -377q163 0 241.5 117t78.5 362q0 128 -13.5 232.5t-50.5 259.5h180q39 -149 52.5 -262.5t13.5 -237.5q0 -318 -130.5 -468t-385.5 -150zM569 1413q56 143 92 303h197v-20q-29 -59 -85.5 -145.5
t-117.5 -161.5h-86v24zM331 1395q0 100 95 100q38 0 66 -23.5t28 -76.5t-28 -78t-66 -25q-41 0 -68 25t-27 78zM780 1395q0 100 94 100q37 0 65.5 -23.5t28.5 -76.5q0 -45 -25 -74t-69 -29q-42 0 -68 25t-26 78z" />
    <glyph glyph-name="alpha" unicode="&#x3b1;" horiz-adv-x="1260" 
d="M594 129q165 0 238 95t73 311v12q0 225 -74.5 322.5t-238.5 97.5q-293 0 -293 -424q0 -206 70.5 -310t224.5 -104zM563 -20q-212 0 -331 149t-119 416q0 274 122 423.5t345 149.5q121 0 201 -42t134 -126h13q24 92 65 148h142q-24 -69 -38 -198.5t-14 -231.5v-426
q0 -63 24.5 -89t59.5 -26q32 0 62 10v-131q-16 -9 -48.5 -17.5t-66.5 -8.5q-87 0 -132 43t-62 124h-15q-60 -87 -142.5 -127t-199.5 -40z" />
    <glyph glyph-name="beta" unicode="&#x3b2;" horiz-adv-x="1292" 
d="M664 1567q221 0 346 -104t125 -287q0 -294 -312 -345v-8q187 -21 282 -120.5t95 -286.5q0 -208 -130.5 -322t-369.5 -114q-111 0 -191.5 16.5t-154.5 52.5v-541h-180v1588q0 224 127 347.5t363 123.5zM659 1417q-305 0 -305 -330v-876q71 -37 148.5 -60.5t181.5 -23.5
q336 0 336 301q0 152 -92 231.5t-264 79.5h-109v152h88q149 0 228 71t79 205q0 121 -76 185.5t-215 64.5z" />
    <glyph glyph-name="gamma" unicode="&#x3b3;" horiz-adv-x="1061" 
d="M545 -492h-195q0 91 30 236t75 268l-445 1086h187l231 -576q37 -93 69.5 -192.5t41.5 -147.5h8q6 40 38.5 147.5t61.5 184.5l217 584h187l-406 -1071q-45 -117 -72.5 -265t-27.5 -254z" />
    <glyph glyph-name="delta" unicode="&#x3b4;" horiz-adv-x="1237" 
d="M539 934q-139 79 -196.5 158.5t-57.5 177.5q0 132 99.5 209t268.5 77q104 0 199 -23t223 -87l-78 -141q-101 56 -183 80t-169 24q-82 0 -130 -38t-48 -103q0 -69 54.5 -122.5t219.5 -144.5q213 -117 299 -239t86 -279q0 -236 -135 -369.5t-377 -133.5q-229 0 -366 124
t-137 334q0 179 112 307.5t316 188.5zM940 481q0 124 -59.5 213t-198.5 162q-189 -45 -286 -152t-97 -268q0 -138 85 -222.5t230 -84.5q158 0 242 90.5t84 261.5z" />
    <glyph glyph-name="epsilon" unicode="&#x3b5;" horiz-adv-x="989" 
d="M727 645v-147h-149q-310 0 -310 -189q0 -89 74 -135.5t217 -46.5q85 0 170.5 19.5t185.5 66.5v-158q-139 -75 -366 -75q-220 0 -340.5 85.5t-120.5 233.5q0 99 56.5 164.5t187.5 103.5v11q-99 28 -152 92t-53 157q0 135 115.5 213t306.5 78q111 0 197.5 -18.5
t173.5 -59.5l-68 -143q-99 44 -165 58t-140 14q-248 0 -248 -156q0 -168 313 -168h115z" />
    <glyph glyph-name="zeta" unicode="&#x3b6;" horiz-adv-x="991" 
d="M936 -82q0 -145 -129 -317h-178q127 169 127 270q0 40 -24.5 62.5t-79.5 41.5t-144 35q-202 35 -298.5 143t-96.5 306q0 103 23 194t65 174t102.5 162.5t139 161.5t280.5 264q-7 -1 -35.5 -2t-70.5 -2.5t-197 -3.5h-246v149h762v-135q-215 -180 -358.5 -341.5
t-211 -303.5t-67.5 -305q0 -96 29.5 -155t91 -94.5t227.5 -69.5q152 -31 220.5 -87.5t68.5 -146.5z" />
    <glyph glyph-name="eta" unicode="&#x3b7;" horiz-adv-x="1266" 
d="M922 -492v1194q0 132 -59 198.5t-187 66.5q-169 0 -245.5 -95.5t-76.5 -302.5v-569h-180v1098h145l27 -150h10q51 81 143 125.5t203 44.5q202 0 300 -98t98 -305v-1207h-178z" />
    <glyph glyph-name="theta" unicode="&#x3b8;" horiz-adv-x="1219" 
d="M1106 772q0 -402 -124.5 -597t-375.5 -195q-244 0 -368.5 201.5t-124.5 590.5q0 406 123 600.5t370 194.5t373.5 -202t126.5 -593zM606 127q160 0 235.5 148t82.5 444h-629q4 -305 79.5 -448.5t231.5 -143.5zM606 1419q-150 0 -225.5 -133.5t-85.5 -417.5h627
q-13 288 -90 419.5t-226 131.5z" />
    <glyph glyph-name="iota" unicode="&#x3b9;" horiz-adv-x="709" 
d="M346 1098v-774q0 -99 37 -148t121 -49q44 0 93 7.5t75 15.5v-138q-27 -12 -83 -22t-110 -10q-164 0 -237.5 85t-73.5 257v776h178z" />
    <glyph glyph-name="kappa" unicode="&#x3ba;" horiz-adv-x="1094" 
d="M825 1098h217l-415 -486l448 -612h-215l-360 496l-135 -111v-385h-191v1098h191v-285q0 -139 -13 -276l84 102z" />
    <glyph glyph-name="lambda" unicode="&#x3bb;" horiz-adv-x="1110" 
d="M-12 0l473 1077l-55 154q-34 89 -58.5 122t-58 49.5t-82.5 16.5q-62 0 -115 -12v145q68 17 135 17q94 0 156 -30t107.5 -94.5t101.5 -219.5l354 -987q20 -57 43.5 -84t59.5 -27q24 0 61 10v-133q-50 -24 -117 -24q-74 0 -119 37t-77 128l-150 420q-85 243 -102 326h-8
q-33 -126 -113 -316l-250 -575h-186z" />
    <glyph glyph-name="mu" unicode="&#x3bc;" horiz-adv-x="1276" 
d="M354 389q0 -260 246 -260q169 0 245.5 93.5t76.5 303.5v572h180v-1098h-146l-28 147h-10q-109 -167 -330 -167q-146 0 -236 92h-8q10 -74 10 -244v-320h-180v1590h180v-709z" />
    <glyph glyph-name="nu" unicode="&#x3bd;" horiz-adv-x="1120" 
d="M0 1098h186l220 -592q13 -37 30.5 -85.5t34.5 -98t31 -95t22 -75.5h8q172 176 249 394.5t77 551.5h178q0 -364 -103.5 -618t-328.5 -480h-194z" />
    <glyph glyph-name="xi" unicode="&#x3be;" horiz-adv-x="977" 
d="M111 422q0 137 77.5 241t208.5 146v12q-217 62 -217 279q0 115 70 193.5t233 125.5q-144 -12 -247 -12h-62v149h709v-139h-54q-130 0 -240 -39t-172.5 -110t-62.5 -164q0 -112 81 -164.5t253 -52.5h170v-137h-176q-174 0 -278.5 -85t-104.5 -229q0 -78 25 -126.5t71 -78
t112 -47t148 -34.5q149 -33 215 -88t66 -144q0 -138 -123 -317h-170q55 74 88 148t33 124q0 54 -59.5 83.5t-190.5 53.5q-200 34 -301.5 134.5t-101.5 277.5z" />
    <glyph glyph-name="omicron" unicode="&#x3bf;" horiz-adv-x="1239" 
d="M1128 551q0 -269 -136 -420t-376 -151q-149 0 -264 69.5t-177 199.5t-62 302q0 268 134 417.5t376 149.5q232 0 368.5 -152.5t136.5 -414.5zM299 551q0 -207 81.5 -314.5t240.5 -107.5q157 0 239 107.5t82 314.5t-82.5 311.5t-241.5 104.5q-319 0 -319 -416z" />
    <glyph glyph-name="pi" unicode="&#x3c0;" horiz-adv-x="1350" 
d="M1163 127q53 0 90 20v-141q-49 -26 -135 -26q-227 0 -227 262v706h-465v-948h-178v948h-223v78l147 72h1112v-150h-215v-694q0 -127 94 -127z" />
    <glyph glyph-name="rho" unicode="&#x3c1;" horiz-adv-x="1239" 
d="M1126 549q0 -272 -127 -420.5t-358 -148.5q-176 0 -297 92h-10q10 -68 10 -273v-291h-182v1055q0 267 126.5 411t362.5 144q219 0 347 -152t128 -417zM643 967q-153 0 -226 -101t-73 -305v-332q116 -100 295 -100q161 0 232 106t71 314q0 210 -70.5 314t-228.5 104z" />
    <glyph glyph-name="sigma1" unicode="&#x3c2;" horiz-adv-x="991" 
d="M299 520q0 -128 28.5 -192t97.5 -103t228 -73q145 -31 214 -86.5t69 -147.5q0 -144 -123 -317h-170q52 69 87.5 144.5t35.5 127.5q0 38 -23.5 60.5t-80 42.5t-146.5 36q-208 40 -305.5 166t-97.5 340q0 287 136.5 443.5t391.5 156.5q82 0 161 -17t136 -42l-57 -150
q-140 52 -248 52q-170 0 -252 -106.5t-82 -334.5z" />
    <glyph glyph-name="sigma" unicode="&#x3c3;" horiz-adv-x="1264" 
d="M1126 504q0 -156 -61.5 -275.5t-177 -184t-271.5 -64.5q-237 0 -370 144.5t-133 399.5q0 574 596 574h505v-150h-266q178 -167 178 -444zM299 524q0 -193 82.5 -294t239.5 -101q155 0 238 96t83 275q0 261 -170 448h-63q-218 0 -314 -101.5t-96 -322.5z" />
    <glyph glyph-name="tau" unicode="&#x3c4;" horiz-adv-x="981" 
d="M926 1098v-152h-428v-610q0 -213 196 -213q104 0 174 22v-135q-39 -15 -95.5 -24t-104.5 -9q-183 0 -268 85.5t-85 254.5v629h-295v80l150 72h756z" />
    <glyph glyph-name="upsilon" unicode="&#x3c5;" horiz-adv-x="1255" 
d="M629 -20q-234 0 -350.5 125.5t-116.5 392.5v600h180v-594q0 -377 301 -377q163 0 241.5 117t78.5 362q0 128 -13.5 232.5t-50.5 259.5h180q39 -149 52.5 -262.5t13.5 -237.5q0 -318 -130.5 -468t-385.5 -150z" />
    <glyph glyph-name="phi" unicode="&#x3c6;" horiz-adv-x="1485" 
d="M643 -492v474q-261 14 -395.5 158.5t-134.5 414.5q0 298 209 553l139 -96q-89 -117 -128.5 -228.5t-39.5 -234.5q0 -385 350 -420v610q0 182 85 280.5t239 98.5q185 0 295 -147t110 -396q0 -177 -68 -307t-193 -203.5t-292 -82.5v-474h-176zM1190 573q0 184 -60 290
t-161 106q-71 0 -110.5 -57t-39.5 -171v-612q175 16 273 132t98 312z" />
    <glyph glyph-name="chi" unicode="&#x3c7;" horiz-adv-x="1128" 
d="M184 1104q58 0 98 -22.5t71.5 -67t76.5 -160.5l139 -352l314 596h192l-430 -770l191 -484q41 -107 81.5 -147.5t106.5 -40.5q44 0 92 8v-139q-65 -17 -127 -17q-115 0 -186 59t-131 220l-146 381l-356 -660h-193l467 840l-168 436q-30 82 -64.5 128t-86.5 46
q-40 0 -68 -12v141q53 17 127 17z" />
    <glyph glyph-name="psi" unicode="&#x3c8;" horiz-adv-x="1559" 
d="M872 1554v-1421q191 18 288 129t97 311q0 131 -14.5 245.5t-50.5 279.5h178q64 -276 64 -518q0 -277 -143 -429t-419 -169v-474h-176v474q-266 9 -400 153t-134 418v545h178v-551q0 -391 356 -416v1423h176z" />
    <glyph glyph-name="omega" unicode="&#x3c9;" horiz-adv-x="1602" 
d="M506 -20q-183 0 -287 148t-104 404q0 161 29.5 293.5t91.5 272.5h184q-66 -149 -95.5 -279t-29.5 -289q0 -189 58.5 -295t164.5 -106q95 0 146 71t51 195v310h172v-310q0 -128 50.5 -197t143.5 -69q104 0 165 101t61 300q0 157 -29.5 289t-95.5 279h184
q66 -154 93.5 -283t27.5 -283q0 -257 -104 -404.5t-287 -147.5q-222 0 -291 184h-10q-65 -184 -289 -184z" />
    <glyph glyph-name="iotadieresis" unicode="&#x3ca;" horiz-adv-x="709" 
d="M346 1098v-774q0 -99 37 -148t121 -49q44 0 93 7.5t75 15.5v-138q-27 -12 -83 -22t-110 -10q-164 0 -237.5 85t-73.5 257v776h178zM-22 1395q0 53 28 76.5t68 23.5q39 0 68 -23.5t29 -76.5t-29 -78t-68 -25q-40 0 -68 25t-28 78zM363 1395q0 53 28 76.5t66 23.5
q39 0 68 -23.5t29 -76.5t-29 -78t-68 -25q-38 0 -66 25t-28 78z" />
    <glyph glyph-name="upsilondieresis" unicode="&#x3cb;" horiz-adv-x="1255" 
d="M629 -20q-234 0 -350.5 125.5t-116.5 392.5v600h180v-594q0 -377 301 -377q163 0 241.5 117t78.5 362q0 128 -13.5 232.5t-50.5 259.5h180q39 -149 52.5 -262.5t13.5 -237.5q0 -318 -130.5 -468t-385.5 -150zM360 1395q0 53 28 76.5t68 23.5q39 0 68 -23.5t29 -76.5
t-29 -78t-68 -25q-40 0 -68 25t-28 78zM745 1395q0 53 28 76.5t66 23.5q39 0 68 -23.5t29 -76.5t-29 -78t-68 -25q-38 0 -66 25t-28 78z" />
    <glyph glyph-name="omicrontonos" unicode="&#x3cc;" horiz-adv-x="1239" 
d="M1128 551q0 -269 -136 -420t-376 -151q-149 0 -264 69.5t-177 199.5t-62 302q0 268 134 417.5t376 149.5q232 0 368.5 -152.5t136.5 -414.5zM299 551q0 -207 81.5 -314.5t240.5 -107.5q157 0 239 107.5t82 314.5t-82.5 311.5t-241.5 104.5q-319 0 -319 -416zM539 1270
q29 75 55.5 190.5t36.5 188.5h192v-23q-15 -63 -67.5 -180t-108.5 -205h-108v29z" />
    <glyph glyph-name="upsilontonos" unicode="&#x3cd;" horiz-adv-x="1255" 
d="M629 -20q-234 0 -350.5 125.5t-116.5 392.5v600h180v-594q0 -377 301 -377q163 0 241.5 117t78.5 362q0 128 -13.5 232.5t-50.5 259.5h180q39 -149 52.5 -262.5t13.5 -237.5q0 -318 -130.5 -468t-385.5 -150zM545 1270q29 75 55.5 190.5t36.5 188.5h192v-23
q-15 -63 -67.5 -180t-108.5 -205h-108v29z" />
    <glyph glyph-name="omegatonos" unicode="&#x3ce;" horiz-adv-x="1602" 
d="M506 -20q-183 0 -287 148t-104 404q0 161 29.5 293.5t91.5 272.5h184q-66 -149 -95.5 -279t-29.5 -289q0 -189 58.5 -295t164.5 -106q95 0 146 71t51 195v310h172v-310q0 -128 50.5 -197t143.5 -69q104 0 165 101t61 300q0 157 -29.5 289t-95.5 279h184
q66 -154 93.5 -283t27.5 -283q0 -257 -104 -404.5t-287 -147.5q-222 0 -291 184h-10q-65 -184 -289 -184zM715 1270q29 75 55.5 190.5t36.5 188.5h192v-23q-15 -63 -67.5 -180t-108.5 -205h-108v29z" />
    <glyph glyph-name="afii10023" unicode="&#x401;" horiz-adv-x="1139" 
d="M1016 0h-817v1462h817v-162h-633v-456h596v-160h-596v-522h633v-162zM338 1733q0 53 28 76.5t68 23.5q39 0 68 -23.5t29 -76.5t-29 -78t-68 -25q-40 0 -68 25t-28 78zM723 1733q0 53 28 76.5t66 23.5q39 0 68 -23.5t29 -76.5t-29 -78t-68 -25q-38 0 -66 25t-28 78z" />
    <glyph glyph-name="afii10051" unicode="&#x402;" horiz-adv-x="1518" 
d="M991 -20q-103 0 -155 24v160q59 -21 147 -21q99 0 149 59t50 169v131q0 124 -63.5 178.5t-198.5 54.5h-377v-735h-183v1300h-340v162h967v-162h-444v-403h391q208 0 319 -96.5t111 -274.5v-143q0 -190 -98.5 -296.5t-274.5 -106.5z" />
    <glyph glyph-name="afii10052" unicode="&#x403;" horiz-adv-x="1073" 
d="M1024 1462v-164h-641v-1298h-184v1462h825zM481 1604q38 48 96.5 136.5t98.5 166.5h217v-21q-44 -64 -137 -161t-156 -146h-119v25z" />
    <glyph glyph-name="afii10053" unicode="&#x404;" horiz-adv-x="1317" 
d="M834 1321q-220 0 -352 -122.5t-158 -356.5h712v-160h-717q12 -267 142.5 -404t372.5 -137q164 0 366 58v-160q-158 -59 -391 -59q-333 0 -508.5 194t-175.5 559q0 349 188 550.5t525 201.5q235 0 419 -90l-75 -158q-175 84 -348 84z" />
    <glyph glyph-name="afii10054" unicode="&#x405;" horiz-adv-x="1124" 
d="M1028 391q0 -191 -138 -301t-384 -110q-260 0 -402 69v176q93 -40 203.5 -63t206.5 -23q164 0 247 63t83 173q0 73 -30 120t-100.5 88t-213.5 93q-203 74 -290 174.5t-87 259.5q0 171 128.5 272t338.5 101q219 0 403 -82l-57 -158q-188 78 -350 78q-130 0 -203.5 -56
t-73.5 -157q0 -72 28.5 -119.5t92 -86.5t199.5 -89q163 -60 243 -116.5t118 -130t38 -175.5z" />
    <glyph glyph-name="afii10055" unicode="&#x406;" horiz-adv-x="694" 
d="M610 0h-528v106l172 39v1170l-172 41v106h528v-106l-172 -41v-1170l172 -39v-106z" />
    <glyph glyph-name="afii10056" unicode="&#x407;" horiz-adv-x="694" 
d="M610 0h-528v106l172 39v1170l-172 41v106h528v-106l-172 -41v-1170l172 -39v-106zM60 1733q0 53 28 76.5t68 23.5q39 0 68 -23.5t29 -76.5t-29 -78t-68 -25q-40 0 -68 25t-28 78zM445 1733q0 53 28 76.5t66 23.5q39 0 68 -23.5t29 -76.5t-29 -78t-68 -25q-38 0 -66 25
t-28 78z" />
    <glyph glyph-name="afii10057" unicode="&#x408;" horiz-adv-x="559" 
d="M-8 -389q-94 0 -152 27v155q71 -20 148 -20q100 0 150 60.5t50 174.5v1454h185v-1439q0 -198 -98.5 -305t-282.5 -107z" />
    <glyph glyph-name="afii10058" unicode="&#x409;" horiz-adv-x="1917" 
d="M1839 428q0 -207 -138 -317.5t-401 -110.5h-335v1300h-357q-56 -425 -98.5 -689t-84 -390.5t-111.5 -185t-179 -58.5q-69 0 -133 25v154q52 -25 113 -25q58 0 98.5 54t68.5 175t63.5 347.5t107.5 754.5h696v-618h121q280 0 424.5 -103.5t144.5 -312.5zM1149 158h129
q190 0 280.5 66.5t90.5 203.5q0 134 -93 195t-309 61h-98v-526z" />
    <glyph glyph-name="afii10059" unicode="&#x40a;" horiz-adv-x="1962" 
d="M1884 428q0 -209 -138.5 -318.5t-397.5 -109.5h-338v682h-627v-682h-184v1462h184v-618h627v618h186v-618h119q280 0 424.5 -103.5t144.5 -312.5zM1196 158h129q190 0 279.5 66.5t89.5 203.5q0 134 -93 195t-307 61h-98v-526z" />
    <glyph glyph-name="afii10060" unicode="&#x40b;" horiz-adv-x="1518" 
d="M543 895h397q205 0 314.5 -94t109.5 -277v-524h-184v502q0 123 -59.5 177t-192.5 54h-385v-733h-185v1298h-338v164h1024v-164h-501v-403z" />
    <glyph glyph-name="afii10061" unicode="&#x40c;" horiz-adv-x="1266" 
d="M1266 0h-222l-661 741v-741h-184v1462h184v-708l645 708h209l-635 -710zM557 1604q38 48 96.5 136.5t98.5 166.5h217v-21q-44 -64 -137 -161t-156 -146h-119v25z" />
    <glyph glyph-name="afii10062" unicode="&#x40e;" horiz-adv-x="1278" 
d="M293 -20q-113 0 -199 30v174q91 -41 193 -41q107 0 172.5 50t126.5 182l-563 1087h202l418 -813q25 -47 43 -104h8l8 24l31 82l350 811h195l-467 -1046q-83 -186 -151 -271t-155.5 -125t-211.5 -40zM654 1579q-192 0 -279.5 73t-97.5 238h168q9 -104 54.5 -145t158.5 -41
q103 0 152.5 44t60.5 142h170q-15 -162 -109 -236.5t-278 -74.5z" />
    <glyph glyph-name="afii10145" unicode="&#x40f;" horiz-adv-x="1497" 
d="M1296 0h-460v-385h-189v385h-448v1462h184v-1298h731v1298h182v-1462z" />
    <glyph glyph-name="afii10017" unicode="&#x410;" horiz-adv-x="1309" 
d="M1116 0l-176 453h-580l-174 -453h-186l571 1468h166l570 -1468h-191zM885 616l-164 443l-70 219q-30 -120 -63 -219l-166 -443h463z" />
    <glyph glyph-name="afii10018" unicode="&#x411;" horiz-adv-x="1260" 
d="M1155 428q0 -216 -130 -322t-398 -106h-428v1462h868v-162h-684v-456h217q280 0 417.5 -99t137.5 -317zM383 158h225q188 0 272.5 63.5t84.5 206.5q0 140 -88 198t-299 58h-195v-526z" />
    <glyph glyph-name="afii10019" unicode="&#x412;" horiz-adv-x="1331" 
d="M199 1462h417q294 0 424.5 -87.5t130.5 -274.5q0 -130 -71 -214.5t-207 -109.5v-10q169 -29 248.5 -117t79.5 -233q0 -196 -134 -306t-374 -110h-514v1462zM383 840h270q172 0 250 55t78 184q0 120 -85.5 173t-270.5 53h-242v-465zM383 686v-530h295q176 0 261 68t85 206
q0 131 -90 193.5t-270 62.5h-281z" />
    <glyph glyph-name="afii10020" unicode="&#x413;" horiz-adv-x="1073" 
d="M1024 1462v-164h-641v-1298h-184v1462h825z" />
    <glyph glyph-name="afii10021" unicode="&#x414;" horiz-adv-x="1415" 
d="M1370 -385h-176v385h-1006v-385h-176v549h113q148 252 256 611t127 687h676v-1298h186v-549zM1001 164v1132h-331q-19 -249 -121.5 -581t-229.5 -551h682z" />
    <glyph glyph-name="afii10022" unicode="&#x415;" horiz-adv-x="1139" 
d="M1016 0h-817v1462h817v-162h-633v-456h596v-160h-596v-522h633v-162z" />
    <glyph glyph-name="afii10024" unicode="&#x416;" horiz-adv-x="1749" 
d="M590 752l-567 710h204l559 -708v708h177v-708l559 708h204l-567 -708l586 -754h-211l-571 741v-741h-177v741l-573 -741h-211z" />
    <glyph glyph-name="afii10025" unicode="&#x417;" horiz-adv-x="1204" 
d="M1063 1120q0 -142 -91 -232.5t-255 -115.5v-8q186 -25 281.5 -115t95.5 -235q0 -205 -155 -319.5t-435 -114.5q-263 0 -426 79v168q99 -47 212.5 -71.5t211.5 -24.5q198 0 298.5 73t100.5 210q0 131 -113 198.5t-337 67.5h-209v154h198q217 0 324.5 72.5t107.5 195.5
q0 106 -79.5 167.5t-214.5 61.5q-114 0 -205.5 -27t-200.5 -98l-88 125q211 152 496 152q225 0 354 -98t129 -265z" />
    <glyph glyph-name="afii10026" unicode="&#x418;" horiz-adv-x="1573" 
d="M201 1462h172v-803q0 -85 -5 -225t-10 -182h9l804 1210h205v-1462h-172v795q0 104 7 242.5t10 179.5h-9l-806 -1217h-205v1462z" />
    <glyph glyph-name="afii10027" unicode="&#x419;" horiz-adv-x="1573" 
d="M201 1462h172v-803q0 -85 -5 -225t-10 -182h9l804 1210h205v-1462h-172v795q0 104 7 242.5t10 179.5h-9l-806 -1217h-205v1462zM811 1579q-192 0 -279.5 73t-97.5 238h168q9 -104 54.5 -145t158.5 -41q103 0 152.5 44t60.5 142h170q-15 -162 -109 -236.5t-278 -74.5z" />
    <glyph glyph-name="afii10028" unicode="&#x41a;" horiz-adv-x="1266" 
d="M1266 0h-222l-661 741v-741h-184v1462h184v-708l645 708h209l-635 -710z" />
    <glyph glyph-name="afii10029" unicode="&#x41b;" horiz-adv-x="1450" 
d="M1251 0h-184v1300h-463l-31 -238q-63 -492 -110 -705t-122.5 -296.5t-205.5 -83.5q-74 0 -133 25v154q52 -25 113 -25q79 0 125.5 99.5t101 450.5t109.5 781h800v-1462z" />
    <glyph glyph-name="afii10030" unicode="&#x41c;" horiz-adv-x="1858" 
d="M844 0l-482 1282h-8q15 -160 15 -395v-887h-170v1462h272l451 -1198h8l459 1198h270v-1462h-182v899q0 150 14 381h-8l-488 -1280h-151z" />
    <glyph glyph-name="afii10031" unicode="&#x41d;" horiz-adv-x="1518" 
d="M1317 0h-184v682h-750v-682h-184v1462h184v-618h750v618h184v-1462z" />
    <glyph glyph-name="afii10032" unicode="&#x41e;" horiz-adv-x="1599" 
d="M1475 733q0 -351 -177.5 -552t-496.5 -201q-323 0 -499.5 197.5t-176.5 557.5q0 357 175.5 553.5t502.5 196.5q318 0 495 -199.5t177 -552.5zM319 733q0 -290 123 -442t359 -152q235 0 357 150t122 444q0 293 -121 441.5t-356 148.5q-238 0 -361 -150.5t-123 -439.5z" />
    <glyph glyph-name="afii10033" unicode="&#x41f;" horiz-adv-x="1497" 
d="M1296 0h-182v1300h-731v-1300h-184v1462h1097v-1462z" />
    <glyph glyph-name="afii10034" unicode="&#x420;" horiz-adv-x="1239" 
d="M1135 1032q0 -224 -153 -343.5t-431 -119.5h-168v-569h-184v1462h387q549 0 549 -430zM383 727h147q218 0 316 70.5t98 226.5q0 141 -91 211t-284 70h-186v-578z" />
    <glyph glyph-name="afii10035" unicode="&#x421;" horiz-adv-x="1294" 
d="M825 1321q-236 0 -371 -158t-135 -432q0 -283 131 -436.5t373 -153.5q156 0 351 58v-160q-93 -34 -179 -46.5t-198 -12.5q-323 0 -497.5 196.5t-174.5 556.5q0 226 83.5 396t243 262t375.5 92q232 0 404 -86l-74 -156q-175 80 -332 80z" />
    <glyph glyph-name="afii10036" unicode="&#x422;" horiz-adv-x="1139" 
d="M662 0h-185v1300h-457v162h1096v-162h-454v-1300z" />
    <glyph glyph-name="afii10037" unicode="&#x423;" horiz-adv-x="1278" 
d="M293 -20q-113 0 -199 30v174q91 -41 193 -41q107 0 172.5 50t126.5 182l-563 1087h202l418 -813q25 -47 43 -104h8l8 24l31 82l350 811h195l-467 -1046q-83 -186 -151 -271t-155.5 -125t-211.5 -40z" />
    <glyph glyph-name="afii10038" unicode="&#x424;" horiz-adv-x="1647" 
d="M731 1483h182v-180h68q174 0 300.5 -69.5t192.5 -193.5t66 -282q0 -165 -74 -294t-205 -194t-309 -65h-39v-225h-182v225h-43q-178 0 -308 66.5t-203 195.5t-73 291q0 155 68 279.5t195 195t299 70.5h65v180zM913 356h25q197 0 306.5 107.5t109.5 296.5
q0 180 -101.5 283.5t-283.5 103.5h-56v-791zM731 1147h-55q-181 0 -283 -104.5t-102 -282.5q0 -189 109 -296.5t309 -107.5h22v791z" />
    <glyph glyph-name="afii10039" unicode="&#x425;" horiz-adv-x="1200" 
d="M1192 0h-209l-387 635l-393 -635h-195l486 762l-455 700h205l358 -573l361 573h194l-452 -696z" />
    <glyph glyph-name="afii10040" unicode="&#x426;" horiz-adv-x="1518" 
d="M1296 162h179v-547h-177v385h-1099v1462h184v-1298h731v1298h182v-1300z" />
    <glyph glyph-name="afii10041" unicode="&#x427;" horiz-adv-x="1430" 
d="M1231 0h-184v600q-149 -53 -249 -72.5t-204 -19.5q-208 0 -319 96.5t-111 274.5v583h184v-557q0 -118 62 -176.5t202 -58.5q95 0 183.5 15t251.5 69v708h184v-1462z" />
    <glyph glyph-name="afii10042" unicode="&#x428;" horiz-adv-x="2124" 
d="M1923 0h-1724v1462h184v-1298h584v1298h184v-1298h586v1298h186v-1462z" />
    <glyph glyph-name="afii10043" unicode="&#x429;" horiz-adv-x="2132" 
d="M199 0v1462h184v-1298h569v1298h187v-1298h571v1298h184v-1300h177v-547h-177v385h-1695z" />
    <glyph glyph-name="afii10044" unicode="&#x42a;" horiz-adv-x="1417" 
d="M1313 428q0 -208 -132.5 -318t-385.5 -110h-439v1300h-340v162h523v-618h231q266 0 404.5 -104.5t138.5 -311.5zM539 158h237q178 0 262 66.5t84 203.5q0 134 -87.5 195t-286.5 61h-209v-526z" />
    <glyph glyph-name="afii10045" unicode="&#x42b;" horiz-adv-x="1757" 
d="M1149 428q0 -207 -131.5 -317.5t-386.5 -110.5h-432v1462h184v-618h225q265 0 403 -105t138 -311zM383 156h231q178 0 261 67.5t83 204.5q0 134 -86 194t-284 60h-205v-526zM1559 0h-185v1462h185v-1462z" />
    <glyph glyph-name="afii10046" unicode="&#x42c;" horiz-adv-x="1315" 
d="M1210 428q0 -206 -138 -317t-392 -111h-481v1462h184v-618h274q269 0 411 -106.5t142 -309.5zM383 158h279q358 0 358 270q0 133 -91.5 194.5t-293.5 61.5h-252v-526z" />
    <glyph glyph-name="afii10047" unicode="&#x42d;" horiz-adv-x="1296" 
d="M475 1321q-167 0 -338 -78l-76 154q174 86 416 86q217 0 373.5 -88t237.5 -251t81 -388q0 -374 -182.5 -575t-523.5 -201q-113 0 -200.5 12t-188.5 47v160q86 -23 173.5 -40.5t186.5 -17.5q264 0 398.5 140t142.5 403h-711v162h709q-20 222 -151.5 348.5t-346.5 126.5z
" />
    <glyph glyph-name="afii10048" unicode="&#x42e;" horiz-adv-x="2154" 
d="M2028 733q0 -354 -170 -553.5t-476 -199.5q-300 0 -470.5 183t-182.5 519h-346v-682h-184v1462h184v-618h350q23 309 191 475t454 166q306 0 478 -199t172 -553zM922 733q0 -290 114.5 -442t339.5 -152q226 0 342.5 150t116.5 444q0 293 -114.5 441.5t-340.5 148.5
q-227 0 -342.5 -150.5t-115.5 -439.5z" />
    <glyph glyph-name="afii10049" unicode="&#x42f;" horiz-adv-x="1309" 
d="M639 606l-379 -606h-215l410 639q-155 50 -228 153t-73 261q0 198 136.5 303.5t409.5 105.5h410v-1462h-184v606h-287zM926 1305h-221q-183 0 -272 -64t-89 -197q0 -282 369 -282h213v543z" />
    <glyph glyph-name="afii10065" unicode="&#x430;" horiz-adv-x="1149" 
d="M852 0l-35 156h-8q-82 -103 -163.5 -139.5t-205.5 -36.5q-162 0 -254 85t-92 240q0 334 527 350l186 7v65q0 125 -54 184.5t-173 59.5q-87 0 -164.5 -26t-145.5 -58l-55 135q83 44 181 69t194 25q199 0 296 -88t97 -280v-748h-131zM481 125q151 0 237.5 81.5t86.5 231.5
v99l-162 -7q-189 -7 -275.5 -60t-86.5 -167q0 -86 52.5 -132t147.5 -46z" />
    <glyph glyph-name="afii10066" unicode="&#x431;" horiz-adv-x="1227" 
d="M117 659q0 367 110.5 565.5t347.5 250.5q223 45 498 92l31 -158l-119 -19q-232 -38 -373 -67q-144 -32 -216.5 -146.5t-82.5 -332.5h13q58 81 154.5 129.5t205.5 48.5q202 0 316 -130t114 -364q0 -261 -133 -404.5t-369 -143.5q-234 0 -365.5 179t-131.5 500zM629 129
q297 0 297 381q0 362 -269 362q-73 0 -141.5 -30t-124 -79t-90.5 -108q0 -526 328 -526z" />
    <glyph glyph-name="afii10067" unicode="&#x432;" horiz-adv-x="1180" 
d="M1077 821q0 -106 -60 -161.5t-171 -75.5v-9q139 -19 202.5 -82.5t63.5 -170.5q0 -156 -114.5 -239t-329.5 -83h-494v1098h492q411 0 411 -277zM932 332q0 92 -72 129t-211 37h-295v-353h299q279 0 279 187zM901 805q0 77 -59.5 110t-179.5 33h-308v-301h275
q147 0 209.5 36.5t62.5 121.5z" />
    <glyph glyph-name="afii10068" unicode="&#x433;" horiz-adv-x="887" 
d="M844 946h-490v-946h-180v1098h670v-152z" />
    <glyph glyph-name="afii10069" unicode="&#x434;" horiz-adv-x="1190" 
d="M1149 -381h-174v381h-764v-381h-172v533h88q133 185 207 428.5t78 517.5h577v-946h160v-533zM815 152v804h-244q-15 -221 -85.5 -443.5t-172.5 -360.5h502z" />
    <glyph glyph-name="afii10070" unicode="&#x435;" horiz-adv-x="1155" 
d="M641 -20q-247 0 -387.5 149.5t-140.5 411.5q0 264 131 420.5t354 156.5q207 0 330 -133.5t123 -361.5v-109h-752q5 -187 95 -284t255 -97q88 0 167 15.5t185 60.5v-158q-91 -39 -171 -55t-189 -16zM596 971q-129 0 -204 -83t-89 -231h559q-2 154 -71 234t-195 80z" />
    <glyph glyph-name="afii10072" unicode="&#x436;" horiz-adv-x="1536" 
d="M682 1098h168v-533l446 533h195l-453 -533l492 -565h-205l-475 557v-557h-168v557l-475 -557h-205l492 565q-310 368 -453 533h197l444 -533v533z" />
    <glyph glyph-name="afii10073" unicode="&#x437;" horiz-adv-x="1004" 
d="M391 645q311 0 311 168q0 156 -249 156q-79 0 -147 -15t-163 -55l-63 143q171 76 383 76q193 0 302 -77t109 -212q0 -187 -206 -243v-8q125 -36 184 -104t59 -171q0 -151 -125 -237t-344 -86q-242 0 -374 71v162q183 -86 372 -86q141 0 217 47t76 139q0 94 -77 139.5
t-236 45.5h-148v147h119z" />
    <glyph glyph-name="afii10074" unicode="&#x438;" horiz-adv-x="1317" 
d="M344 1098v-670l-8 -194l-4 -56l588 920h221v-1098h-168v647l3 139l5 132l-584 -918h-223v1098h170z" />
    <glyph glyph-name="afii10075" unicode="&#x439;" horiz-adv-x="1317" 
d="M344 1098v-670l-8 -194l-4 -56l588 920h221v-1098h-168v647l3 139l5 132l-584 -918h-223v1098h170zM654 1241q-192 0 -279.5 73t-97.5 238h168q9 -104 54.5 -145t158.5 -41q103 0 152.5 44t60.5 142h170q-15 -162 -109 -236.5t-278 -74.5z" />
    <glyph glyph-name="afii10076" unicode="&#x43a;" horiz-adv-x="1083" 
d="M823 1098h197l-469 -529l508 -569h-209l-496 557v-557h-180v1098h180v-533z" />
    <glyph glyph-name="afii10077" unicode="&#x43b;" horiz-adv-x="1184" 
d="M1010 0h-183v948h-323q-28 -360 -75.5 -565.5t-124 -301t-195.5 -95.5q-65 0 -95 14v135q21 -8 56 -8q110 0 175.5 232t102.5 739h662v-1098z" />
    <glyph glyph-name="afii10078" unicode="&#x43c;" horiz-adv-x="1528" 
d="M758 172q30 109 76 225l286 701h232v-1098h-162v905q-35 -109 -82 -229l-274 -676h-146l-274 680q-20 48 -39.5 105t-38.5 120v-905h-162v1098h225l277 -674q37 -94 82 -252z" />
    <glyph glyph-name="afii10079" unicode="&#x43d;" horiz-adv-x="1305" 
d="M354 1098v-457h596v457h180v-1098h-180v489h-596v-489h-180v1098h180z" />
    <glyph glyph-name="afii10080" unicode="&#x43e;" horiz-adv-x="1239" 
d="M1128 551q0 -269 -136 -420t-376 -151q-149 0 -264 69.5t-177 199.5t-62 302q0 268 134 417.5t376 149.5q232 0 368.5 -152.5t136.5 -414.5zM299 551q0 -207 81.5 -314.5t240.5 -107.5q157 0 239 107.5t82 314.5t-82.5 311.5t-241.5 104.5q-319 0 -319 -416z" />
    <glyph glyph-name="afii10081" unicode="&#x43f;" horiz-adv-x="1278" 
d="M354 0h-180v1098h928v-1098h-180v944h-568v-944z" />
    <glyph glyph-name="afii10082" unicode="&#x440;" horiz-adv-x="1260" 
d="M694 -20q-221 0 -340 159h-12l4 -41q8 -78 8 -139v-451h-180v1590h148l24 -150h8q64 90 148 130t194 40q214 0 332.5 -148.5t118.5 -418.5q0 -269 -119 -420t-334 -151zM664 967q-163 0 -235.5 -92t-74.5 -289v-35q0 -223 74 -322.5t240 -99.5q138 0 215.5 112t77.5 312
q0 201 -77.5 307.5t-219.5 106.5z" />
    <glyph glyph-name="afii10083" unicode="&#x441;" horiz-adv-x="983" 
d="M614 -20q-237 0 -369 145.5t-132 417.5q0 276 133.5 425.5t380.5 149.5q80 0 158.5 -16.5t129.5 -42.5l-55 -150q-139 52 -237 52q-166 0 -245 -104.5t-79 -311.5q0 -199 79 -304.5t234 -105.5q145 0 285 64v-160q-114 -59 -283 -59z" />
    <glyph glyph-name="afii10084" unicode="&#x442;" horiz-adv-x="975" 
d="M932 946h-359v-946h-178v946h-354v152h891v-152z" />
    <glyph glyph-name="afii10085" unicode="&#x443;" horiz-adv-x="1044" 
d="M2 1098h193l237 -625q75 -204 92 -299h8q9 37 41 138.5t54 162.5l223 623h194l-473 -1250q-69 -182 -164 -261t-235 -79q-75 0 -149 17v143q50 -12 120 -12q86 0 146 47.5t98 146.5l57 146z" />
    <glyph glyph-name="afii10086" unicode="&#x444;" horiz-adv-x="1485" 
d="M1372 549q0 -245 -143.5 -395t-399.5 -170v-476h-176v476q-252 21 -397 171t-145 394q0 250 144 397.5t404 167.5v442h170v-442q253 -25 398 -175t145 -390zM299 549q0 -381 360 -418v834q-188 -19 -274 -124.5t-86 -291.5zM1186 549q0 375 -357 414v-832q357 39 357 418
z" />
    <glyph glyph-name="afii10087" unicode="&#x445;" horiz-adv-x="1083" 
d="M434 561l-379 537h205l283 -414l280 414h203l-379 -537l400 -561h-205l-299 438l-303 -438h-203z" />
    <glyph glyph-name="afii10088" unicode="&#x446;" horiz-adv-x="1294" 
d="M1257 -381h-176v381h-907v1098h180v-946h568v946h180v-948h155v-531z" />
    <glyph glyph-name="afii10089" unicode="&#x447;" horiz-adv-x="1255" 
d="M332 1098v-400q0 -188 211 -188q92 0 174.5 27.5t183.5 89.5v471h180v-1098h-180v489q-110 -71 -198.5 -99t-196.5 -28q-164 0 -259 86t-95 238v412h180z" />
    <glyph glyph-name="afii10090" unicode="&#x448;" horiz-adv-x="1839" 
d="M1008 152h475v946h180v-1098h-1489v1098h180v-946h473v946h181v-946z" />
    <glyph glyph-name="afii10091" unicode="&#x449;" horiz-adv-x="1855" 
d="M1008 152h475v946h178v-948h160v-529h-181v379h-1466v1098h180v-946h473v946h181v-946z" />
    <glyph glyph-name="afii10092" unicode="&#x44a;" horiz-adv-x="1425" 
d="M567 647h303q445 0 445 -311q0 -336 -447 -336h-481v946h-350v152h530v-451zM1137 326q0 90 -60.5 130t-212.5 40h-297v-351h303q267 0 267 181z" />
    <glyph glyph-name="afii10093" unicode="&#x44b;" horiz-adv-x="1593" 
d="M354 647h285q214 0 316 -78t102 -233q0 -167 -108 -251.5t-318 -84.5h-457v1098h180v-451zM879 326q0 89 -59.5 130.5t-203.5 41.5h-262v-353h260q265 0 265 181zM1419 0h-180v1098h180v-1098z" />
    <glyph glyph-name="afii10094" unicode="&#x44c;" horiz-adv-x="1217" 
d="M354 647h326q428 0 428 -311q0 -164 -111 -250t-325 -86h-498v1098h180v-451zM928 326q0 88 -62 130t-207 42h-305v-353h310q127 0 195.5 46t68.5 135z" />
    <glyph glyph-name="afii10095" unicode="&#x44d;" horiz-adv-x="1012" 
d="M350 -20q-169 0 -291 59v156q154 -62 295 -62q336 0 359 359h-541v147h539q-14 168 -95 246t-237 78q-105 0 -256 -54l-51 146q64 29 146.5 46t158.5 17q257 0 389.5 -145.5t132.5 -423.5q0 -271 -143.5 -420t-405.5 -149z" />
    <glyph glyph-name="afii10096" unicode="&#x44e;" horiz-adv-x="1712" 
d="M1599 551q0 -270 -129.5 -420.5t-355.5 -150.5q-214 0 -340.5 133.5t-140.5 375.5h-279v-489h-180v1098h180v-457h281q22 229 148 353t335 124q222 0 351.5 -153t129.5 -414zM817 551q0 -208 71 -315t228 -107t227 107t70 315q0 205 -71 310.5t-226 105.5
q-157 0 -228 -105.5t-71 -310.5z" />
    <glyph glyph-name="afii10097" unicode="&#x44f;" horiz-adv-x="1145" 
d="M242 0h-209l313 461q-126 32 -191 113t-65 200q0 152 103 238t286 86h492v-1098h-180v436h-267zM264 772q0 -186 268 -186h259v362h-293q-115 0 -174.5 -45t-59.5 -131z" />
    <glyph glyph-name="afii10071" unicode="&#x451;" horiz-adv-x="1155" 
d="M641 -20q-247 0 -387.5 149.5t-140.5 411.5q0 264 131 420.5t354 156.5q207 0 330 -133.5t123 -361.5v-109h-752q5 -187 95 -284t255 -97q88 0 167 15.5t185 60.5v-158q-91 -39 -171 -55t-189 -16zM596 971q-129 0 -204 -83t-89 -231h559q-2 154 -71 234t-195 80z
M311 1395q0 53 28 76.5t68 23.5q39 0 68 -23.5t29 -76.5t-29 -78t-68 -25q-40 0 -68 25t-28 78zM696 1395q0 53 28 76.5t66 23.5q39 0 68 -23.5t29 -76.5t-29 -78t-68 -25q-38 0 -66 25t-28 78z" />
    <glyph glyph-name="afii10099" unicode="&#x452;" horiz-adv-x="1266" 
d="M817 -492q-80 0 -137 25v148q55 -21 113 -21q129 0 129 170v834q0 133 -59.5 197.5t-184.5 64.5q-169 0 -245.5 -93.5t-76.5 -304.5v-528h-182v1239h-156v133h156v184h180v-184h394v-133h-394v-180q0 -61 -8 -152h10q49 78 139 124t205 46q200 0 301 -95.5t101 -305.5
v-838q0 -160 -72 -245t-213 -85z" />
    <glyph glyph-name="afii10100" unicode="&#x453;" horiz-adv-x="887" 
d="M844 946h-490v-946h-180v1098h670v-152zM378 1266q38 48 96.5 136.5t98.5 166.5h217v-21q-44 -64 -137 -161t-156 -146h-119v25z" />
    <glyph glyph-name="afii10101" unicode="&#x454;" horiz-adv-x="1014" 
d="M635 -20q-250 0 -386 144.5t-136 418.5q0 279 137.5 427t390.5 148q84 0 164 -16.5t139 -42.5l-53 -148q-137 52 -254 52q-158 0 -239.5 -80t-98.5 -244h539v-147h-541q9 -184 91 -271.5t243 -87.5q93 0 164 18.5t133 43.5v-156q-120 -59 -293 -59z" />
    <glyph glyph-name="afii10102" unicode="&#x455;" horiz-adv-x="981" 
d="M889 303q0 -154 -115 -238.5t-323 -84.5q-217 0 -345 69v164q181 -88 349 -88q136 0 198 44t62 118q0 65 -59.5 110t-211.5 103q-155 60 -218 102.5t-92.5 95.5t-29.5 129q0 135 110 213t302 78q187 0 350 -74l-61 -143q-167 70 -301 70q-112 0 -170 -35.5t-58 -97.5
q0 -60 50 -99.5t233 -109.5q137 -51 202.5 -95t96.5 -99t31 -132z" />
    <glyph glyph-name="afii10103" unicode="&#x456;" horiz-adv-x="528" 
d="M354 0h-180v1098h180v-1098zM160 1395q0 60 30.5 87t75.5 27q42 0 73.5 -27t31.5 -87q0 -59 -31.5 -87t-73.5 -28q-45 0 -75.5 28t-30.5 87z" />
    <glyph glyph-name="afii10104" unicode="&#x457;" horiz-adv-x="528" 
d="M354 0h-180v1098h180v-1098zM-20 1395q0 53 28 76.5t68 23.5q39 0 68 -23.5t29 -76.5t-29 -78t-68 -25q-40 0 -68 25t-28 78zM365 1395q0 53 28 76.5t66 23.5q39 0 68 -23.5t29 -76.5t-29 -78t-68 -25q-38 0 -66 25t-28 78z" />
    <glyph glyph-name="afii10105" unicode="&#x458;" horiz-adv-x="528" 
d="M45 -492q-94 0 -158 25v145q69 -20 136 -20q78 0 114.5 42.5t36.5 129.5v1268h180v-1262q0 -164 -78.5 -246t-230.5 -82zM160 1395q0 60 30.5 87t75.5 27q42 0 73.5 -27t31.5 -87q0 -59 -31.5 -87t-73.5 -28q-45 0 -75.5 28t-30.5 87z" />
    <glyph glyph-name="afii10106" unicode="&#x459;" horiz-adv-x="1724" 
d="M940 647h254q422 0 422 -311q0 -336 -442 -336h-416v946h-256q-27 -357 -75 -563.5t-123 -301.5t-193 -95q-67 0 -97 14v133q29 -8 54 -8q107 0 175 228.5t105 744.5h592v-451zM1436 326q0 89 -62.5 129.5t-212.5 40.5h-221v-351h227q132 0 200.5 46t68.5 135z" />
    <glyph glyph-name="afii10107" unicode="&#x45a;" horiz-adv-x="1815" 
d="M1032 1098v-453h246q220 0 323 -77.5t103 -231.5q0 -336 -438 -336h-420v489h-488v-489h-184v1098h184v-457h492v457h182zM1028 496v-351h229q269 0 269 181q0 90 -62.5 130t-210.5 40h-225z" />
    <glyph glyph-name="afii10108" unicode="&#x45b;" horiz-adv-x="1266" 
d="M922 0v662q0 133 -59.5 198.5t-186.5 65.5q-169 0 -245.5 -92.5t-76.5 -305.5v-528h-180v1237h-156v135h156v184h180v-184h434v-135h-434v-178q0 -88 -10 -152h12q53 85 144.5 127.5t199.5 42.5q199 0 299.5 -96.5t100.5 -306.5v-674h-178z" />
    <glyph glyph-name="afii10109" unicode="&#x45c;" horiz-adv-x="1083" 
d="M823 1098h197l-469 -529l508 -569h-209l-496 557v-557h-180v1098h180v-533zM450 1266q38 48 96.5 136.5t98.5 166.5h217v-21q-44 -64 -137 -161t-156 -146h-119v25z" />
    <glyph glyph-name="afii10110" unicode="&#x45e;" horiz-adv-x="1044" 
d="M2 1098h193l237 -625q75 -204 92 -299h8q9 37 41 138.5t54 162.5l223 623h194l-473 -1250q-69 -182 -164 -261t-235 -79q-75 0 -149 17v143q50 -12 120 -12q86 0 146 47.5t98 146.5l57 146zM519 1241q-192 0 -279.5 73t-97.5 238h168q9 -104 54.5 -145t158.5 -41
q103 0 152.5 44t60.5 142h170q-15 -162 -109 -236.5t-278 -74.5z" />
    <glyph glyph-name="afii10193" unicode="&#x45f;" horiz-adv-x="1282" 
d="M557 0h-383v1098h180v-946h572v946h180v-1098h-373v-379h-176v379z" />
    <glyph glyph-name="afii10050" unicode="&#x490;" horiz-adv-x="1090" 
d="M870 1462v301h172v-465h-659v-1298h-184v1462h671z" />
    <glyph glyph-name="afii10098" unicode="&#x491;" horiz-adv-x="893" 
d="M848 958h-494v-958h-180v1098h498v319h176v-459z" />
    <glyph glyph-name="Wgrave" unicode="&#x1e80;" horiz-adv-x="1905" 
d="M1489 0h-186l-285 958q-63 214 -74 289q-16 -115 -70 -295l-276 -952h-186l-387 1462h192l227 -893q46 -175 70 -348q22 164 78 359l258 882h190l269 -889q52 -173 80 -352q16 138 71 350l226 891h192zM1073 1579h-121q-75 60 -164.5 155.5t-126.5 151.5v21h215
q32 -66 91 -157.5t106 -145.5v-25z" />
    <glyph glyph-name="wgrave" unicode="&#x1e81;" horiz-adv-x="1610" 
d="M1071 0l-188 618q-26 77 -76 291h-8q-42 -195 -74 -293l-197 -616h-204l-301 1098h186q104 -405 158.5 -616t64.5 -298h8l14 62q31 143 60 233l195 619h196l189 -619q10 -35 21.5 -74.5t21.5 -78t18 -75t12 -65.5h9q9 76 73 326l154 586h184l-305 -1098h-211zM916 1241
h-121q-75 60 -164.5 155.5t-126.5 151.5v21h215q32 -66 91 -157.5t106 -145.5v-25z" />
    <glyph glyph-name="Wacute" unicode="&#x1e82;" horiz-adv-x="1905" 
d="M1489 0h-186l-285 958q-63 214 -74 289q-16 -115 -70 -295l-276 -952h-186l-387 1462h192l227 -893q46 -175 70 -348q22 164 78 359l258 882h190l269 -889q52 -173 80 -352q16 138 71 350l226 891h192zM819 1604q38 48 96.5 136.5t98.5 166.5h217v-21q-44 -64 -137 -161
t-156 -146h-119v25z" />
    <glyph glyph-name="wacute" unicode="&#x1e83;" horiz-adv-x="1610" 
d="M1071 0l-188 618q-26 77 -76 291h-8q-42 -195 -74 -293l-197 -616h-204l-301 1098h186q104 -405 158.5 -616t64.5 -298h8l14 62q31 143 60 233l195 619h196l189 -619q10 -35 21.5 -74.5t21.5 -78t18 -75t12 -65.5h9q9 76 73 326l154 586h184l-305 -1098h-211zM676 1266
q38 48 96.5 136.5t98.5 166.5h217v-21q-44 -64 -137 -161t-156 -146h-119v25z" />
    <glyph glyph-name="Wdieresis" unicode="&#x1e84;" horiz-adv-x="1905" 
d="M1489 0h-186l-285 958q-63 214 -74 289q-16 -115 -70 -295l-276 -952h-186l-387 1462h192l227 -893q46 -175 70 -348q22 164 78 359l258 882h190l269 -889q52 -173 80 -352q16 138 71 350l226 891h192zM661 1733q0 53 28 76.5t68 23.5q39 0 68 -23.5t29 -76.5t-29 -78
t-68 -25q-40 0 -68 25t-28 78zM1046 1733q0 53 28 76.5t66 23.5q39 0 68 -23.5t29 -76.5t-29 -78t-68 -25q-38 0 -66 25t-28 78z" />
    <glyph glyph-name="wdieresis" unicode="&#x1e85;" horiz-adv-x="1610" 
d="M1071 0l-188 618q-26 77 -76 291h-8q-42 -195 -74 -293l-197 -616h-204l-301 1098h186q104 -405 158.5 -616t64.5 -298h8l14 62q31 143 60 233l195 619h196l189 -619q10 -35 21.5 -74.5t21.5 -78t18 -75t12 -65.5h9q9 76 73 326l154 586h184l-305 -1098h-211zM516 1395
q0 53 28 76.5t68 23.5q39 0 68 -23.5t29 -76.5t-29 -78t-68 -25q-40 0 -68 25t-28 78zM901 1395q0 53 28 76.5t66 23.5q39 0 68 -23.5t29 -76.5t-29 -78t-68 -25q-38 0 -66 25t-28 78z" />
    <glyph glyph-name="Ygrave" unicode="&#x1ef2;" horiz-adv-x="1159" 
d="M580 743l381 719h198l-487 -895v-567h-185v559l-487 903h201zM689 1579h-121q-75 60 -164.5 155.5t-126.5 151.5v21h215q32 -66 91 -157.5t106 -145.5v-25z" />
    <glyph glyph-name="ygrave" unicode="&#x1ef3;" horiz-adv-x="1044" 
d="M2 1098h193l237 -625q75 -204 92 -299h8q9 37 41 138.5t54 162.5l223 623h194l-473 -1250q-69 -182 -164 -261t-235 -79q-75 0 -149 17v143q50 -12 120 -12q86 0 146 47.5t98 146.5l57 146zM640 1241h-121q-75 60 -164.5 155.5t-126.5 151.5v21h215q32 -66 91 -157.5
t106 -145.5v-25z" />
    <glyph glyph-name="glyph514" horiz-adv-x="1024" 
d="M82 469v160h860v-160h-860z" />
    <glyph glyph-name="glyph515" horiz-adv-x="2048" 
d="M82 469v160h1884v-160h-1884z" />
    <glyph glyph-name="afii00208" unicode="&#x2015;" horiz-adv-x="2048" 
d="M82 469v160h1884v-160h-1884z" />
    <glyph glyph-name="underscoredbl" unicode="&#x2017;" horiz-adv-x="842" 
d="M846 -455h-850v131h850v-131zM846 -184h-850v131h850v-131z" />
    <glyph glyph-name="glyph518" horiz-adv-x="358" 
d="M37 961l-12 22q22 90 71 224t105 255h133q-66 -254 -103 -501h-194z" />
    <glyph glyph-name="glyph519" horiz-adv-x="358" 
d="M319 1462l15 -22q-52 -199 -176 -479h-133q70 285 102 501h192z" />
    <glyph glyph-name="quotesinglbase" unicode="&#x201a;" horiz-adv-x="512" 
d="M358 238l15 -23q-48 -186 -176 -479h-134q67 259 103 502h192z" />
    <glyph glyph-name="quotereversed" unicode="&#x201b;" horiz-adv-x="358" 
d="M233 1462q37 -251 103 -501h-133q-45 94 -99.5 236t-78.5 243l14 22h194z" />
    <glyph glyph-name="glyph522" horiz-adv-x="735" 
d="M414 961l-15 22q27 106 80 244.5t99 234.5h133q-67 -265 -103 -501h-194zM37 961l-12 22q20 83 71 224t105 255h131q-67 -265 -103 -501h-192z" />
    <glyph glyph-name="glyph523" horiz-adv-x="735" 
d="M317 1462l15 -22q-49 -194 -176 -479h-131q65 264 100 501h192zM696 1462l15 -22q-49 -194 -176 -479h-136q26 100 59 254t46 247h192z" />
    <glyph glyph-name="quotedblbase" unicode="&#x201e;" horiz-adv-x="852" 
d="M322 238l14 -23q-48 -186 -176 -479h-133q65 250 102 502h193zM700 238l15 -23q-48 -186 -176 -479h-136q27 104 58 251t47 251h192z" />
    <glyph glyph-name="dagger" unicode="&#x2020;" horiz-adv-x="1049" 
d="M918 991l-351 31l51 -1022h-204l49 1022l-330 -31v178l330 -30l-49 417h204l-51 -417l351 30v-178z" />
    <glyph glyph-name="daggerdbl" unicode="&#x2021;" horiz-adv-x="1049" 
d="M575 494l351 30v-174l-351 29l50 -379h-207l49 379l-344 -29v174l344 -30l-43 292l43 277l-344 -31v174l344 -30l-49 380h207l-50 -380l351 30v-174l-351 31l43 -277z" />
    <glyph glyph-name="bullet" unicode="&#x2022;" horiz-adv-x="770" 
d="M158 748q0 122 58 187.5t169 65.5q110 0 168.5 -65.5t58.5 -187.5t-59.5 -188t-167.5 -66q-110 0 -168.5 66.5t-58.5 187.5z" />
    <glyph glyph-name="glyph528" horiz-adv-x="1620" 
d="M147 111q0 66 32.5 101.5t92.5 35.5q61 0 95 -35.5t34 -101.5q0 -65 -34 -102.5t-95 -37.5q-59 0 -92 37t-33 103zM684 111q0 137 125 137q60 0 93.5 -34.5t33.5 -102.5q0 -67 -34 -103.5t-93 -36.5q-54 0 -89.5 33t-35.5 107zM1219 111q0 69 33 103t91 34
q61 0 95.5 -34.5t34.5 -102.5t-35 -104t-95 -36q-52 0 -88 33t-36 107z" />
    <glyph glyph-name="perthousand" unicode="&#x2030;" horiz-adv-x="2410" 
d="M250 1026q0 -165 35.5 -248.5t113.5 -83.5q158 0 158 332q0 330 -158 330q-78 0 -113.5 -82.5t-35.5 -247.5zM707 1026q0 -228 -78.5 -344.5t-229.5 -116.5q-142 0 -220.5 119.5t-78.5 341.5q0 229 76.5 343t222.5 114q147 0 227.5 -118.5t80.5 -338.5zM1145 440
q0 -167 35.5 -249t113.5 -82q81 0 119.5 81.5t38.5 249.5q0 328 -158 328q-78 0 -113.5 -81.5t-35.5 -246.5zM1602 440q0 -227 -79 -343.5t-229 -116.5q-142 0 -220.5 119.5t-78.5 340.5q0 229 76 343t223 114t227.5 -118.5t80.5 -338.5zM1335 1462l-811 -1462h-157
l811 1462h157zM1853 440q0 -167 35.5 -249t114.5 -82q158 0 158 331q0 328 -158 328q-79 0 -114.5 -81.5t-35.5 -246.5zM2310 440q0 -226 -77.5 -343t-229.5 -117q-144 0 -221.5 120t-77.5 340q0 229 76 343t223 114q146 0 226.5 -118.5t80.5 -338.5z" />
    <glyph glyph-name="minute" unicode="&#x2032;" horiz-adv-x="461" 
d="M328 1462l-41 -528h-113l-41 528h195z" />
    <glyph glyph-name="second" unicode="&#x2033;" horiz-adv-x="836" 
d="M328 1462l-41 -528h-113l-41 528h195zM702 1462l-40 -528h-113l-41 528h194z" />
    <glyph glyph-name="guilsinglleft" unicode="&#x2039;" horiz-adv-x="635" 
d="M82 553l344 412l129 -74l-287 -350l287 -351l-129 -75l-344 411v27z" />
    <glyph glyph-name="guilsinglright" unicode="&#x203a;" horiz-adv-x="635" 
d="M553 526l-346 -411l-127 75l287 351l-287 350l127 74l346 -412v-27z" />
    <glyph glyph-name="exclamdbl" unicode="&#x203c;" horiz-adv-x="1022" 
d="M805 412h-117l-51 1050h219zM618 111q0 66 32.5 101.5t94.5 35.5t94.5 -36.5t32.5 -100.5t-33.5 -102t-93.5 -38q-61 0 -94 37t-33 103zM334 412h-117l-51 1050h219zM147 111q0 66 32.5 101.5t94.5 35.5t94.5 -36.5t32.5 -100.5t-33.5 -102t-93.5 -38q-61 0 -94 37
t-33 103z" />
    <glyph glyph-name="fraction" unicode="&#x2044;" horiz-adv-x="266" 
d="M655 1462l-893 -1462h-153l893 1462h153z" />
    <glyph glyph-name="uni207F" unicode="&#x207f;" horiz-adv-x="813" 
d="M588 797v417q0 85 -38 119.5t-116 34.5q-111 0 -156 -50.5t-45 -174.5v-346h-124v669h102l14 -88h13q73 101 217 101q258 0 258 -250v-432h-125z" />
    <glyph glyph-name="franc" unicode="&#x20a3;" horiz-adv-x="1171" 
d="M444 399h310v-133h-310v-266h-178v266h-174v133h174v1063h793v-162h-615v-514h576v-161h-576v-226z" />
    <glyph glyph-name="lira" unicode="&#x20a4;" horiz-adv-x="1171" 
d="M688 1481q198 0 363 -80l-64 -141q-150 69 -297 69q-237 0 -237 -254v-180h413v-133h-413v-160h413v-135h-415q0 -113 -31.5 -185.5t-108.5 -117.5h787v-164h-1030v152q204 43 204 315h-198v135h198v160h-198v133h198v135q0 451 416 451z" />
    <glyph glyph-name="peseta" unicode="&#x20a7;" horiz-adv-x="1589" 
d="M1382 125q37 0 77.5 7t58.5 13v-133q-67 -32 -179 -32q-118 0 -180.5 71.5t-62.5 208.5v449h-158v82l160 73l63 195h105v-213h225v-137h-225v-426q0 -76 26.5 -117t89.5 -41zM944 1032q0 -228 -139.5 -345.5t-407.5 -117.5h-63v-569h-178v1462h274q514 0 514 -430z
M334 727h53q194 0 284.5 70.5t90.5 226.5q0 142 -83.5 211.5t-260.5 69.5h-84v-578z" />
    <glyph glyph-name="Euro" unicode="&#x20ac;" horiz-adv-x="1171" 
d="M778 1323q-312 0 -387 -391h500v-133h-514l-2 -56v-62l2 -44h452v-133h-436q35 -174 134.5 -269.5t267.5 -95.5q152 0 305 66v-160q-146 -65 -316 -65q-236 0 -381.5 133.5t-191.5 390.5h-164v133h148l-2 42v42l2 78h-148v133h162q40 264 188 406.5t381 142.5
q205 0 367 -95l-76 -147q-162 84 -291 84z" />
    <glyph glyph-name="afii61248" unicode="&#x2105;" horiz-adv-x="1681" 
d="M1311 1462l-811 -1462h-158l811 1462h158zM1548 334q0 -159 -84 -251.5t-235 -92.5q-142 0 -226.5 93.5t-84.5 250.5q0 163 84.5 253.5t232.5 90.5q139 0 226 -92.5t87 -251.5zM1059 334q0 -115 44 -174.5t130 -59.5q83 0 127.5 59.5t44.5 174.5q0 233 -172 233
q-174 0 -174 -233zM483 784q-165 0 -257.5 89t-92.5 251q0 168 93 258.5t266 90.5q103 0 194 -37l-35 -107q-83 31 -162 31q-215 0 -215 -234q0 -231 211 -231q103 0 191 35v-107q-31 -15 -83.5 -27t-109.5 -12z" />
    <glyph glyph-name="afii61289" unicode="&#x2113;" horiz-adv-x="1065" 
d="M637 119q170 0 188 211h105q-8 -169 -85 -259.5t-227 -90.5q-153 0 -234 91.5t-81 264.5v231q-80 -30 -192 -57v121q78 21 192 59v490q0 144 76.5 223.5t218.5 79.5q120 0 190 -81t70 -220q0 -186 -103 -336t-284 -228v-276q0 -103 40 -163t126 -60zM721 1176
q0 188 -123 188q-65 0 -96 -42.5t-31 -145.5v-426q250 131 250 426z" />
    <glyph glyph-name="afii61352" unicode="&#x2116;" horiz-adv-x="2089" 
d="M1223 0h-201l-674 1208h-8q16 -288 16 -397v-811h-161v1462h206l666 -1204h8q-14 245 -14 385v819h162v-1462zM1991 623q0 -164 -81.5 -256.5t-230.5 -92.5q-140 0 -221.5 94t-81.5 255q0 164 81 255t229 91q138 0 221.5 -92.5t83.5 -253.5zM1513 623q0 -113 40 -171.5
t130 -58.5t129 58.5t39 171.5q0 114 -39 168.5t-129 54.5q-89 0 -129.5 -54.5t-40.5 -168.5zM1417 0v141h527v-141h-527z" />
    <glyph glyph-name="trademark" unicode="&#x2122;" horiz-adv-x="1583" 
d="M371 741h-129v611h-207v110h545v-110h-209v-611zM967 741l-197 555h-8l6 -127v-428h-123v721h193l192 -555l199 555h186v-721h-131v418l6 137h-8l-207 -555h-108z" />
    <glyph glyph-name="uni2126" unicode="&#x2126;" horiz-adv-x="1602" 
d="M801 1323q-234 0 -354.5 -127.5t-120.5 -374.5q0 -224 82.5 -385t259.5 -289v-147h-590v162h364q-151 116 -231 288t-80 377q0 308 178 483t492 175q318 0 495 -174t177 -482q0 -206 -80.5 -379t-229.5 -288h363v-162h-590v147q177 127 260.5 290.5t83.5 383.5
q0 246 -121.5 374t-357.5 128z" />
    <glyph glyph-name="estimated" unicode="&#x212e;" horiz-adv-x="1268" 
d="M633 -35q-157 0 -277.5 73.5t-187 204t-66.5 287.5q0 171 69 298.5t191 197.5t271 70q152 0 273.5 -71t189 -200.5t67.5 -294.5h-827v-356q49 -53 132 -88t165 -35q131 0 222.5 52.5t172.5 181.5l72 -41q-98 -155 -206.5 -217t-260.5 -62zM932 616v277q-50 53 -131.5 86
t-169.5 33q-173 0 -295 -117v-279h596z" />
    <glyph glyph-name="oneeighth" unicode="&#x215b;" horiz-adv-x="1618" 
d="M1267 1462l-893 -1462h-153l893 1462h153zM335 1462h150v-876h-146v565q0 67 8 182q-31 -28 -54 -47t-153 -112l-71 100zM1234 890q126 0 201.5 -59t75.5 -163q0 -130 -148 -206q177 -74 177 -230q0 -113 -84.5 -182.5t-221.5 -69.5q-149 0 -229 65.5t-80 180.5
q0 69 37 126.5t121 102.5q-71 44 -101 90.5t-30 116.5q0 103 79.5 165.5t202.5 62.5zM1064 226q0 -59 40.5 -95t125.5 -36q87 0 127.5 36t40.5 95q0 60 -45.5 99t-124.5 65l-26 10q-68 -32 -103 -73.5t-35 -100.5zM1232 777q-66 0 -102.5 -29.5t-36.5 -83.5q0 -90 143 -147
q60 23 98 57t38 90q0 54 -37.5 83.5t-102.5 29.5z" />
    <glyph glyph-name="threeeighths" unicode="&#x215c;" horiz-adv-x="1618" 
d="M1337 1462l-893 -1462h-153l893 1462h153zM1257 890q126 0 201.5 -59t75.5 -163q0 -130 -148 -206q177 -74 177 -230q0 -113 -84.5 -182.5t-221.5 -69.5q-149 0 -229 65.5t-80 180.5q0 69 37 126.5t121 102.5q-71 44 -101 90.5t-30 116.5q0 103 79.5 165.5t202.5 62.5z
M1087 226q0 -59 40.5 -95t125.5 -36q87 0 127.5 36t40.5 95q0 60 -45.5 99t-124.5 65l-26 10q-68 -32 -103 -73.5t-35 -100.5zM1255 777q-66 0 -102.5 -29.5t-36.5 -83.5q0 -90 143 -147q60 23 98 57t38 90q0 54 -37.5 83.5t-102.5 29.5zM631 1255q0 -151 -152 -208
q178 -44 178 -209q0 -127 -92 -198t-262 -71q-152 0 -268 58v129q142 -70 270 -70q205 0 205 156q0 141 -225 141h-117v113h117q103 0 150.5 39t47.5 104q0 59 -38.5 92t-104.5 33q-104 0 -227 -78l-74 94q74 55 146 78t153 23q136 0 214.5 -60.5t78.5 -165.5z" />
    <glyph glyph-name="fiveeighths" unicode="&#x215d;" horiz-adv-x="1618" 
d="M1331 1462l-893 -1462h-153l893 1462h153zM344 1139q145 0 233 -74t88 -197q0 -143 -85.5 -222t-254.5 -79q-74 0 -143.5 15.5t-110.5 38.5v137q56 -34 126 -53t124 -19q92 0 146.5 40.5t54.5 129.5q0 79 -54 121.5t-153 42.5q-54 0 -91.5 -8.5t-68.5 -16.5
q-29 24 -63 41l33 426h497v-112h-379l-18 -224q65 13 119 13zM1253 890q126 0 201.5 -59t75.5 -163q0 -130 -148 -206q177 -74 177 -230q0 -113 -84.5 -182.5t-221.5 -69.5q-149 0 -229 65.5t-80 180.5q0 69 37 126.5t121 102.5q-71 44 -101 90.5t-30 116.5
q0 103 79.5 165.5t202.5 62.5zM1083 226q0 -59 40.5 -95t125.5 -36q87 0 127.5 36t40.5 95q0 60 -45.5 99t-124.5 65l-26 10q-68 -32 -103 -73.5t-35 -100.5zM1251 777q-66 0 -102.5 -29.5t-36.5 -83.5q0 -90 143 -147q60 23 98 57t38 90q0 54 -37.5 83.5t-102.5 29.5z" />
    <glyph glyph-name="seveneighths" unicode="&#x215e;" horiz-adv-x="1618" 
d="M1245 1462l-893 -1462h-153l893 1462h153zM1245 890q126 0 201.5 -59t75.5 -163q0 -130 -148 -206q177 -74 177 -230q0 -113 -84.5 -182.5t-221.5 -69.5q-149 0 -229 65.5t-80 180.5q0 69 37 126.5t121 102.5q-71 44 -101 90.5t-30 116.5q0 103 79.5 165.5t202.5 62.5z
M1075 226q0 -59 40.5 -95t125.5 -36q87 0 127.5 36t40.5 95q0 60 -45.5 99t-124.5 65l-26 10q-68 -32 -103 -73.5t-35 -100.5zM1243 777q-66 0 -102.5 -29.5t-36.5 -83.5q0 -90 143 -147q60 23 98 57t38 90q0 54 -37.5 83.5t-102.5 29.5zM207 586l348 753h-453v123h605v-100
l-349 -776h-151z" />
    <glyph glyph-name="partialdiff" unicode="&#x2202;" horiz-adv-x="1190" 
d="M1081 932q0 -263 -83.5 -491.5t-221.5 -344.5t-315 -116q-176 0 -269.5 101.5t-93.5 293.5q0 170 68.5 324t185.5 233.5t269 79.5q89 0 159.5 -40.5t116.5 -109.5l4 76q-4 389 -274 389q-58 0 -128.5 -21t-129.5 -61v172q61 29 138 45.5t144 16.5q210 0 320 -137.5
t110 -409.5zM471 131q142 0 251 157t144 390q-20 86 -82.5 140t-142.5 54q-99 0 -179 -65t-128.5 -188t-48.5 -246q0 -116 48.5 -179t137.5 -63z" />
    <glyph glyph-name="uni2206" unicode="&#x2206;" horiz-adv-x="1190" 
d="M41 113l461 1349h184l463 -1351v-111h-1108v113zM592 1262q-51 -200 -94 -330l-260 -770h708l-256 762q-67 201 -98 338z" />
    <glyph glyph-name="product" unicode="&#x220f;" horiz-adv-x="1513" 
d="M1133 -492v1790h-752v-1790h-184v1954h1120v-1954h-184z" />
    <glyph glyph-name="summation" unicode="&#x2211;" horiz-adv-x="1292" 
d="M72 -492v113l626 916l-610 811v114h1096v-162h-838l569 -759l-593 -871h927v-162h-1177z" />
    <glyph glyph-name="glyph555" horiz-adv-x="1171" 
d="M102 649v146h965v-146h-965z" />
    <glyph glyph-name="radical" unicode="&#x221a;" horiz-adv-x="1124" 
d="M627 -14h-133l-277 778h-180v143h293l231 -674l512 1461h146z" />
    <glyph glyph-name="infinity" unicode="&#x221e;" horiz-adv-x="1444" 
d="M1325 719q0 -134 -84 -226t-213 -92q-185 0 -309 217q-125 -212 -299 -212q-136 0 -218.5 88t-82.5 229q0 137 84.5 226t216.5 89q180 0 301 -215q124 211 307 211q132 0 214.5 -87t82.5 -228zM428 539q63 0 117 43.5t106 140.5q-49 94 -102.5 139t-122.5 45
q-77 0 -124.5 -52.5t-47.5 -133.5t47 -131.5t127 -50.5zM1016 903q-63 0 -116.5 -44.5t-106.5 -139.5q49 -94 103 -139t122 -45q76 0 124 52t48 132q0 78 -47.5 131t-126.5 53z" />
    <glyph glyph-name="integral" unicode="&#x222b;" horiz-adv-x="793" 
d="M639 1556q83 0 129 -18v-149q-59 24 -115 24q-170 0 -170 -233v-1307q0 -180 -84 -272.5t-249 -92.5q-79 0 -140 21v147q61 -24 123 -24q176 0 176 233v1307q0 364 330 364z" />
    <glyph glyph-name="approxequal" unicode="&#x2248;" horiz-adv-x="1171" 
d="M334 508q-54 0 -117.5 -32t-120.5 -89v158q108 110 256 110q68 0 127 -15t142 -50q73 -31 120.5 -44.5t94.5 -13.5q53 0 115.5 33t119.5 90v-159q-105 -109 -256 -109q-67 0 -122.5 14.5t-143.5 51.5q-75 31 -121 43t-94 12zM334 913q-54 0 -118.5 -32.5t-119.5 -87.5
v157q106 109 256 109q63 0 117 -12.5t152 -53.5q65 -27 113.5 -41t101.5 -14q60 0 122 35t113 86v-158q-104 -110 -256 -110q-69 0 -128 16t-138 49q-89 37 -132.5 47t-82.5 10z" />
    <glyph glyph-name="notequal" unicode="&#x2260;" horiz-adv-x="1171" 
d="M270 221l105 223h-273v146h340l121 262h-461v145h529l135 287l133 -61l-108 -226h274v-145h-340l-125 -262h465v-146h-533l-131 -282z" />
    <glyph glyph-name="lessequal" unicode="&#x2264;" horiz-adv-x="1171" 
d="M1067 244l-965 424v102l965 481v-159l-772 -365l772 -324v-159zM102 0v145h965v-145h-965z" />
    <glyph glyph-name="greaterequal" unicode="&#x2265;" horiz-adv-x="1171" 
d="M102 403l772 322l-772 367v159l965 -481v-102l-965 -424v159zM102 0v145h965v-145h-965z" />
    <glyph glyph-name="lozenge" unicode="&#x25ca;" horiz-adv-x="1194" 
d="M106 735l451 738h78l450 -738l-450 -735h-78zM907 735l-311 520l-309 -520l309 -520z" />
    <glyph glyph-name="uniFB01" unicode="&#xfb01;" horiz-adv-x="1233" 
d="M680 958h-277v-958h-180v958h-192v84l192 62v63q0 200 87.5 300t269.5 100q105 0 213 -37l-48 -141q-93 30 -163 30q-91 0 -135 -60t-44 -190v-71h277v-140zM1059 0h-180v1098h180v-1098zM865 1395q0 60 30.5 87t75.5 27q42 0 73.5 -27t31.5 -87q0 -59 -31.5 -87
t-73.5 -28q-45 0 -75.5 28t-30.5 87z" />
    <glyph glyph-name="uniFB02" unicode="&#xfb02;" horiz-adv-x="1233" 
d="M680 958h-277v-958h-180v958h-192v84l192 62v63q0 200 87.5 300t269.5 100q105 0 213 -37l-48 -141q-93 30 -163 30q-91 0 -135 -60t-44 -190v-71h277v-140zM1059 0h-180v1556h180v-1556z" />
    <glyph glyph-name="glyph566" horiz-adv-x="1182" 
d="M584 1241q-192 0 -279.5 73t-97.5 238h168q9 -104 54.5 -145t158.5 -41q103 0 152.5 44t60.5 142h170q-15 -162 -109 -236.5t-278 -74.5z" />
    <glyph glyph-name="uni0237" unicode="&#x237;" horiz-adv-x="528" 
d="M45 -492q-94 0 -158 25v145q69 -20 136 -20q78 0 114.5 42.5t36.5 129.5v1268h180v-1262q0 -164 -78.5 -246t-230.5 -82z" />
    <glyph glyph-name="glyph568" horiz-adv-x="1024" 
d="M389 1253q23 66 42.5 159t25.5 144h178v-18q-13 -53 -56 -145t-92 -164h-98v24z" />
    <glyph glyph-name="glyph569" horiz-adv-x="1024" 
d="M367 -428q22 51 49 144t35 159h178v-18q-16 -63 -64.5 -156.5t-99.5 -153.5h-98v25z" />
    <glyph glyph-name="glyph570" horiz-adv-x="1024" 
d="M643 1544q-27 -59 -53 -152t-33 -151h-178v19q15 56 64.5 152t99.5 157h100v-25z" />
    <glyph glyph-name="uni2074" unicode="&#x2074;" horiz-adv-x="717" 
d="M698 782h-125v-196h-153v196h-400v107l404 579h149v-563h125v-123zM420 905v191q0 107 6 207q-8 -18 -98 -158l-164 -240h256z" />
    <glyph glyph-name="uni2075" unicode="&#x2075;" horiz-adv-x="717" 
d="M334 1139q145 0 233 -74t88 -197q0 -143 -85.5 -222t-254.5 -79q-74 0 -143.5 15.5t-110.5 38.5v137q56 -34 126 -53t124 -19q92 0 146.5 40.5t54.5 129.5q0 79 -54 121.5t-153 42.5q-54 0 -91.5 -8.5t-68.5 -16.5q-29 24 -63 41l33 426h497v-112h-379l-18 -224
q65 13 119 13z" />
    <glyph glyph-name="uni2077" unicode="&#x2077;" horiz-adv-x="717" 
d="M162 586l348 753h-453v123h605v-100l-349 -776h-151z" />
    <glyph glyph-name="uni2078" unicode="&#x2078;" horiz-adv-x="717" 
d="M360 1479q126 0 201.5 -59t75.5 -163q0 -130 -148 -206q177 -74 177 -230q0 -113 -84.5 -182.5t-221.5 -69.5q-149 0 -229 65.5t-80 180.5q0 69 37 126.5t121 102.5q-71 44 -101 90.5t-30 116.5q0 103 79.5 165.5t202.5 62.5zM190 815q0 -59 40.5 -95t125.5 -36
q87 0 127.5 36t40.5 95q0 60 -45.5 99t-124.5 65l-26 10q-68 -32 -103 -73.5t-35 -100.5zM358 1366q-66 0 -102.5 -29.5t-36.5 -83.5q0 -90 143 -147q60 23 98 57t38 90q0 54 -37.5 83.5t-102.5 29.5z" />
    <glyph glyph-name="uni2000" unicode="&#x2000;" horiz-adv-x="1024" 
 />
    <glyph glyph-name="uni2001" unicode="&#x2001;" horiz-adv-x="2048" 
 />
    <glyph glyph-name="uni2002" unicode="&#x2002;" horiz-adv-x="1024" 
 />
    <glyph glyph-name="uni2003" unicode="&#x2003;" horiz-adv-x="2048" 
 />
    <glyph glyph-name="uni2004" unicode="&#x2004;" horiz-adv-x="682" 
 />
    <glyph glyph-name="uni2005" unicode="&#x2005;" horiz-adv-x="512" 
 />
    <glyph glyph-name="uni2006" unicode="&#x2006;" horiz-adv-x="342" 
 />
    <glyph glyph-name="uni2007" unicode="&#x2007;" horiz-adv-x="1145" 
 />
    <glyph glyph-name="uni2008" unicode="&#x2008;" horiz-adv-x="549" 
 />
    <glyph glyph-name="uni2009" unicode="&#x2009;" horiz-adv-x="410" 
 />
    <glyph glyph-name="uni200A" unicode="&#x200a;" horiz-adv-x="205" 
 />
    <glyph glyph-name="glyph586" 
 />
    <glyph glyph-name="glyph587" 
 />
    <glyph glyph-name="uniFFFC" unicode="&#xfffc;" horiz-adv-x="2048" 
d="M84 1214v304h303v-111h-192v-193h-111zM1681 1407v111h304v-304h-109v193h-195zM84 -383v303h111v-194h192v-109h-303zM1681 -383v109h195v194h109v-303h-304zM1290 -383v109h273v-109h-273zM508 -383v109h270v-109h-270zM508 1407v111h270v-111h-270zM1985 39h-109v270
h109v-270zM1985 823h-109v271h109v-271zM899 -383v109h272v-109h-272zM195 39h-111v270h111v-270zM899 1407v111h272v-111h-272zM1290 1407v111h273v-111h-273zM195 430h-111v272h111v-272zM195 823h-111v271h111v-271zM1985 430h-109v272h109v-272zM864 629
q0 -145 -67.5 -223t-194.5 -78t-194.5 78t-67.5 223q0 146 67.5 223.5t194.5 77.5q126 0 194 -77t68 -224zM467 629q0 -197 135 -197t135 197q0 196 -135 196t-135 -196zM948 922h172q109 0 165 -33.5t56 -116.5q0 -49 -23 -82t-67 -41v-8q61 -14 84 -48t23 -87
q0 -81 -54.5 -125.5t-148.5 -44.5h-207v586zM1071 690h66q46 0 64 17t18 49q0 34 -21 48.5t-68 14.5h-59v-129zM1071 592v-154h74q49 0 67.5 21.5t18.5 58.5q0 74 -90 74h-70zM1491 330q-52 0 -80 10v102q43 -8 68 -8q86 0 86 86v402h125v-398q0 -95 -52.5 -144.5
t-146.5 -49.5z" />
    <glyph glyph-name="uniFFFD" unicode="&#xfffd;" horiz-adv-x="2048" 
d="M1022 1556l940 -938l-940 -937l-938 937zM1087 367v47q0 50 22 82.5t87 81.5q103 82 139.5 145t36.5 151q0 135 -93.5 212t-258.5 77q-79 0 -172 -28t-164 -70l82 -178q160 80 250 80q63 0 94 -29t31 -76q0 -53 -24.5 -90.5t-96.5 -91.5q-84 -68 -113.5 -124t-29.5 -130
v-59h210zM850 92q0 -63 35.5 -99t105.5 -36q66 0 102.5 36.5t36.5 98.5q0 64 -36 100.5t-103 36.5q-72 0 -106.5 -36t-34.5 -101z" />
    <glyph glyph-name="uni01F0" unicode="&#x1f0;" horiz-adv-x="528" 
d="M45 -492q-94 0 -158 25v145q69 -20 136 -20q78 0 114.5 42.5t36.5 129.5v1268h180v-1262q0 -164 -78.5 -246t-230.5 -82zM-81 1569h123q114 -74 219 -189q126 126 223 189h127v-27q-205 -205 -256 -301h-184q-60 102 -252 301v27z" />
    <glyph glyph-name="glyph591" horiz-adv-x="358" 
d="M319 1462l15 -22q-52 -199 -176 -479h-133q70 285 102 501h192z" />
    <glyph glyph-name="theta1" unicode="&#x3d1;" horiz-adv-x="1296" 
d="M1130 838q5 -57 5 -109q0 -353 -146 -551t-409 -198q-197 0 -297.5 83.5t-100.5 258.5q0 61 15 172q14 111 14 141q0 82 -68 82q-44 0 -92 -27l-39 127q94 43 191 43q182 0 182 -186q0 -43 -14 -162q-15 -119 -15 -186q0 -201 230 -201q366 0 366 610q0 59 -4 103
q-331 3 -512.5 114t-181.5 310q0 145 93.5 225t262.5 80q210 0 339.5 -150t172.5 -440h144v-139h-136zM940 977q-19 132 -67 233.5t-115.5 155t-145.5 53.5q-89 0 -136.5 -43.5t-47.5 -115.5q0 -134 135.5 -208t376.5 -75z" />
    <glyph glyph-name="Upsilon1" unicode="&#x3d2;" horiz-adv-x="1171" 
d="M575 731l69 159q57 137 123.5 282t104.5 199t84.5 79t110.5 25q58 0 94 -17v-143q-24 6 -59 6q-45 0 -79.5 -37.5t-116.5 -200t-144.5 -303t-97.5 -237.5v-543h-187v559l-477 903h201z" />
    <glyph glyph-name="omega1" unicode="&#x3d6;" horiz-adv-x="1753" 
d="M567 -20q-189 0 -290 117.5t-101 357.5q0 230 127 493h-280v78l143 72h1524v-150h-252q112 -251 112 -493q0 -240 -101.5 -357.5t-291.5 -117.5q-222 0 -291 184h-8q-71 -184 -291 -184zM479 948q-123 -277 -123 -483q0 -173 54 -254.5t170 -81.5q92 0 144 70.5t52 195.5
v183h174v-183q0 -128 53 -197t144 -69q116 0 168.5 84t52.5 252q0 250 -106 483h-783z" />
    <glyph glyph-name="uni1E3E" unicode="&#x1e3e;" horiz-adv-x="1858" 
d="M844 0l-482 1282h-8q15 -160 15 -395v-887h-170v1462h272l451 -1198h8l459 1198h270v-1462h-182v899q0 150 14 381h-8l-488 -1280h-151zM801 1606q38 48 96.5 136.5t98.5 166.5h217v-21q-44 -64 -137 -161t-156 -146h-119v25z" />
    <glyph glyph-name="uni1E3F" unicode="&#x1e3f;" horiz-adv-x="1915" 
d="M1571 0v707q0 260 -223 260q-153 0 -225 -89t-72 -272v-606h-179v707q0 130 -54.5 195t-170.5 65q-152 0 -222.5 -93t-70.5 -305v-569h-180v1098h145l27 -150h10q47 80 132.5 125t191.5 45q258 0 336 -184h10q53 88 144.5 136t207.5 48q186 0 278.5 -96t92.5 -307v-715
h-178zM850 1266q38 48 96.5 136.5t98.5 166.5h217v-21q-44 -64 -137 -161t-156 -146h-119v25z" />
    <glyph glyph-name="uni1E00" unicode="&#x1e00;" horiz-adv-x="1309" 
d="M1116 0l-176 453h-580l-174 -453h-186l571 1468h166l570 -1468h-191zM885 616l-164 443l-70 219q-30 -120 -63 -219l-166 -443h463zM882 -340q0 -99 -62.5 -159t-166.5 -60q-103 0 -163 58.5t-60 158.5t61 158.5t162 58.5q99 0 164 -58.5t65 -156.5zM768 -342
q0 56 -33 85.5t-82 29.5q-51 0 -83 -29.5t-32 -85.5q0 -54 29 -84.5t86 -30.5q51 0 83 30.5t32 84.5z" />
    <glyph glyph-name="uni1E01" unicode="&#x1e01;" horiz-adv-x="1149" 
d="M852 0l-35 156h-8q-82 -103 -163.5 -139.5t-205.5 -36.5q-162 0 -254 85t-92 240q0 334 527 350l186 7v65q0 125 -54 184.5t-173 59.5q-87 0 -164.5 -26t-145.5 -58l-55 135q83 44 181 69t194 25q199 0 296 -88t97 -280v-748h-131zM481 125q151 0 237.5 81.5t86.5 231.5
v99l-162 -7q-189 -7 -275.5 -60t-86.5 -167q0 -86 52.5 -132t147.5 -46zM770 -340q0 -99 -62.5 -159t-166.5 -60q-103 0 -163 58.5t-60 158.5t61 158.5t162 58.5q99 0 164 -58.5t65 -156.5zM656 -342q0 56 -33 85.5t-82 29.5q-51 0 -83 -29.5t-32 -85.5q0 -54 29 -84.5
t86 -30.5q51 0 83 30.5t32 84.5z" />
    <glyph glyph-name="glyph599" horiz-adv-x="1927" 
d="M1803 733q0 -351 -177.5 -552t-496.5 -201q-323 0 -499.5 197.5t-176.5 557.5q0 357 175.5 553.5t502.5 196.5q318 0 495 -199.5t177 -552.5zM647 733q0 -290 123 -442t359 -152q235 0 357 150t122 444q0 293 -121 441.5t-356 148.5q-238 0 -361 -150.5t-123 -439.5z
M290 1159q20 53 51.5 148.5t44.5 154.5h195v-20q-34 -68 -95 -157t-112 -150h-84v24zM1 1255q0 78 60 135.5t184 86.5v-72q-123 -41 -123 -94q0 -20 16 -29.5t34.5 -17.5t34.5 -21t16 -41q0 -74 -97 -74q-55 0 -90 34.5t-35 92.5z" />
    <glyph glyph-name="uni02F3" unicode="&#x2f3;" horiz-adv-x="682" 
d="M567 -340q0 -99 -62.5 -159t-166.5 -60q-103 0 -163 58.5t-60 158.5t61 158.5t162 58.5q99 0 164 -58.5t65 -156.5zM453 -342q0 56 -33 85.5t-82 29.5q-51 0 -83 -29.5t-32 -85.5q0 -54 29 -84.5t86 -30.5q51 0 83 30.5t32 84.5z" />
    <glyph glyph-name="glyph601" horiz-adv-x="788" 
d="M436 1159q20 53 51.5 148.5t44.5 154.5h195v-20q-34 -68 -95 -157t-112 -150h-84v24zM147 1255q0 78 60 135.5t184 86.5v-72q-123 -41 -123 -94q0 -20 16 -29.5t34.5 -17.5t34.5 -21t16 -41q0 -74 -97 -74q-55 0 -90 34.5t-35 92.5z" />
    <glyph glyph-name="uniFB03" unicode="&#xfb03;" horiz-adv-x="1937" 
d="M680 958h-277v-958h-180v958h-192v84l192 62v63q0 200 87.5 300t269.5 100q105 0 213 -37l-48 -141q-93 30 -163 30q-91 0 -135 -60t-44 -190v-71h277v-140zM1385 958h-277v-958h-180v958h-192v84l192 62v63q0 200 87.5 300t269.5 100q105 0 213 -37l-48 -141
q-93 30 -163 30q-91 0 -135 -60t-44 -190v-71h277v-140zM1763 0h-180v1098h180v-1098zM1569 1395q0 60 30.5 87t75.5 27q42 0 73.5 -27t31.5 -87q0 -59 -31.5 -87t-73.5 -28q-45 0 -75.5 28t-30.5 87z" />
    <glyph glyph-name="uniFB04" unicode="&#xfb04;" horiz-adv-x="1937" 
d="M680 958h-277v-958h-180v958h-192v84l192 62v63q0 200 87.5 300t269.5 100q105 0 213 -37l-48 -141q-93 30 -163 30q-91 0 -135 -60t-44 -190v-71h277v-140zM1385 958h-277v-958h-180v958h-192v84l192 62v63q0 200 87.5 300t269.5 100q105 0 213 -37l-48 -141
q-93 30 -163 30q-91 0 -135 -60t-44 -190v-71h277v-140zM1763 0h-180v1556h180v-1556z" />
    <glyph glyph-name="Ohorn" unicode="&#x1a0;" horiz-adv-x="1606" 
d="M1473 733q0 -354 -177.5 -553.5t-494.5 -199.5q-323 0 -499.5 196.5t-176.5 558.5q0 360 176.5 555t501.5 195t506 -213q68 19 99.5 81t31.5 203h194l15 -22q-31 -160 -98 -247t-171 -126q93 -174 93 -428zM319 733q0 -291 122 -442.5t360 -151.5q237 0 357 149.5
t120 444.5q0 292 -119.5 441t-355.5 149q-241 0 -362.5 -151t-121.5 -439z" />
    <glyph glyph-name="ohorn" unicode="&#x1a1;" horiz-adv-x="1262" 
d="M1128 551q0 -269 -136 -420t-376 -151q-149 0 -264 69.5t-177 199.5t-62 302q0 268 134 417.5t376 149.5q108 0 199 -36.5t157 -104.5q50 15 79.5 48.5t43.5 84t14 156.5h193l14 -23q-32 -161 -95 -248.5t-169 -126.5q69 -140 69 -317zM299 551q0 -216 79 -319t243 -103
q169 0 245 107t76 315q0 205 -77.5 310.5t-246.5 105.5t-244 -105.5t-75 -310.5z" />
    <glyph glyph-name="Uhorn" unicode="&#x1af;" horiz-adv-x="1597" 
d="M1311 1462v-198q82 11 120.5 75.5t38.5 216.5h191l14 -22q-33 -185 -121 -278t-243 -119v-621q0 -256 -144.5 -396t-410.5 -140q-272 0 -422 144t-150 396v942h185v-950q0 -177 97 -275t294 -98q180 0 274 95t94 280v948h183z" />
    <glyph glyph-name="uhorn" unicode="&#x1b0;" horiz-adv-x="1380" 
d="M344 1096v-705q0 -133 59.5 -197.5t184.5 -64.5q169 0 246 94t77 303v570h181v-121q80 13 116.5 77t36.5 216h191l14 -23q-32 -191 -120.5 -285.5t-237.5 -111.5v-848h-148l-26 145h-9q-50 -79 -139 -122t-205 -43q-201 0 -302 95t-101 304v717h182z" />
    <glyph glyph-name="gravecomb" unicode="&#x300;" 
d="M-535 1241h-121q-75 60 -164.5 155.5t-126.5 151.5v21h215q32 -66 91 -157.5t106 -145.5v-25z" />
    <glyph glyph-name="acutecomb" unicode="&#x301;" 
d="M-761 1266q38 48 96.5 136.5t98.5 166.5h217v-21q-44 -64 -137 -161t-156 -146h-119v25z" />
    <glyph glyph-name="tildecomb" unicode="&#x303;" 
d="M-477 1243q-43 0 -84 18.5t-80.5 40t-76 40t-70.5 18.5q-49 0 -74 -29.5t-39 -89.5h-104q12 122 70 192t155 70q45 0 87.5 -18.5t81.5 -40t75 -40t68 -18.5q48 0 72.5 29.5t39.5 89.5h103q-12 -119 -70 -190.5t-154 -71.5z" />
    <glyph glyph-name="glyph611" 
d="M-393 1495q0 -140 -166 -178l-10 -109h-111l-14 174q74 13 118 36t44 71q0 82 -134 82q-53 0 -98 -8v106q37 12 113 12q258 0 258 -186z" />
    <glyph glyph-name="dotbelowcomb" unicode="&#x323;" 
d="M-719 -246q0 60 31.5 87.5t75.5 27.5q43 0 74.5 -27.5t31.5 -87.5q0 -53 -29.5 -83.5t-76.5 -30.5q-48 0 -77.5 30t-29.5 84z" />
    <glyph glyph-name="uni0400" unicode="&#x400;" horiz-adv-x="1139" 
d="M1016 0h-817v1462h817v-162h-633v-456h596v-160h-596v-522h633v-162zM751 1579h-121q-75 60 -164.5 155.5t-126.5 151.5v21h215q32 -66 91 -157.5t106 -145.5v-25z" />
    <glyph glyph-name="uni040D" unicode="&#x40d;" horiz-adv-x="1573" 
d="M201 1462h172v-803q0 -85 -5 -225t-10 -182h9l804 1210h205v-1462h-172v795q0 104 7 242.5t10 179.5h-9l-806 -1217h-205v1462zM901 1579h-121q-75 60 -164.5 155.5t-126.5 151.5v21h215q32 -66 91 -157.5t106 -145.5v-25z" />
    <glyph glyph-name="uni0450" unicode="&#x450;" horiz-adv-x="1155" 
d="M641 -20q-247 0 -387.5 149.5t-140.5 411.5q0 264 131 420.5t354 156.5q207 0 330 -133.5t123 -361.5v-109h-752q5 -187 95 -284t255 -97q88 0 167 15.5t185 60.5v-158q-91 -39 -171 -55t-189 -16zM596 971q-129 0 -204 -83t-89 -231h559q-2 154 -71 234t-195 80z
M726 1241h-121q-75 60 -164.5 155.5t-126.5 151.5v21h215q32 -66 91 -157.5t106 -145.5v-25z" />
    <glyph glyph-name="uni045D" unicode="&#x45d;" horiz-adv-x="1317" 
d="M344 1098v-670l-8 -194l-4 -56l588 920h221v-1098h-168v647l3 139l5 132l-584 -918h-223v1098h170zM769 1241h-121q-75 60 -164.5 155.5t-126.5 151.5v21h215q32 -66 91 -157.5t106 -145.5v-25z" />
    <glyph glyph-name="uni0460" unicode="&#x460;" horiz-adv-x="2087" 
d="M1452 1317q-60 0 -107.5 -21.5t-91.5 -50.5l-73 152q126 84 280 84q233 0 363.5 -187t130.5 -528q0 -371 -143.5 -578.5t-403.5 -207.5q-116 0 -203 25t-162 75h-6q-73 -50 -158 -75t-200 -25q-262 0 -404.5 206.5t-142.5 579.5q0 339 129.5 527t362.5 188q156 0 280 -84
l-74 -152q-44 29 -91 50.5t-107 21.5q-146 0 -226.5 -146t-80.5 -407q0 -295 101.5 -460t287.5 -165q62 0 124 19.5t111 56.5v451h185v-451q98 -76 237 -76q185 0 287 162.5t102 462.5q0 264 -81.5 408.5t-225.5 144.5z" />
    <glyph glyph-name="uni0461" unicode="&#x461;" horiz-adv-x="1692" 
d="M813 449q-34 -105 -151 -338l-54 -111h-223l-385 1098h186l88 -248q100 -280 153 -445.5t75 -273.5h8q29 86 104 242q97 202 125 266l-166 459h195l201 -594q12 -37 28 -85.5t32 -98t29.5 -94t20.5 -74.5h8q166 180 240 395.5t74 550.5h180q0 -367 -98.5 -620
t-315.5 -478h-190l-125 336q-29 75 -39 113z" />
    <glyph glyph-name="afii10146" unicode="&#x462;" horiz-adv-x="1382" 
d="M18 1233h314v229h186v-229h414v-156h-414v-233h193q565 0 565 -416q0 -212 -136 -320t-399 -108h-409v1077h-314v156zM518 156h203q192 0 278 67.5t86 204.5t-92 195.5t-303 58.5h-172v-526z" />
    <glyph glyph-name="afii10194" unicode="&#x463;" horiz-adv-x="1300" 
d="M436 1098h346v-150h-346v-303h309q445 0 445 -309q0 -165 -112.5 -250.5t-336.5 -85.5h-483v948h-240v150h240v221h178v-221zM436 496v-351h297q136 0 207.5 46t71.5 135t-64 129.5t-219 40.5h-293z" />
    <glyph glyph-name="uni0464" unicode="&#x464;" horiz-adv-x="1888" 
d="M1423 1321q-221 0 -348.5 -122t-156.5 -355h692v-160h-697q10 -267 141 -405t367 -138q156 0 353 58v-160q-93 -34 -179.5 -46.5t-199.5 -12.5q-319 0 -492.5 182.5t-183.5 519.5h-336v-682h-184v1462h184v-618h342q32 303 215.5 470t489.5 169q218 0 399 -94l-74 -156
q-105 51 -183.5 69.5t-148.5 18.5z" />
    <glyph glyph-name="uni0465" unicode="&#x465;" horiz-adv-x="1520" 
d="M1151 -20q-237 0 -370 132t-146 377h-281v-489h-180v1098h180v-457h283q24 232 157.5 354.5t358.5 122.5q163 0 295 -59l-53 -148q-128 52 -242 52q-157 0 -236.5 -79t-95.5 -243h525v-152h-527q9 -182 91 -269t241 -87q89 0 156 18.5t127 43.5v-156q-61 -31 -125 -45
t-158 -14z" />
    <glyph glyph-name="uni0466" unicode="&#x466;" horiz-adv-x="1399" 
d="M1204 0l-278 676h-144v-676h-168v676h-143l-281 -676h-190l610 1462h178l611 -1462h-195zM535 834h329l-80 198q-58 150 -86 250q-10 -39 -33 -107.5t-130 -340.5z" />
    <glyph glyph-name="uni0467" unicode="&#x467;" horiz-adv-x="1171" 
d="M694 1098l467 -1098h-184l-203 481h-108v-481h-162v481h-113l-198 -481h-185l465 1098h221zM449 629h270q-99 245 -131 348h-8q-11 -35 -23 -69t-108 -279z" />
    <glyph glyph-name="uni0468" unicode="&#x468;" horiz-adv-x="1903" 
d="M1425 682h-139v-682h-166v682h-141l-279 -682h-196l284 682h-405v-682h-184v1462h184v-618h473l258 618h180l609 -1462h-201zM1042 842h318l-74 196q-60 152 -84 244q-23 -94 -88 -256z" />
    <glyph glyph-name="uni0469" unicode="&#x469;" horiz-adv-x="1597" 
d="M1120 1098l465 -1098h-182l-205 489h-108v-489h-162v489h-107l-205 -489h-184l207 489h-289v-489h-176v1098h176v-459h355l194 459h221zM1014 977h-8q-40 -128 -76 -211l-56 -129h267l-58 145q-35 89 -69 195z" />
    <glyph glyph-name="uni046A" unicode="&#x46a;" horiz-adv-x="1493" 
d="M1335 1462v-135l-417 -491q115 -7 191.5 -45.5t127.5 -113t97.5 -230.5t133.5 -447h-188l-135 449q-32 105 -65 153.5t-82.5 70t-131.5 21.5h-28v-694h-185v694h-26q-81 0 -129.5 -20.5t-80 -67t-65.5 -157.5l-133 -449h-196l135 453q46 155 95 226.5t124.5 110
t189.5 46.5l-409 491v135h1177zM745 856l367 440h-733z" />
    <glyph glyph-name="uni046B" unicode="&#x46b;" horiz-adv-x="1311" 
d="M1163 1098v-105l-332 -354q83 -8 137 -33t90 -64t59.5 -91.5t47.5 -114.5l129 -336h-180l-129 332q-33 85 -60.5 119t-67 48.5t-109.5 14.5h-11v-514h-166v514h-14q-66 0 -105.5 -14t-67 -47t-62.5 -121l-132 -332h-178l129 336q54 138 93 187t95.5 77.5t145.5 38.5
l-332 354v105h1020zM936 950h-565l282 -309z" />
    <glyph glyph-name="uni046C" unicode="&#x46c;" horiz-adv-x="2015" 
d="M1870 1462v-135l-416 -493q115 -7 191.5 -45.5t126.5 -109.5t96 -226l137 -453h-182l-137 449q-36 110 -69 156.5t-83.5 66.5t-136.5 20h-23v-692h-186v692h-21q-126 0 -183.5 -49t-100.5 -194l-133 -449h-193l39 128q91 315 131.5 416t75.5 138h-420v-682h-184v1462h184
v-618h711l-402 483v135h1178zM1647 1296h-732l367 -442z" />
    <glyph glyph-name="uni046D" unicode="&#x46d;" horiz-adv-x="1739" 
d="M1595 1098v-105l-331 -356q83 -8 136.5 -32.5t89.5 -63.5t59.5 -91t47.5 -114l129 -336h-180l-129 332q-33 84 -61 118t-68.5 48t-107.5 14h-11v-512h-165v512h-11q-68 0 -108.5 -14t-68.5 -47t-62 -119l-131 -332h-179l129 336q45 116 82 156h-305v-492h-176v1098h176
v-457h555l-330 352v105h1020zM1368 950h-565l282 -303z" />
    <glyph glyph-name="uni046E" unicode="&#x46e;" horiz-adv-x="1202" 
d="M250 -135q0 -53 42 -78t130 -25q96 0 216 7q120 6 185 6q153 0 221 -39v-174q-70 51 -231 51q-66 0 -174 -5q-109 -5 -213 -5q-182 0 -273.5 65t-91.5 199q0 131 110 196.5t343 75.5q197 6 290 71.5t93 207.5q0 262 -451 262h-208v154h200q215 0 322.5 72.5t107.5 195.5
q0 106 -79.5 167.5t-215.5 61.5q-109 0 -206.5 -30t-196.5 -95l-90 125q167 114 360 142q-51 58 -223 239v27h131q92 -59 223 -195q93 117 158.5 160t130.5 43q55 0 103 -14v-117q-31 12 -70 12q-44 0 -99.5 -41t-103.5 -112q173 -23 271 -118t98 -237t-95.5 -233.5
t-263.5 -116.5v-8q187 -24 288.5 -114t101.5 -232q0 -207 -144.5 -315t-427.5 -115q-96 -3 -155 -16.5t-86 -36.5t-27 -68z" />
    <glyph glyph-name="uni046F" unicode="&#x46f;" horiz-adv-x="1004" 
d="M772 1360q58 0 100 -14v-117q-24 10 -67 10q-47 0 -97.5 -38.5t-95.5 -98.5q122 -28 192 -97t70 -176q0 -187 -210 -243v-8q130 -37 188.5 -104t58.5 -167q0 -153 -125.5 -236t-351.5 -85q-131 -3 -188.5 -26t-57.5 -83q0 -50 38.5 -71t125.5 -21q110 0 205 5t170 5
q123 0 164 -41v-151q-27 23 -72 33t-88 10l-177 -5q-114 -6 -220 -6q-149 0 -229 61.5t-80 178.5q0 122 96.5 186t284.5 68q167 2 247 48.5t80 137.5q0 96 -78 139.5t-239 43.5h-144v147h119q311 0 311 168q0 156 -249 156q-141 0 -310 -70l-63 143q132 54 250 70
q-107 131 -193 213v27h131q72 -50 213 -189q89 112 157 154.5t134 42.5z" />
    <glyph glyph-name="uni0470" unicode="&#x470;" horiz-adv-x="1647" 
d="M911 0h-180v444h-45q-186 0 -314.5 65.5t-195.5 185.5t-67 284v483h184v-479q0 -381 412 -381h26v860h180v-860h29q410 0 410 377v483h188v-481q0 -166 -71 -289.5t-200.5 -185.5t-308.5 -62h-47v-444z" />
    <glyph glyph-name="uni0471" unicode="&#x471;" horiz-adv-x="1559" 
d="M872 1554v-1421q191 18 288 129t97 311q0 131 -14.5 245.5t-50.5 279.5h178q64 -276 64 -518q0 -277 -143 -429t-419 -169v-474h-176v474q-266 9 -400 153t-134 418v545h178v-551q0 -391 356 -416v1423h176z" />
    <glyph glyph-name="afii10147" unicode="&#x472;" horiz-adv-x="1602" 
d="M1475 733q0 -351 -177.5 -552t-496.5 -201q-323 0 -499.5 197.5t-176.5 557.5q0 357 175.5 553.5t502.5 196.5q318 0 495 -199.5t177 -552.5zM801 139q222 0 343.5 133.5t133.5 393.5h-956q13 -260 134.5 -393.5t344.5 -133.5zM803 1323q-218 0 -340 -125.5t-141 -372.5
h954q-19 248 -138.5 373t-334.5 125z" />
    <glyph glyph-name="afii10195" unicode="&#x473;" horiz-adv-x="1239" 
d="M1128 551q0 -269 -136 -420t-376 -151q-149 0 -264 69.5t-177 199.5t-62 302q0 268 134 417.5t376 149.5q232 0 368.5 -152.5t136.5 -414.5zM621 129q156 0 232 92t87 268h-641q18 -360 322 -360zM618 967q-152 0 -227.5 -83t-89.5 -245h639q-30 328 -322 328z" />
    <glyph glyph-name="afii10148" unicode="&#x474;" horiz-adv-x="1300" 
d="M1260 1323q-61 0 -100 -52t-91 -222l-332 -1049h-211l-526 1462h193l333 -936q70 -193 103 -338q29 139 98 361l164 518q59 190 101 266t97 109t144 33q42 0 129 -21v-151q-56 20 -102 20z" />
    <glyph glyph-name="afii10196" unicode="&#x475;" horiz-adv-x="1057" 
d="M408 0q-140 370 -408 1098h188l261 -727q66 -191 75 -244h8q31 165 64 260l143 447q54 167 109.5 220.5t167.5 53.5q38 0 84 -12v-140q-29 11 -70 11q-46 0 -74.5 -41t-56.5 -127l-252 -799h-239z" />
    <glyph glyph-name="uni0476" unicode="&#x476;" horiz-adv-x="1300" 
d="M1260 1323q-61 0 -100 -52t-91 -222l-332 -1049h-211l-526 1462h193l333 -936q70 -193 103 -338q29 139 98 361l164 518q59 190 101 266t97 109t144 33q42 0 129 -21v-151q-56 20 -102 20zM919 1579h-102q-60 48 -148 147.5t-124 159.5v21h198q28 -61 77.5 -148
t98.5 -155v-25zM559 1579h-102q-65 52 -152.5 152t-120.5 155v21h199q28 -61 77.5 -148t98.5 -155v-25z" />
    <glyph glyph-name="uni0477" unicode="&#x477;" horiz-adv-x="1057" 
d="M408 0q-140 370 -408 1098h188l261 -727q66 -191 75 -244h8q31 165 64 260l143 447q54 167 109.5 220.5t167.5 53.5q38 0 84 -12v-140q-29 11 -70 11q-46 0 -74.5 -41t-56.5 -127l-252 -799h-239zM809 1241h-102q-60 48 -148 147.5t-124 159.5v21h198q28 -61 77.5 -148
t98.5 -155v-25zM449 1241h-102q-65 52 -152.5 152t-120.5 155v21h199q28 -61 77.5 -148t98.5 -155v-25z" />
    <glyph glyph-name="uni0478" unicode="&#x478;" horiz-adv-x="2499" 
d="M1370 733q0 -355 -164 -554t-458 -199q-298 0 -460.5 195.5t-162.5 559.5q0 362 162.5 556t462.5 194q295 0 457.5 -198.5t162.5 -553.5zM317 733q0 -292 109.5 -443t321.5 -151t320 149t108 445q0 295 -108 442.5t-318 147.5q-211 0 -322 -148t-111 -442zM1450 1098h190
l244 -629q68 -177 92 -297h9q16 81 94 299l219 627h190l-469 -1250q-69 -182 -164.5 -261t-234.5 -79q-78 0 -152 17v143q55 -12 121 -12q85 0 144.5 46t101.5 148l57 146z" />
    <glyph glyph-name="uni0479" unicode="&#x479;" horiz-adv-x="2189" 
d="M1128 551q0 -269 -136 -420t-376 -151q-149 0 -264 69.5t-177 199.5t-62 302q0 268 134 417.5t376 149.5q232 0 368.5 -152.5t136.5 -414.5zM299 551q0 -207 81.5 -314.5t240.5 -107.5q157 0 239 107.5t82 314.5t-82.5 311.5t-241.5 104.5q-319 0 -319 -416zM1145 1098
h193l237 -625q75 -204 92 -299h8q9 37 41 138.5t54 162.5l223 623h194l-473 -1250q-69 -182 -164 -261t-235 -79q-75 0 -149 17v143q50 -12 120 -12q86 0 146 47.5t98 146.5l57 146z" />
    <glyph glyph-name="uni047A" unicode="&#x47a;" horiz-adv-x="1681" 
d="M1556 733q0 -305 -152 -502.5t-417 -240.5q-26 -111 -145 -111q-124 0 -144 111q-267 40 -420 236t-153 509q0 309 150.5 502t422.5 236q20 108 144 108q118 0 143 -108q269 -44 420 -241.5t151 -498.5zM317 733q0 -238 97.5 -387.5t283.5 -191.5q17 48 53.5 67t90.5 19
q105 0 141 -86q187 42 283 191.5t96 387.5q0 240 -97 388t-282 188q-31 -88 -141 -88q-113 0 -144 86q-186 -40 -283.5 -189t-97.5 -385z" />
    <glyph glyph-name="uni047B" unicode="&#x47b;" horiz-adv-x="1350" 
d="M1237 551q0 -232 -111 -377.5t-321 -183.5q-9 -53 -41 -76t-88 -23q-57 0 -88.5 22.5t-40.5 78.5q-205 36 -319.5 184t-114.5 375q0 232 113.5 376.5t322.5 180.5q8 54 39 75t88 21q54 0 87 -21t42 -77q205 -38 318.5 -185t113.5 -370zM299 551q0 -351 252 -410
q12 42 42 59t83 17q102 0 127 -74q248 60 248 408q0 341 -248 403q-14 -42 -44.5 -58.5t-82.5 -16.5q-54 0 -84.5 17t-42.5 60q-131 -31 -190.5 -133t-59.5 -272z" />
    <glyph glyph-name="uni047C" unicode="&#x47c;" horiz-adv-x="2064" 
d="M1452 1997v-127h-16q-87 0 -159 17.5t-132 38.5t-109.5 38.5t-91.5 17.5q-106 0 -106 -116h-131v30q0 110 62 165t171 55q58 0 114.5 -18.5t116 -41t125.5 -41t144 -18.5h12zM707 139q94 0 179 37t144 100q62 -64 148.5 -100.5t175.5 -36.5q185 0 288 165t103 460
q0 264 -81.5 408.5t-225.5 144.5q-60 0 -108.5 -22.5t-90.5 -51.5q-45 90 -72 152q121 86 277 86q234 0 363.5 -188.5t129.5 -526.5q0 -372 -146.5 -579t-408.5 -207q-113 0 -196 23.5t-156 70.5q-75 -48 -158.5 -71t-195.5 -23q-265 0 -409 206t-144 580q0 341 130.5 528
t362.5 187q156 0 277 -86q-27 -62 -72 -152q-41 29 -88.5 51.5t-107.5 22.5q-147 0 -228.5 -145t-81.5 -408q0 -295 103 -460t289 -165zM1165 1765q0 -80 -61.5 -138.5t-181.5 -86.5v74q58 18 89 43t31 51q0 20 -15.5 29t-34.5 17.5t-34.5 21.5t-15.5 41q0 38 26.5 57.5
t71.5 19.5q57 0 91 -35t34 -94z" />
    <glyph glyph-name="uni047D" unicode="&#x47d;" horiz-adv-x="1671" 
d="M1079 -20q-148 0 -245 69q-47 -32 -103 -50.5t-139 -18.5q-230 0 -355.5 147.5t-125.5 415.5q0 276 104.5 425.5t298.5 149.5q63 0 123 -16t102 -41l-59 -148q-91 52 -160 52q-114 0 -168.5 -104.5t-54.5 -315.5q0 -412 297 -412q57 0 114 18.5t128 65.5q116 -84 241 -84
q295 0 295 412q0 420 -221 420q-71 0 -162 -52l-59 148q41 25 102.5 41t124.5 16q193 0 297.5 -150t104.5 -425q0 -269 -126 -416t-354 -147zM1225 1688v-129h-17q-87 0 -159 18t-132 39t-109 39t-91 18q-53 0 -80 -27.5t-27 -89.5h-131v31q0 110 61 163.5t173 53.5
q58 0 114 -18t115.5 -40t125 -40t142.5 -18h15zM938 1456q0 -81 -62.5 -139t-181.5 -86v72q119 40 119 98q0 29 -49 46q-49 16 -49 60q0 78 98 78q57 0 91 -35t34 -94z" />
    <glyph glyph-name="uni047E" unicode="&#x47e;" horiz-adv-x="2087" 
d="M1452 1317q-60 0 -107.5 -21.5t-91.5 -50.5l-73 152q126 84 280 84q233 0 363.5 -187t130.5 -528q0 -371 -143.5 -578.5t-403.5 -207.5q-116 0 -203 25t-162 75h-6q-73 -50 -158 -75t-200 -25q-262 0 -404.5 206.5t-142.5 579.5q0 339 129.5 527t362.5 188q156 0 280 -84
l-74 -152q-44 29 -91 50.5t-107 21.5q-146 0 -226.5 -146t-80.5 -407q0 -295 101.5 -460t287.5 -165q62 0 124 19.5t111 56.5v451h185v-451q98 -76 237 -76q185 0 287 162.5t102 462.5q0 264 -81.5 408.5t-225.5 144.5zM1453 1802v-33l-82 -172h-33l-49 102h-187l-49 -102
h-33l-49 102h-184l-49 -102h-33l-80 172v33h828z" />
    <glyph glyph-name="uni047F" unicode="&#x47f;" horiz-adv-x="1692" 
d="M813 449q-34 -105 -151 -338l-54 -111h-223l-385 1098h186l88 -248q100 -280 153 -445.5t75 -273.5h8q29 86 104 242q97 202 125 266l-166 459h195l201 -594q12 -37 28 -85.5t32 -98t29.5 -94t20.5 -74.5h8q166 180 240 395.5t74 550.5h180q0 -367 -98.5 -620
t-315.5 -478h-190l-125 336q-29 75 -39 113zM1215 1444v-33l-82 -172h-33l-49 102h-187l-49 -102h-33l-49 102h-184l-49 -102h-33l-80 172v33h828z" />
    <glyph glyph-name="uni0480" unicode="&#x480;" horiz-adv-x="1317" 
d="M840 1319q-243 0 -382 -158.5t-139 -431.5q0 -289 130 -436.5t385 -147.5q111 0 182 25v-662h-185v472q-346 0 -527 192.5t-181 558.5q0 225 88 397t251.5 263.5t381.5 91.5q230 0 413 -86l-75 -158q-172 80 -342 80z" />
    <glyph glyph-name="uni0481" unicode="&#x481;" horiz-adv-x="1008" 
d="M627 -20q-254 2 -384 145.5t-130 417.5q0 277 137 426t391 149q77 0 156.5 -15.5t140.5 -43.5l-53 -150q-150 52 -250 52q-170 0 -253 -101t-83 -315q0 -215 84 -313.5t248 -98.5q66 0 110.5 12.5t85.5 30.5v-668h-180v472h-20z" />
    <glyph glyph-name="uni0482" unicode="&#x482;" horiz-adv-x="1247" 
d="M514 311l-182 -315l-123 67l182 320l-287 166l68 117l289 -168l203 354l-289 166l69 119l287 -168l184 317l121 -69l-184 -318l289 -166l-70 -117l-285 166l-204 -352l286 -168l-67 -117z" />
    <glyph glyph-name="uni0483" unicode="&#x483;" horiz-adv-x="1141" 
d="M391 1262q-6 -45 -27 -70t-69 -25q-53 0 -73.5 26t-20.5 79t21 74.5t75 21.5h451q6 47 28 70.5t70 23.5q51 0 73.5 -24.5t22.5 -77.5q0 -56 -22 -77t-76 -21h-453z" />
    <glyph glyph-name="uni0484" unicode="&#x484;" horiz-adv-x="1182" 
d="M260 1384q120 0 270 59q149 58 230 58q109 0 170 -53.5t61 -163.5v-33h-129v19q0 100 -106 100q-43 0 -93 -18t-110 -39.5t-131.5 -39.5t-157.5 -18h-16v129h12z" />
    <glyph glyph-name="uni0485" unicode="&#x485;" horiz-adv-x="1182" 
d="M477 1464q0 57 35 93t92 36q47 0 72.5 -20.5t25.5 -59.5q0 -27 -15.5 -39.5t-33.5 -20.5t-33.5 -17t-15.5 -29q0 -58 119 -94v-76q-246 58 -246 227z" />
    <glyph glyph-name="uni0486" unicode="&#x486;" horiz-adv-x="1182" 
d="M723 1464q0 -169 -244 -227v76q119 37 119 94q0 20 -15.5 29t-33.5 17t-33.5 20.5t-15.5 39.5q0 39 26 59.5t72 20.5q57 0 91 -36t34 -93z" />
    <glyph glyph-name="uni0488" unicode="&#x488;" horiz-adv-x="2025" 
d="M1001 1425q93 0 149.5 -50.5t63.5 -143.5h-79q-5 44 -35 66t-99 22q-78 0 -103 -20.5t-30 -67.5h-75q11 194 208 194zM1001 -125q92 0 149.5 -51t63.5 -143h-79q-5 44 -35 66t-99 22q-78 0 -103 -20.5t-30 -67.5h-75q5 89 55 141.5t153 52.5zM1581 154q92 0 149.5 -51
t63.5 -144h-80q-5 45 -35 66.5t-98 21.5q-78 0 -103 -19.5t-30 -68.5h-76q5 90 55.5 142.5t153.5 52.5zM428 154q92 0 149.5 -51t63.5 -144h-80q-5 45 -35 66.5t-98 21.5q-78 0 -103 -19.5t-30 -68.5h-76q5 90 55.5 142.5t153.5 52.5zM1581 1141q92 0 149.5 -51t63.5 -144
h-80q-5 45 -35 66.5t-98 21.5q-78 0 -103 -19.5t-30 -68.5h-76q5 90 55.5 142.5t153.5 52.5zM428 1141q92 0 149.5 -51t63.5 -144h-80q-5 45 -35 66.5t-98 21.5q-78 0 -103 -19.5t-30 -68.5h-76q5 90 55.5 142.5t153.5 52.5zM1772 653q92 0 149.5 -52t63.5 -142h-80
q-5 44 -35 66t-98 22q-78 0 -103.5 -20t-30.5 -68h-75q11 194 209 194zM250 653q92 0 149.5 -51t63.5 -143h-80q-5 45 -35 66.5t-98 21.5q-78 0 -103 -19.5t-30 -68.5h-76q5 90 55.5 142t153.5 52z" />
    <glyph glyph-name="uni0489" unicode="&#x489;" horiz-adv-x="1958" 
d="M1079 -35l11 -14q-17 -66 -52 -161.5t-71 -174.5h-97q53 221 70 350h139zM881 1141l-11 14q19 71 55.5 171t67.5 165h97q-52 -220 -70 -350h-139zM1567 651l14 11q71 -19 171 -55.5t165 -67.5v-97q-221 53 -350 70v139zM391 453l-14 -11q-66 17 -161.5 52t-174.5 71v97
q221 -53 350 -70v-139zM1325 1016q0 23 87 68.5t239 101.5l69 -68q-234 -152 -297 -198zM631 45q0 -23 -93.5 -70t-232.5 -98l-69 68q189 117 296 196zM492 877q-17 0 -45 43.5t-68 139.5t-55 142l67 70q123 -198 199 -297zM1462 184l19 -4q38 -66 83 -163t68 -158l-67 -70
q-144 222 -199 297z" />
    <glyph glyph-name="uni048A" unicode="&#x48a;" horiz-adv-x="1608" 
d="M199 1462h172v-805q0 -149 -11 -326l-4 -81h9l804 1212h203v-1300h201l-148 -547h-211l158 385h-170v795q0 169 19 419h-9l-809 -1214h-204v1462zM784 1579q-190 0 -276.5 71.5t-97.5 239.5h165q10 -108 56.5 -147t156.5 -39q105 0 154.5 46.5t58.5 139.5h170
q-13 -163 -108.5 -237t-278.5 -74z" />
    <glyph glyph-name="uni048B" unicode="&#x48b;" horiz-adv-x="1350" 
d="M344 1098v-639q0 -95 -12 -281l588 920h221v-946h188l-129 -531h-184l125 379h-168v649l3 143l5 128l-586 -920h-221v1098h170zM674 1241q-190 0 -277 72t-98 239h166q8 -103 54 -144.5t159 -41.5q105 0 154.5 46.5t58.5 139.5h170q-12 -160 -107 -235.5t-280 -75.5z" />
    <glyph glyph-name="uni048C" unicode="&#x48c;" horiz-adv-x="1255" 
d="M47 1278h152v184h184v-184h336v-160h-336v-274h184q588 0 588 -416q0 -209 -139 -318.5t-414 -109.5h-403v1118h-152v160zM383 156h209q189 0 280 67.5t91 204.5q0 131 -91.5 192.5t-287.5 61.5h-201v-526z" />
    <glyph glyph-name="uni048D" unicode="&#x48d;" horiz-adv-x="1217" 
d="M354 1313h303v-137h-303v-529h308q446 0 446 -311q0 -164 -113 -250t-338 -86h-483v1176h-156v137h156v243h180v-243zM354 496v-351h295q136 0 207.5 45.5t71.5 135.5q0 89 -64 129.5t-219 40.5h-291z" />
    <glyph glyph-name="uni048E" unicode="&#x48e;" horiz-adv-x="1255" 
d="M1149 1032q0 -129 -57 -229t-162 -156l117 -153l-105 -88l-145 190q-98 -27 -236 -27h-178v-569h-184v1462h401q271 0 410 -108t139 -322zM383 727h162q95 0 151 8l-102 135l113 86l133 -170q118 70 118 238q0 141 -93.5 211t-286.5 70h-195v-578z" />
    <glyph glyph-name="uni048F" unicode="&#x48f;" horiz-adv-x="1260" 
d="M694 -20q-221 0 -340 159h-12q12 -148 12 -180v-451h-180v1590h148l26 -150h8q64 89 147 129.5t193 40.5q214 0 332.5 -148.5t118.5 -418.5q0 -337 -178 -481l112 -154l-106 -84l-129 172q-68 -24 -152 -24zM664 967q-163 0 -235.5 -92t-74.5 -289v-35q0 -223 74 -322.5
t240 -99.5q44 0 82 12l-119 154l112 84l125 -162q93 103 93 336q0 208 -72.5 311t-224.5 103z" />
    <glyph glyph-name="uni0492" unicode="&#x492;" horiz-adv-x="1085" 
d="M1038 1462v-164h-655v-495h422v-160h-422v-643h-184v643h-152v160h152v659h839z" />
    <glyph glyph-name="uni0493" unicode="&#x493;" horiz-adv-x="889" 
d="M846 946h-494v-330h344v-139h-344v-477h-180v477h-156v139h156v482h674v-152z" />
    <glyph glyph-name="uni0494" unicode="&#x494;" horiz-adv-x="1333" 
d="M567 643q-94 0 -184 -12v-631h-184v1462h850v-164h-666v-503q95 10 215 10q318 0 490 -171t172 -484q0 -315 -144.5 -488.5t-400.5 -173.5q-85 0 -149 10.5t-134 38.5v164q123 -49 260 -49q375 0 375 498q0 239 -128.5 366t-371.5 127z" />
    </font>
</defs>
</svg>
