<?xml version="1.0" encoding="utf-8"?>
<!-- Generator: Adobe Illustrator 19.1.1, SVG Export Plug-In . SVG Version: 6.00 Build 0)  -->
<svg version="1.1" id="Calque_1" xmlns="http://www.w3.org/2000/svg" xmlns:xlink="http://www.w3.org/1999/xlink" x="0px" y="0px"
	 width="40px" height="40px" viewBox="0 0 40 40" enable-background="new 0 0 40 40" xml:space="preserve">
<g>
	<image overflow="visible" opacity="0.1" width="42" height="36" xlink:href="43D69FB1.png"  transform="matrix(1 0 0 1 1 3)">
	</image>
	<g>
		<path fill="#FFFFFF" d="M25.7,8L25.7,8l0.7,0h0.7l0.5,0.1c0.3,0.1,0.6,0.2,0.9,0.3s0.5,0.2,0.8,0.4C29.6,8.9,29.8,9,30,9.2
			c0.2,0.1,0.4,0.3,0.6,0.5c0.2,0.2,0.4,0.2,0.8,0.1c0.3-0.1,0.7-0.2,1.1-0.3c0.4-0.1,0.8-0.3,1.2-0.5c0.4-0.2,0.6-0.3,0.7-0.3
			c0.1,0,0.1-0.1,0.1-0.1l0,0l0,0l0,0l0,0l0,0l0,0l0,0l0,0l0,0l0,0l0,0l0,0l0,0l0,0l0,0l0,0l0,0l0,0c0,0,0,0.1,0,0.1
			S34.5,9,34.3,9.3s-0.4,0.6-0.6,0.9c-0.2,0.3-0.5,0.6-0.6,0.7c-0.2,0.2-0.3,0.3-0.4,0.3c-0.1,0.1-0.1,0.1-0.2,0.2l-0.1,0.1l0,0l0,0
			l0,0l0,0l0,0l0,0l0,0l0,0l0,0l0,0l0,0l0,0l0,0l0,0l0,0l0,0h0.1h0.1l0.7-0.2c0.5-0.1,1-0.2,1.4-0.4c0.5-0.2,0.7-0.2,0.7-0.2
			c0,0,0.1,0,0.1,0l0,0l0,0l0,0l0,0l0,0l0.1,0l0.1,0v0v0l0,0l0,0l0,0l0,0l0,0l0,0l0,0l0,0l0,0l0,0l0,0l0,0l0,0l0,0l0,0
			c0,0-0.1,0.2-0.3,0.5c-0.2,0.3-0.3,0.4-0.4,0.5c0,0,0,0-0.1,0.1c0,0-0.2,0.2-0.6,0.6c-0.3,0.3-0.7,0.7-1,0.9
			c-0.3,0.3-0.5,0.6-0.5,1c0,0.4,0,0.8-0.1,1.3c0,0.5-0.1,1-0.2,1.6c-0.1,0.6-0.2,1.2-0.5,2c-0.2,0.7-0.5,1.4-0.7,2.1
			c-0.3,0.7-0.6,1.3-0.9,1.9s-0.6,1-0.9,1.4c-0.3,0.4-0.5,0.7-0.8,1.1c-0.3,0.3-0.6,0.7-1,1.1c-0.4,0.4-0.7,0.6-0.7,0.7
			c0,0-0.2,0.2-0.5,0.4c-0.3,0.3-0.6,0.5-1,0.8c-0.3,0.3-0.7,0.5-1,0.6c-0.3,0.2-0.6,0.4-1.1,0.6c-0.4,0.2-0.9,0.4-1.3,0.6
			c-0.5,0.2-1,0.4-1.5,0.5c-0.5,0.2-1,0.3-1.5,0.4c-0.5,0.1-1.1,0.2-1.7,0.2l-0.9,0.1v0v0h-0.9h-0.9v0v0l-0.2,0c-0.2,0-0.3,0-0.4,0
			s-0.5-0.1-1.1-0.1c-0.6-0.1-1.1-0.2-1.5-0.3s-0.9-0.3-1.6-0.5c-0.7-0.2-1.3-0.5-1.8-0.8c-0.5-0.3-0.8-0.4-1-0.5
			c-0.1-0.1-0.3-0.1-0.4-0.2l-0.2-0.1l0,0l0,0l0,0l0,0l0,0l0,0l0,0l0,0l0,0l0,0l0,0l0,0h0h0v0v0l0,0l0,0l0.1,0c0.1,0,0.3,0,0.7,0
			s0.7,0,1.1,0s0.8-0.1,1.2-0.1c0.4-0.1,0.9-0.2,1.5-0.3c0.6-0.2,1.1-0.3,1.6-0.5c0.5-0.2,0.8-0.4,1-0.5c0.2-0.1,0.5-0.3,0.9-0.6
			l0.6-0.4l0,0l0,0l0,0l0,0l0,0l0,0l0,0l0,0l0,0l0,0l0,0l0,0l0,0l0,0l-0.2,0c-0.1,0-0.3,0-0.4,0s-0.3,0-0.6-0.1
			c-0.3-0.1-0.6-0.2-0.9-0.3c-0.3-0.1-0.6-0.3-1-0.5s-0.5-0.4-0.7-0.5c-0.1-0.1-0.3-0.3-0.5-0.5c-0.2-0.2-0.4-0.5-0.6-0.7
			c-0.2-0.2-0.3-0.5-0.5-0.9l-0.2-0.5l0,0l0,0l0,0l0,0l0,0l0,0l0.3,0c0.2,0,0.5,0,0.9,0s0.7,0,0.9-0.1c0.2,0,0.3,0,0.3-0.1l0.1,0
			l0.1,0l0.1,0l0,0l0,0l0,0l0,0l-0.1,0l-0.1,0l-0.1,0l-0.1,0l-0.1,0c0,0-0.1,0-0.2-0.1s-0.3-0.1-0.7-0.3c-0.4-0.2-0.7-0.3-0.9-0.5
			c-0.2-0.2-0.4-0.3-0.7-0.5c-0.2-0.2-0.4-0.4-0.7-0.7c-0.2-0.3-0.5-0.7-0.7-1c-0.2-0.4-0.3-0.8-0.4-1.1c-0.1-0.4-0.2-0.7-0.2-1.1
			l0-0.6l0,0l0,0l0,0l0,0l0,0l0,0l0.4,0.2c0.3,0.1,0.6,0.2,1,0.3s0.7,0.1,0.7,0.1l0.1,0h0.1h0.1l0,0l0,0l0,0l0,0l0,0l0,0l0,0l0,0
			l0,0l0,0l0,0l0,0l0,0l0,0l0,0l0,0l0,0c0,0-0.1-0.1-0.2-0.2c-0.1-0.1-0.3-0.3-0.5-0.4c-0.2-0.2-0.3-0.4-0.5-0.6s-0.3-0.4-0.4-0.6
			C8,15,7.8,14.7,7.7,14.4c-0.1-0.3-0.2-0.7-0.3-1c-0.1-0.3-0.1-0.7-0.1-1c0-0.3,0-0.6,0-0.9c0-0.2,0.1-0.5,0.2-0.8s0.2-0.6,0.3-1
			L8,9.2l0,0l0,0l0,0l0,0l0,0l0,0l0,0l0,0l0,0l0,0l0,0l0,0l0,0l0,0l0,0l0,0l0,0l0,0l0.4,0.4c0.2,0.3,0.5,0.6,0.8,0.9
			C9.7,10.8,9.9,11,9.9,11c0,0,0.1,0.1,0.1,0.1c0.1,0.1,0.2,0.2,0.5,0.5c0.3,0.2,0.7,0.5,1.2,0.9s1,0.7,1.6,1
			c0.6,0.3,1.2,0.6,1.9,0.9c0.7,0.3,1.2,0.4,1.4,0.5c0.3,0.1,0.7,0.2,1.4,0.3c0.7,0.1,1.2,0.2,1.5,0.2s0.6,0.1,0.7,0.1l0.2,0l0,0
			l0,0L20.4,15c0-0.2-0.1-0.5-0.1-0.9s0-0.8,0.1-1.1c0.1-0.3,0.2-0.7,0.3-1c0.1-0.3,0.2-0.6,0.4-0.8c0.1-0.2,0.3-0.4,0.5-0.7
			c0.2-0.3,0.4-0.5,0.8-0.8c0.3-0.3,0.7-0.5,1.1-0.8c0.4-0.2,0.8-0.4,1.1-0.5c0.3-0.1,0.6-0.2,0.8-0.2S25.7,8,25.7,8z"/>
	</g>
</g>
</svg>
