<?xml version="1.0" encoding="utf-8"?>
<!-- Generator: Adobe Illustrator 19.1.1, SVG Export Plug-In . SVG Version: 6.00 Build 0)  -->
<svg version="1.1" id="Calque_1" xmlns="http://www.w3.org/2000/svg" xmlns:xlink="http://www.w3.org/1999/xlink" x="0px" y="0px"
	 width="40px" height="40px" viewBox="0 0 40 40" enable-background="new 0 0 40 40" xml:space="preserve">
<g>
	<image overflow="visible" opacity="0.1" width="42" height="42" xlink:href="970B07D0.png" >
	</image>
	<g>
		<path fill="#FFFFFF" d="M5.9,30.4c0-1,0.4-1.9,1.1-2.7c0.7-0.7,1.6-1.1,2.7-1.1s1.9,0.4,2.7,1.1c0.7,0.7,1.1,1.6,1.1,2.7
			c0,1.1-0.4,2-1.1,2.7s-1.6,1.1-2.7,1.1S7.8,33.8,7,33.1C6.3,32.3,5.9,31.4,5.9,30.4z M5.9,20.9v-5.4c3.4,0,6.5,0.8,9.4,2.5
			s5.2,4,6.8,6.8c1.7,2.9,2.5,6,2.5,9.4h-5.5c0-3.7-1.3-6.8-3.9-9.4C12.7,22.2,9.6,20.9,5.9,20.9z M5.9,11.2V5.8
			c3.8,0,7.5,0.8,11,2.3s6.5,3.5,9.1,6.1s4.6,5.6,6.1,9.1c1.5,3.5,2.3,7.2,2.3,11h-5.5c0-3.1-0.6-6.1-1.8-8.9
			c-1.2-2.8-2.8-5.3-4.9-7.3s-4.5-3.7-7.3-4.9S9,11.2,5.9,11.2z"/>
	</g>
</g>
</svg>
