<?xml version="1.0" encoding="UTF-8"?>
<svg width="45px" height="45px" viewBox="0 0 45 45" version="1.1" xmlns="http://www.w3.org/2000/svg" xmlns:xlink="http://www.w3.org/1999/xlink">
    <!-- Generator: Sketch 42 (36781) - http://www.bohemiancoding.com/sketch -->
    <title>Artboard 3 Copy 3</title>
    <desc>Created with Sketch.</desc>
    <defs></defs>
    <g id="Page-1" stroke="none" stroke-width="1" fill="none" fill-rule="evenodd">
        <g id="Artboard-3-Copy-3" fill-rule="nonzero" fill="#7A7A7A">
            <g id="svg+xml" transform="translate(8.000000, 11.000000)">
                <g id="Calque_1">
                    <g id="Group">
                        <path d="M19.7,0 L19.7,0 L20.4,0 L21.1,0 L21.6,0.1 C21.9,0.2 22.2,0.3 22.5,0.4 C22.8,0.5 23,0.6 23.3,0.8 C23.6,0.9 23.8,1 24,1.2 C24.2,1.3 24.4,1.5 24.6,1.7 C24.8,1.9 25,1.9 25.4,1.8 C25.7,1.7 26.1,1.6 26.5,1.5 C26.9,1.4 27.3,1.2 27.7,1 C28.1,0.8 28.3,0.7 28.4,0.7 C28.5,0.7 28.5,0.6 28.5,0.6 L28.5,0.6 L28.5,0.6 L28.5,0.6 L28.5,0.6 L28.5,0.6 L28.5,0.6 L28.5,0.6 L28.5,0.6 L28.5,0.6 L28.5,0.6 L28.5,0.6 L28.5,0.6 L28.5,0.6 L28.5,0.6 L28.5,0.6 L28.5,0.6 L28.5,0.6 L28.5,0.6 L28.5,0.7 C28.5,0.7 28.5,1 28.3,1.3 C28.1,1.6 27.9,1.9 27.7,2.2 C27.5,2.5 27.2,2.8 27.1,2.9 C26.9,3.1 26.8,3.2 26.7,3.2 C26.6,3.3 26.6,3.3 26.5,3.4 L26.4,3.5 L26.4,3.5 L26.4,3.5 L26.4,3.5 L26.4,3.5 L26.4,3.5 L26.4,3.5 L26.4,3.5 L26.4,3.5 L26.4,3.5 L26.4,3.5 L26.4,3.5 L26.4,3.5 L26.4,3.5 L26.4,3.5 L26.4,3.5 L26.4,3.5 L26.5,3.5 L26.6,3.5 L27.3,3.3 C27.8,3.2 28.3,3.1 28.7,2.9 C29.2,2.7 29.4,2.7 29.4,2.7 L29.5,2.7 L29.5,2.7 L29.5,2.7 L29.5,2.7 L29.5,2.7 L29.5,2.7 L29.6,2.7 L29.7,2.7 L29.7,2.7 L29.7,2.7 L29.7,2.7 L29.7,2.7 L29.7,2.7 L29.7,2.7 L29.7,2.7 L29.7,2.7 L29.7,2.7 L29.7,2.7 L29.7,2.7 L29.7,2.7 L29.7,2.7 L29.7,2.7 L29.7,2.7 L29.7,2.7 L29.7,2.7 C29.7,2.7 29.6,2.9 29.4,3.2 C29.2,3.5 29.1,3.6 29,3.7 C29,3.7 29,3.7 28.9,3.8 C28.9,3.8 28.7,4 28.3,4.4 C28,4.7 27.6,5.1 27.3,5.3 C27,5.6 26.8,5.9 26.8,6.3 C26.8,6.7 26.8,7.1 26.7,7.6 C26.7,8.1 26.6,8.6 26.5,9.2 C26.4,9.8 26.3,10.4 26,11.2 C25.8,11.9 25.5,12.6 25.3,13.3 C25,14 24.7,14.6 24.4,15.2 C24.1,15.8 23.8,16.2 23.5,16.6 C23.2,17 23,17.3 22.7,17.7 C22.4,18 22.1,18.4 21.7,18.8 C21.3,19.2 21,19.4 21,19.5 C21,19.5 20.8,19.7 20.5,19.9 C20.2,20.2 19.9,20.4 19.5,20.7 C19.2,21 18.8,21.2 18.5,21.3 C18.2,21.5 17.9,21.7 17.4,21.9 C17,22.1 16.5,22.3 16.1,22.5 C15.6,22.7 15.1,22.9 14.6,23 C14.1,23.2 13.6,23.3 13.1,23.4 C12.6,23.5 12,23.6 11.4,23.6 L10.5,23.7 L10.5,23.7 L10.5,23.7 L9.6,23.7 L8.7,23.7 L8.7,23.7 L8.7,23.7 L8.5,23.7 L8.1,23.7 C8,23.7 7.6,23.6 7,23.6 C6.4,23.5 5.9,23.4 5.5,23.3 C5.1,23.2 4.6,23 3.9,22.8 C3.2,22.6 2.6,22.3 2.1,22 C1.6,21.7 1.3,21.6 1.1,21.5 C1,21.4 0.8,21.4 0.7,21.3 L0.5,21.2 L0.5,21.2 L0.5,21.2 L0.5,21.2 L0.5,21.2 L0.5,21.2 L0.5,21.2 L0.5,21.2 L0.5,21.2 L0.5,21.2 L0.5,21.2 L0.5,21.2 L0.5,21.2 L0.5,21.2 L0.5,21.2 L0.5,21.2 L0.5,21.2 L0.5,21.2 L0.5,21.2 L0.6,21.2 L1.3,21.2 L2.4,21.2 C2.8,21.2 3.2,21.1 3.6,21.1 C4,21 4.5,20.9 5.1,20.8 C5.7,20.6 6.2,20.5 6.7,20.3 C7.2,20.1 7.5,19.9 7.7,19.8 C7.9,19.7 8.2,19.5 8.6,19.2 L9.2,18.8 L9.2,18.8 L9.2,18.8 L9.2,18.8 L9.2,18.8 L9.2,18.8 L9.2,18.8 L9.2,18.8 L9.2,18.8 L9.2,18.8 L9.2,18.8 L9.2,18.8 L9.2,18.8 L9.2,18.8 L9.2,18.8 L9,18.8 L8.6,18.8 C8.5,18.8 8.3,18.8 8,18.7 C7.7,18.6 7.4,18.5 7.1,18.4 C6.8,18.3 6.5,18.1 6.1,17.9 C5.7,17.7 5.6,17.5 5.4,17.4 C5.3,17.3 5.1,17.1 4.9,16.9 C4.7,16.7 4.5,16.4 4.3,16.2 C4.1,16 4,15.7 3.8,15.3 L3.6,14.8 L3.6,14.8 L3.6,14.8 L3.6,14.8 L3.6,14.8 L3.6,14.8 L3.6,14.8 L3.9,14.8 L4.8,14.8 C5.2,14.8 5.5,14.8 5.7,14.7 C5.9,14.7 6,14.7 6,14.6 L6.1,14.6 L6.2,14.6 L6.3,14.6 L6.3,14.6 L6.3,14.6 L6.3,14.6 L6.3,14.6 L6.2,14.6 L6.1,14.6 L6,14.6 L5.9,14.6 L5.8,14.6 C5.8,14.6 5.7,14.6 5.6,14.5 C5.5,14.4 5.3,14.4 4.9,14.2 C4.5,14 4.2,13.9 4,13.7 C3.8,13.5 3.6,13.4 3.3,13.2 C3.1,13 2.9,12.8 2.6,12.5 C2.4,12.2 2.1,11.8 1.9,11.5 C1.7,11.1 1.6,10.7 1.5,10.4 C1.4,10 1.3,9.7 1.3,9.3 L1.3,8.7 L1.3,8.7 L1.3,8.7 L1.3,8.7 L1.3,8.7 L1.3,8.7 L1.3,8.7 L1.7,8.9 C2,9 2.3,9.1 2.7,9.2 C3.1,9.3 3.4,9.3 3.4,9.3 L3.5,9.3 L3.6,9.3 L3.7,9.3 L3.7,9.3 L3.7,9.3 L3.7,9.3 L3.7,9.3 L3.7,9.3 L3.7,9.3 L3.7,9.3 L3.7,9.3 L3.7,9.3 L3.7,9.3 L3.7,9.3 L3.7,9.3 L3.7,9.3 L3.7,9.3 L3.7,9.3 L3.7,9.3 L3.7,9.3 C3.7,9.3 3.6,9.2 3.5,9.1 C3.4,9 3.2,8.8 3,8.7 C2.8,8.5 2.7,8.3 2.5,8.1 C2.3,7.9 2.2,7.7 2.1,7.5 C2,7 1.8,6.7 1.7,6.4 C1.6,6.1 1.5,5.7 1.4,5.4 C1.3,5.1 1.3,4.7 1.3,4.4 L1.3,3.5 C1.3,3.3 1.4,3 1.5,2.7 C1.6,2.4 1.7,2.1 1.8,1.7 L2,1.2 L2,1.2 L2,1.2 L2,1.2 L2,1.2 L2,1.2 L2,1.2 L2,1.2 L2,1.2 L2,1.2 L2,1.2 L2,1.2 L2,1.2 L2,1.2 L2,1.2 L2,1.2 L2,1.2 L2,1.2 L2,1.2 L2.4,1.6 C2.6,1.9 2.9,2.2 3.2,2.5 C3.7,2.8 3.9,3 3.9,3 L4,3.1 C4.1,3.2 4.2,3.3 4.5,3.6 C4.8,3.8 5.2,4.1 5.7,4.5 C6.2,4.9 6.7,5.2 7.3,5.5 C7.9,5.8 8.5,6.1 9.2,6.4 C9.9,6.7 10.4,6.8 10.6,6.9 C10.9,7 11.3,7.1 12,7.2 C12.7,7.3 13.2,7.4 13.5,7.4 C13.8,7.4 14.1,7.5 14.2,7.5 L14.4,7.5 L14.4,7.5 L14.4,7.5 L14.4,7 C14.4,6.8 14.3,6.5 14.3,6.1 C14.3,5.7 14.3,5.3 14.4,5 C14.5,4.7 14.6,4.3 14.7,4 C14.8,3.7 14.9,3.4 15.1,3.2 C15.2,3 15.4,2.8 15.6,2.5 C15.8,2.2 16,2 16.4,1.7 C16.7,1.4 17.1,1.2 17.5,0.9 C17.9,0.7 18.3,0.5 18.6,0.4 C18.9,0.3 19.2,0.2 19.4,0.2 C19.6,0.2 19.7,0 19.7,0 Z" id="Shape"></path>
                    </g>
                </g>
            </g>
        </g>
    </g>
</svg>