<svg xmlns="http://www.w3.org/2000/svg" xmlns:xlink="http://www.w3.org/1999/xlink" version="1.1" x="0px" y="0px" width="612px" height="792px" viewBox="0 0 612 792" xml:space="preserve" class="style0">
<style>
	.style0{enable-background: new 0 0 612 792;}
	.logo-prestashop{fill: white;}
</style>
<path class="logo-prestashop" d="M204 86c-36 23-47 61-42 120l-27 3C131 147 161 98 204 86z M245 78c64 8 100 35 115 105l-169 20C185 140 199 105 245 78z M280 64c72 0 120 25 135 112l-27 3C375 112 341 76 280 64z M442 174C429 54 314 19 240 56c-83-2-140 73-133 157l-96 10l58 550 l261-26c-47-53-100-133-124-152c-27-23-30-31-23-45c12-14 24-12 45 4l48 37l7 36l14-1l-37-231c-4-24 1-35 19-40c18-2 27 7 31 34 l23 141l18-2c-7-50-3-57 17-62c19-3 28 10 35 64l17-1c-5-50-1-57 19-60c22-1 25 12 32 65l16 2c-4-40-4-51 18-53c21 0 25 14 31 58 c15 100 13 154-6 183l72-7l-58-555L442 174z"/>
</svg>